G04 #@! TF.GenerationSoftware,KiCad,Pcbnew,(5.1.5)-3*
G04 #@! TF.CreationDate,2020-05-08T19:39:07+02:00*
G04 #@! TF.ProjectId,DRV8870 BDC Motor Driver,44525638-3837-4302-9042-4443204d6f74,rev?*
G04 #@! TF.SameCoordinates,Original*
G04 #@! TF.FileFunction,Legend,Top*
G04 #@! TF.FilePolarity,Positive*
%FSLAX46Y46*%
G04 Gerber Fmt 4.6, Leading zero omitted, Abs format (unit mm)*
G04 Created by KiCad (PCBNEW (5.1.5)-3) date 2020-05-08 19:39:07*
%MOMM*%
%LPD*%
G04 APERTURE LIST*
%ADD10C,0.150000*%
%ADD11C,0.120000*%
%ADD12C,0.254000*%
G04 APERTURE END LIST*
D10*
X150923809Y-80097380D02*
X151114285Y-80097380D01*
X151209523Y-80145000D01*
X151304761Y-80240238D01*
X151352380Y-80430714D01*
X151352380Y-80764047D01*
X151304761Y-80954523D01*
X151209523Y-81049761D01*
X151114285Y-81097380D01*
X150923809Y-81097380D01*
X150828571Y-81049761D01*
X150733333Y-80954523D01*
X150685714Y-80764047D01*
X150685714Y-80430714D01*
X150733333Y-80240238D01*
X150828571Y-80145000D01*
X150923809Y-80097380D01*
X151780952Y-80097380D02*
X151780952Y-80906904D01*
X151828571Y-81002142D01*
X151876190Y-81049761D01*
X151971428Y-81097380D01*
X152161904Y-81097380D01*
X152257142Y-81049761D01*
X152304761Y-81002142D01*
X152352380Y-80906904D01*
X152352380Y-80097380D01*
X152685714Y-80097380D02*
X153257142Y-80097380D01*
X152971428Y-81097380D02*
X152971428Y-80097380D01*
X154019047Y-80430714D02*
X154019047Y-81097380D01*
X153780952Y-80049761D02*
X153542857Y-80764047D01*
X154161904Y-80764047D01*
X145843809Y-80097380D02*
X146034285Y-80097380D01*
X146129523Y-80145000D01*
X146224761Y-80240238D01*
X146272380Y-80430714D01*
X146272380Y-80764047D01*
X146224761Y-80954523D01*
X146129523Y-81049761D01*
X146034285Y-81097380D01*
X145843809Y-81097380D01*
X145748571Y-81049761D01*
X145653333Y-80954523D01*
X145605714Y-80764047D01*
X145605714Y-80430714D01*
X145653333Y-80240238D01*
X145748571Y-80145000D01*
X145843809Y-80097380D01*
X146700952Y-80097380D02*
X146700952Y-80906904D01*
X146748571Y-81002142D01*
X146796190Y-81049761D01*
X146891428Y-81097380D01*
X147081904Y-81097380D01*
X147177142Y-81049761D01*
X147224761Y-81002142D01*
X147272380Y-80906904D01*
X147272380Y-80097380D01*
X147605714Y-80097380D02*
X148177142Y-80097380D01*
X147891428Y-81097380D02*
X147891428Y-80097380D01*
X148415238Y-80097380D02*
X149034285Y-80097380D01*
X148700952Y-80478333D01*
X148843809Y-80478333D01*
X148939047Y-80525952D01*
X148986666Y-80573571D01*
X149034285Y-80668809D01*
X149034285Y-80906904D01*
X148986666Y-81002142D01*
X148939047Y-81049761D01*
X148843809Y-81097380D01*
X148558095Y-81097380D01*
X148462857Y-81049761D01*
X148415238Y-81002142D01*
X130603809Y-80097380D02*
X130794285Y-80097380D01*
X130889523Y-80145000D01*
X130984761Y-80240238D01*
X131032380Y-80430714D01*
X131032380Y-80764047D01*
X130984761Y-80954523D01*
X130889523Y-81049761D01*
X130794285Y-81097380D01*
X130603809Y-81097380D01*
X130508571Y-81049761D01*
X130413333Y-80954523D01*
X130365714Y-80764047D01*
X130365714Y-80430714D01*
X130413333Y-80240238D01*
X130508571Y-80145000D01*
X130603809Y-80097380D01*
X131460952Y-80097380D02*
X131460952Y-80906904D01*
X131508571Y-81002142D01*
X131556190Y-81049761D01*
X131651428Y-81097380D01*
X131841904Y-81097380D01*
X131937142Y-81049761D01*
X131984761Y-81002142D01*
X132032380Y-80906904D01*
X132032380Y-80097380D01*
X132365714Y-80097380D02*
X132937142Y-80097380D01*
X132651428Y-81097380D02*
X132651428Y-80097380D01*
X133222857Y-80192619D02*
X133270476Y-80145000D01*
X133365714Y-80097380D01*
X133603809Y-80097380D01*
X133699047Y-80145000D01*
X133746666Y-80192619D01*
X133794285Y-80287857D01*
X133794285Y-80383095D01*
X133746666Y-80525952D01*
X133175238Y-81097380D01*
X133794285Y-81097380D01*
X126158809Y-80097380D02*
X126349285Y-80097380D01*
X126444523Y-80145000D01*
X126539761Y-80240238D01*
X126587380Y-80430714D01*
X126587380Y-80764047D01*
X126539761Y-80954523D01*
X126444523Y-81049761D01*
X126349285Y-81097380D01*
X126158809Y-81097380D01*
X126063571Y-81049761D01*
X125968333Y-80954523D01*
X125920714Y-80764047D01*
X125920714Y-80430714D01*
X125968333Y-80240238D01*
X126063571Y-80145000D01*
X126158809Y-80097380D01*
X127015952Y-80097380D02*
X127015952Y-80906904D01*
X127063571Y-81002142D01*
X127111190Y-81049761D01*
X127206428Y-81097380D01*
X127396904Y-81097380D01*
X127492142Y-81049761D01*
X127539761Y-81002142D01*
X127587380Y-80906904D01*
X127587380Y-80097380D01*
X127920714Y-80097380D02*
X128492142Y-80097380D01*
X128206428Y-81097380D02*
X128206428Y-80097380D01*
X129349285Y-81097380D02*
X128777857Y-81097380D01*
X129063571Y-81097380D02*
X129063571Y-80097380D01*
X128968333Y-80240238D01*
X128873095Y-80335476D01*
X128777857Y-80383095D01*
X137271428Y-80716428D02*
X138033333Y-80716428D01*
X137652380Y-81097380D02*
X137652380Y-80335476D01*
X138366666Y-80097380D02*
X138700000Y-81097380D01*
X139033333Y-80097380D01*
X139700000Y-80573571D02*
X139842857Y-80621190D01*
X139890476Y-80668809D01*
X139938095Y-80764047D01*
X139938095Y-80906904D01*
X139890476Y-81002142D01*
X139842857Y-81049761D01*
X139747619Y-81097380D01*
X139366666Y-81097380D01*
X139366666Y-80097380D01*
X139700000Y-80097380D01*
X139795238Y-80145000D01*
X139842857Y-80192619D01*
X139890476Y-80287857D01*
X139890476Y-80383095D01*
X139842857Y-80478333D01*
X139795238Y-80525952D01*
X139700000Y-80573571D01*
X139366666Y-80573571D01*
X140700000Y-80573571D02*
X140842857Y-80621190D01*
X140890476Y-80668809D01*
X140938095Y-80764047D01*
X140938095Y-80906904D01*
X140890476Y-81002142D01*
X140842857Y-81049761D01*
X140747619Y-81097380D01*
X140366666Y-81097380D01*
X140366666Y-80097380D01*
X140700000Y-80097380D01*
X140795238Y-80145000D01*
X140842857Y-80192619D01*
X140890476Y-80287857D01*
X140890476Y-80383095D01*
X140842857Y-80478333D01*
X140795238Y-80525952D01*
X140700000Y-80573571D01*
X140366666Y-80573571D01*
X141366666Y-80716428D02*
X142128571Y-80716428D01*
D11*
X138176000Y-120015000D02*
X138176000Y-120269000D01*
X136271000Y-120015000D02*
X138176000Y-120015000D01*
X136271000Y-120269000D02*
X136271000Y-120015000D01*
X135509000Y-120015000D02*
X135509000Y-120269000D01*
X133604000Y-120015000D02*
X135509000Y-120015000D01*
X133604000Y-120269000D02*
X133604000Y-120015000D01*
D12*
X131838095Y-126304523D02*
X131838095Y-125034523D01*
X132140476Y-125034523D01*
X132321904Y-125095000D01*
X132442857Y-125215952D01*
X132503333Y-125336904D01*
X132563809Y-125578809D01*
X132563809Y-125760238D01*
X132503333Y-126002142D01*
X132442857Y-126123095D01*
X132321904Y-126244047D01*
X132140476Y-126304523D01*
X131838095Y-126304523D01*
X133833809Y-126183571D02*
X133773333Y-126244047D01*
X133591904Y-126304523D01*
X133470952Y-126304523D01*
X133289523Y-126244047D01*
X133168571Y-126123095D01*
X133108095Y-126002142D01*
X133047619Y-125760238D01*
X133047619Y-125578809D01*
X133108095Y-125336904D01*
X133168571Y-125215952D01*
X133289523Y-125095000D01*
X133470952Y-125034523D01*
X133591904Y-125034523D01*
X133773333Y-125095000D01*
X133833809Y-125155476D01*
X135345714Y-126304523D02*
X135345714Y-125034523D01*
X135769047Y-125941666D01*
X136192380Y-125034523D01*
X136192380Y-126304523D01*
X137039047Y-125034523D02*
X137280952Y-125034523D01*
X137401904Y-125095000D01*
X137522857Y-125215952D01*
X137583333Y-125457857D01*
X137583333Y-125881190D01*
X137522857Y-126123095D01*
X137401904Y-126244047D01*
X137280952Y-126304523D01*
X137039047Y-126304523D01*
X136918095Y-126244047D01*
X136797142Y-126123095D01*
X136736666Y-125881190D01*
X136736666Y-125457857D01*
X136797142Y-125215952D01*
X136918095Y-125095000D01*
X137039047Y-125034523D01*
X137946190Y-125034523D02*
X138671904Y-125034523D01*
X138309047Y-126304523D02*
X138309047Y-125034523D01*
X139337142Y-125034523D02*
X139579047Y-125034523D01*
X139700000Y-125095000D01*
X139820952Y-125215952D01*
X139881428Y-125457857D01*
X139881428Y-125881190D01*
X139820952Y-126123095D01*
X139700000Y-126244047D01*
X139579047Y-126304523D01*
X139337142Y-126304523D01*
X139216190Y-126244047D01*
X139095238Y-126123095D01*
X139034761Y-125881190D01*
X139034761Y-125457857D01*
X139095238Y-125215952D01*
X139216190Y-125095000D01*
X139337142Y-125034523D01*
X141151428Y-126304523D02*
X140728095Y-125699761D01*
X140425714Y-126304523D02*
X140425714Y-125034523D01*
X140909523Y-125034523D01*
X141030476Y-125095000D01*
X141090952Y-125155476D01*
X141151428Y-125276428D01*
X141151428Y-125457857D01*
X141090952Y-125578809D01*
X141030476Y-125639285D01*
X140909523Y-125699761D01*
X140425714Y-125699761D01*
X142663333Y-126304523D02*
X142663333Y-125034523D01*
X142965714Y-125034523D01*
X143147142Y-125095000D01*
X143268095Y-125215952D01*
X143328571Y-125336904D01*
X143389047Y-125578809D01*
X143389047Y-125760238D01*
X143328571Y-126002142D01*
X143268095Y-126123095D01*
X143147142Y-126244047D01*
X142965714Y-126304523D01*
X142663333Y-126304523D01*
X143933333Y-126304523D02*
X143933333Y-125457857D01*
X143933333Y-125699761D02*
X143993809Y-125578809D01*
X144054285Y-125518333D01*
X144175238Y-125457857D01*
X144296190Y-125457857D01*
X144719523Y-126304523D02*
X144719523Y-125457857D01*
X144719523Y-125034523D02*
X144659047Y-125095000D01*
X144719523Y-125155476D01*
X144780000Y-125095000D01*
X144719523Y-125034523D01*
X144719523Y-125155476D01*
X145203333Y-125457857D02*
X145505714Y-126304523D01*
X145808095Y-125457857D01*
X146775714Y-126244047D02*
X146654761Y-126304523D01*
X146412857Y-126304523D01*
X146291904Y-126244047D01*
X146231428Y-126123095D01*
X146231428Y-125639285D01*
X146291904Y-125518333D01*
X146412857Y-125457857D01*
X146654761Y-125457857D01*
X146775714Y-125518333D01*
X146836190Y-125639285D01*
X146836190Y-125760238D01*
X146231428Y-125881190D01*
X147380476Y-126304523D02*
X147380476Y-125457857D01*
X147380476Y-125699761D02*
X147440952Y-125578809D01*
X147501428Y-125518333D01*
X147622380Y-125457857D01*
X147743333Y-125457857D01*
D10*
X137014857Y-118962714D02*
X136652000Y-118962714D01*
X136615714Y-119325571D01*
X136652000Y-119289285D01*
X136724571Y-119253000D01*
X136906000Y-119253000D01*
X136978571Y-119289285D01*
X137014857Y-119325571D01*
X137051142Y-119398142D01*
X137051142Y-119579571D01*
X137014857Y-119652142D01*
X136978571Y-119688428D01*
X136906000Y-119724714D01*
X136724571Y-119724714D01*
X136652000Y-119688428D01*
X136615714Y-119652142D01*
X137268857Y-118962714D02*
X137522857Y-119724714D01*
X137776857Y-118962714D01*
X133676571Y-118962714D02*
X134148285Y-118962714D01*
X133894285Y-119253000D01*
X134003142Y-119253000D01*
X134075714Y-119289285D01*
X134112000Y-119325571D01*
X134148285Y-119398142D01*
X134148285Y-119579571D01*
X134112000Y-119652142D01*
X134075714Y-119688428D01*
X134003142Y-119724714D01*
X133785428Y-119724714D01*
X133712857Y-119688428D01*
X133676571Y-119652142D01*
X134366000Y-118962714D02*
X134620000Y-119724714D01*
X134874000Y-118962714D01*
X135055428Y-118962714D02*
X135527142Y-118962714D01*
X135273142Y-119253000D01*
X135382000Y-119253000D01*
X135454571Y-119289285D01*
X135490857Y-119325571D01*
X135527142Y-119398142D01*
X135527142Y-119579571D01*
X135490857Y-119652142D01*
X135454571Y-119688428D01*
X135382000Y-119724714D01*
X135164285Y-119724714D01*
X135091714Y-119688428D01*
X135055428Y-119652142D01*
X130519714Y-118708714D02*
X129757714Y-118708714D01*
X130519714Y-118273285D01*
X129757714Y-118273285D01*
X130447142Y-117475000D02*
X130483428Y-117511285D01*
X130519714Y-117620142D01*
X130519714Y-117692714D01*
X130483428Y-117801571D01*
X130410857Y-117874142D01*
X130338285Y-117910428D01*
X130193142Y-117946714D01*
X130084285Y-117946714D01*
X129939142Y-117910428D01*
X129866571Y-117874142D01*
X129794000Y-117801571D01*
X129757714Y-117692714D01*
X129757714Y-117620142D01*
X129794000Y-117511285D01*
X129830285Y-117475000D01*
X130519714Y-116168714D02*
X129757714Y-116168714D01*
X130519714Y-115733285D01*
X129757714Y-115733285D01*
X130447142Y-114935000D02*
X130483428Y-114971285D01*
X130519714Y-115080142D01*
X130519714Y-115152714D01*
X130483428Y-115261571D01*
X130410857Y-115334142D01*
X130338285Y-115370428D01*
X130193142Y-115406714D01*
X130084285Y-115406714D01*
X129939142Y-115370428D01*
X129866571Y-115334142D01*
X129794000Y-115261571D01*
X129757714Y-115152714D01*
X129757714Y-115080142D01*
X129794000Y-114971285D01*
X129830285Y-114935000D01*
X130519714Y-113628714D02*
X129757714Y-113628714D01*
X130519714Y-113193285D01*
X129757714Y-113193285D01*
X130447142Y-112395000D02*
X130483428Y-112431285D01*
X130519714Y-112540142D01*
X130519714Y-112612714D01*
X130483428Y-112721571D01*
X130410857Y-112794142D01*
X130338285Y-112830428D01*
X130193142Y-112866714D01*
X130084285Y-112866714D01*
X129939142Y-112830428D01*
X129866571Y-112794142D01*
X129794000Y-112721571D01*
X129757714Y-112612714D01*
X129757714Y-112540142D01*
X129794000Y-112431285D01*
X129830285Y-112395000D01*
X130519714Y-106008714D02*
X129757714Y-106008714D01*
X130519714Y-105573285D01*
X129757714Y-105573285D01*
X130447142Y-104775000D02*
X130483428Y-104811285D01*
X130519714Y-104920142D01*
X130519714Y-104992714D01*
X130483428Y-105101571D01*
X130410857Y-105174142D01*
X130338285Y-105210428D01*
X130193142Y-105246714D01*
X130084285Y-105246714D01*
X129939142Y-105210428D01*
X129866571Y-105174142D01*
X129794000Y-105101571D01*
X129757714Y-104992714D01*
X129757714Y-104920142D01*
X129794000Y-104811285D01*
X129830285Y-104775000D01*
X149569714Y-118708714D02*
X148807714Y-118708714D01*
X149569714Y-118273285D01*
X148807714Y-118273285D01*
X149497142Y-117475000D02*
X149533428Y-117511285D01*
X149569714Y-117620142D01*
X149569714Y-117692714D01*
X149533428Y-117801571D01*
X149460857Y-117874142D01*
X149388285Y-117910428D01*
X149243142Y-117946714D01*
X149134285Y-117946714D01*
X148989142Y-117910428D01*
X148916571Y-117874142D01*
X148844000Y-117801571D01*
X148807714Y-117692714D01*
X148807714Y-117620142D01*
X148844000Y-117511285D01*
X148880285Y-117475000D01*
X149569714Y-116168714D02*
X148807714Y-116168714D01*
X149569714Y-115733285D01*
X148807714Y-115733285D01*
X149497142Y-114935000D02*
X149533428Y-114971285D01*
X149569714Y-115080142D01*
X149569714Y-115152714D01*
X149533428Y-115261571D01*
X149460857Y-115334142D01*
X149388285Y-115370428D01*
X149243142Y-115406714D01*
X149134285Y-115406714D01*
X148989142Y-115370428D01*
X148916571Y-115334142D01*
X148844000Y-115261571D01*
X148807714Y-115152714D01*
X148807714Y-115080142D01*
X148844000Y-114971285D01*
X148880285Y-114935000D01*
X149569714Y-113628714D02*
X148807714Y-113628714D01*
X149569714Y-113193285D01*
X148807714Y-113193285D01*
X149497142Y-112395000D02*
X149533428Y-112431285D01*
X149569714Y-112540142D01*
X149569714Y-112612714D01*
X149533428Y-112721571D01*
X149460857Y-112794142D01*
X149388285Y-112830428D01*
X149243142Y-112866714D01*
X149134285Y-112866714D01*
X148989142Y-112830428D01*
X148916571Y-112794142D01*
X148844000Y-112721571D01*
X148807714Y-112612714D01*
X148807714Y-112540142D01*
X148844000Y-112431285D01*
X148880285Y-112395000D01*
X149569714Y-111088714D02*
X148807714Y-111088714D01*
X149569714Y-110653285D01*
X148807714Y-110653285D01*
X149497142Y-109855000D02*
X149533428Y-109891285D01*
X149569714Y-110000142D01*
X149569714Y-110072714D01*
X149533428Y-110181571D01*
X149460857Y-110254142D01*
X149388285Y-110290428D01*
X149243142Y-110326714D01*
X149134285Y-110326714D01*
X148989142Y-110290428D01*
X148916571Y-110254142D01*
X148844000Y-110181571D01*
X148807714Y-110072714D01*
X148807714Y-110000142D01*
X148844000Y-109891285D01*
X148880285Y-109855000D01*
X149569714Y-106172000D02*
X148807714Y-106172000D01*
X149569714Y-105809142D02*
X148807714Y-105809142D01*
X149569714Y-105373714D01*
X148807714Y-105373714D01*
X149061714Y-104684285D02*
X149569714Y-104684285D01*
X148771428Y-104865714D02*
X149315714Y-105047142D01*
X149315714Y-104575428D01*
X149569714Y-108712000D02*
X148807714Y-108712000D01*
X149569714Y-108349142D02*
X148807714Y-108349142D01*
X149569714Y-107913714D01*
X148807714Y-107913714D01*
X148807714Y-107623428D02*
X148807714Y-107151714D01*
X149098000Y-107405714D01*
X149098000Y-107296857D01*
X149134285Y-107224285D01*
X149170571Y-107188000D01*
X149243142Y-107151714D01*
X149424571Y-107151714D01*
X149497142Y-107188000D01*
X149533428Y-107224285D01*
X149569714Y-107296857D01*
X149569714Y-107514571D01*
X149533428Y-107587142D01*
X149497142Y-107623428D01*
X130519714Y-111252000D02*
X129757714Y-111252000D01*
X130519714Y-110889142D02*
X129757714Y-110889142D01*
X130519714Y-110453714D01*
X129757714Y-110453714D01*
X129830285Y-110127142D02*
X129794000Y-110090857D01*
X129757714Y-110018285D01*
X129757714Y-109836857D01*
X129794000Y-109764285D01*
X129830285Y-109728000D01*
X129902857Y-109691714D01*
X129975428Y-109691714D01*
X130084285Y-109728000D01*
X130519714Y-110163428D01*
X130519714Y-109691714D01*
X130519714Y-108712000D02*
X129757714Y-108712000D01*
X130519714Y-108349142D02*
X129757714Y-108349142D01*
X130519714Y-107913714D01*
X129757714Y-107913714D01*
X130519714Y-107151714D02*
X130519714Y-107587142D01*
X130519714Y-107369428D02*
X129757714Y-107369428D01*
X129866571Y-107442000D01*
X129939142Y-107514571D01*
X129975428Y-107587142D01*
X148807714Y-120795142D02*
X148807714Y-121158000D01*
X149170571Y-121194285D01*
X149134285Y-121158000D01*
X149098000Y-121085428D01*
X149098000Y-120904000D01*
X149134285Y-120831428D01*
X149170571Y-120795142D01*
X149243142Y-120758857D01*
X149424571Y-120758857D01*
X149497142Y-120795142D01*
X149533428Y-120831428D01*
X149569714Y-120904000D01*
X149569714Y-121085428D01*
X149533428Y-121158000D01*
X149497142Y-121194285D01*
X148807714Y-120541142D02*
X149569714Y-120287142D01*
X148807714Y-120033142D01*
X129757714Y-121593428D02*
X129757714Y-121121714D01*
X130048000Y-121375714D01*
X130048000Y-121266857D01*
X130084285Y-121194285D01*
X130120571Y-121158000D01*
X130193142Y-121121714D01*
X130374571Y-121121714D01*
X130447142Y-121158000D01*
X130483428Y-121194285D01*
X130519714Y-121266857D01*
X130519714Y-121484571D01*
X130483428Y-121557142D01*
X130447142Y-121593428D01*
X129757714Y-120904000D02*
X130519714Y-120650000D01*
X129757714Y-120396000D01*
X129757714Y-120214571D02*
X129757714Y-119742857D01*
X130048000Y-119996857D01*
X130048000Y-119888000D01*
X130084285Y-119815428D01*
X130120571Y-119779142D01*
X130193142Y-119742857D01*
X130374571Y-119742857D01*
X130447142Y-119779142D01*
X130483428Y-119815428D01*
X130519714Y-119888000D01*
X130519714Y-120105714D01*
X130483428Y-120178285D01*
X130447142Y-120214571D01*
X148844000Y-123770571D02*
X148807714Y-123843142D01*
X148807714Y-123952000D01*
X148844000Y-124060857D01*
X148916571Y-124133428D01*
X148989142Y-124169714D01*
X149134285Y-124206000D01*
X149243142Y-124206000D01*
X149388285Y-124169714D01*
X149460857Y-124133428D01*
X149533428Y-124060857D01*
X149569714Y-123952000D01*
X149569714Y-123879428D01*
X149533428Y-123770571D01*
X149497142Y-123734285D01*
X149243142Y-123734285D01*
X149243142Y-123879428D01*
X149569714Y-123407714D02*
X148807714Y-123407714D01*
X149569714Y-122972285D01*
X148807714Y-122972285D01*
X149569714Y-122609428D02*
X148807714Y-122609428D01*
X148807714Y-122428000D01*
X148844000Y-122319142D01*
X148916571Y-122246571D01*
X148989142Y-122210285D01*
X149134285Y-122174000D01*
X149243142Y-122174000D01*
X149388285Y-122210285D01*
X149460857Y-122246571D01*
X149533428Y-122319142D01*
X149569714Y-122428000D01*
X149569714Y-122609428D01*
X129794000Y-123770571D02*
X129757714Y-123843142D01*
X129757714Y-123952000D01*
X129794000Y-124060857D01*
X129866571Y-124133428D01*
X129939142Y-124169714D01*
X130084285Y-124206000D01*
X130193142Y-124206000D01*
X130338285Y-124169714D01*
X130410857Y-124133428D01*
X130483428Y-124060857D01*
X130519714Y-123952000D01*
X130519714Y-123879428D01*
X130483428Y-123770571D01*
X130447142Y-123734285D01*
X130193142Y-123734285D01*
X130193142Y-123879428D01*
X130519714Y-123407714D02*
X129757714Y-123407714D01*
X130519714Y-122972285D01*
X129757714Y-122972285D01*
X130519714Y-122609428D02*
X129757714Y-122609428D01*
X129757714Y-122428000D01*
X129794000Y-122319142D01*
X129866571Y-122246571D01*
X129939142Y-122210285D01*
X130084285Y-122174000D01*
X130193142Y-122174000D01*
X130338285Y-122210285D01*
X130410857Y-122246571D01*
X130483428Y-122319142D01*
X130519714Y-122428000D01*
X130519714Y-122609428D01*
D11*
X152400000Y-106680000D02*
X149860000Y-106680000D01*
X152400000Y-109220000D02*
X149860000Y-109220000D01*
X152400000Y-111760000D02*
X149860000Y-111760000D01*
X152400000Y-114300000D02*
X149860000Y-114300000D01*
X152400000Y-116840000D02*
X149860000Y-116840000D01*
X152400000Y-119380000D02*
X149860000Y-119380000D01*
X152400000Y-121920000D02*
X149860000Y-121920000D01*
X127000000Y-121920000D02*
X129540000Y-121920000D01*
X127000000Y-119380000D02*
X129540000Y-119380000D01*
X127000000Y-116840000D02*
X129540000Y-116840000D01*
X127000000Y-114300000D02*
X129540000Y-114300000D01*
X127000000Y-111760000D02*
X129540000Y-111760000D01*
X127000000Y-109220000D02*
X129540000Y-109220000D01*
X127000000Y-106680000D02*
X129540000Y-106680000D01*
X136560822Y-120575000D02*
X137077978Y-120575000D01*
X136560822Y-121995000D02*
X137077978Y-121995000D01*
X134693922Y-120575000D02*
X135211078Y-120575000D01*
X134693922Y-121995000D02*
X135211078Y-121995000D01*
X132080000Y-100076000D02*
X132080000Y-96774000D01*
X132080000Y-96774000D02*
X137033000Y-96774000D01*
X137033000Y-96774000D02*
X137033000Y-100076000D01*
X137033000Y-100076000D02*
X132080000Y-100076000D01*
X142875000Y-100076000D02*
X142875000Y-96774000D01*
X142875000Y-96774000D02*
X147828000Y-96774000D01*
X147828000Y-96774000D02*
X147828000Y-100076000D01*
X147828000Y-100076000D02*
X142875000Y-100076000D01*
X143780000Y-122245000D02*
X146465000Y-122245000D01*
X146465000Y-122245000D02*
X146465000Y-120325000D01*
X146465000Y-120325000D02*
X143780000Y-120325000D01*
X140711422Y-120575000D02*
X141228578Y-120575000D01*
X140711422Y-121995000D02*
X141228578Y-121995000D01*
X130154000Y-88359064D02*
X130154000Y-87154936D01*
X131974000Y-88359064D02*
X131974000Y-87154936D01*
X143912000Y-88359064D02*
X143912000Y-87154936D01*
X142092000Y-88359064D02*
X142092000Y-87154936D01*
X137108000Y-87507578D02*
X137108000Y-86990422D01*
X135688000Y-87507578D02*
X135688000Y-86990422D01*
X147880000Y-87507578D02*
X147880000Y-86990422D01*
X149300000Y-87507578D02*
X149300000Y-86990422D01*
X142240000Y-70104000D02*
X142240000Y-71755000D01*
X155067000Y-70104000D02*
X155067000Y-79629000D01*
X152400000Y-71755000D02*
X152400000Y-70104000D01*
X147320000Y-70104000D02*
X147320000Y-71755000D01*
X153035000Y-71755000D02*
X151765000Y-71755000D01*
X124460000Y-70104000D02*
X155067000Y-70104000D01*
X124460000Y-77978000D02*
X155067000Y-77978000D01*
X124460000Y-79629000D02*
X124460000Y-70104000D01*
X146685000Y-71755000D02*
X147955000Y-71755000D01*
X136525000Y-71755000D02*
X137795000Y-71755000D01*
X141605000Y-71755000D02*
X142875000Y-71755000D01*
X155067000Y-79629000D02*
X124460000Y-79629000D01*
X137160000Y-70104000D02*
X137160000Y-71755000D01*
X132080000Y-70104000D02*
X132080000Y-71755000D01*
X131445000Y-71755000D02*
X132715000Y-71755000D01*
X127000000Y-70104000D02*
X127000000Y-71755000D01*
X126365000Y-71755000D02*
X127635000Y-71755000D01*
X133842000Y-113721000D02*
X131157000Y-113721000D01*
X131157000Y-113721000D02*
X131157000Y-115641000D01*
X131157000Y-115641000D02*
X133842000Y-115641000D01*
X135729000Y-115641000D02*
X138414000Y-115641000D01*
X135729000Y-113721000D02*
X135729000Y-115641000D01*
X138414000Y-113721000D02*
X135729000Y-113721000D01*
X140301000Y-115641000D02*
X142986000Y-115641000D01*
X140301000Y-113721000D02*
X140301000Y-115641000D01*
X142986000Y-113721000D02*
X140301000Y-113721000D01*
X147558000Y-113721000D02*
X144873000Y-113721000D01*
X144873000Y-113721000D02*
X144873000Y-115641000D01*
X144873000Y-115641000D02*
X147558000Y-115641000D01*
X132583422Y-107367000D02*
X133100578Y-107367000D01*
X132583422Y-108787000D02*
X133100578Y-108787000D01*
X137155422Y-108787000D02*
X137672578Y-108787000D01*
X137155422Y-107367000D02*
X137672578Y-107367000D01*
X141727422Y-107367000D02*
X142244578Y-107367000D01*
X141727422Y-108787000D02*
X142244578Y-108787000D01*
X146299422Y-108787000D02*
X146816578Y-108787000D01*
X146299422Y-107367000D02*
X146816578Y-107367000D01*
D10*
X130229428Y-98134714D02*
X130229428Y-98751571D01*
X130265714Y-98824142D01*
X130302000Y-98860428D01*
X130374571Y-98896714D01*
X130519714Y-98896714D01*
X130592285Y-98860428D01*
X130628571Y-98824142D01*
X130664857Y-98751571D01*
X130664857Y-98134714D01*
X131426857Y-98896714D02*
X130991428Y-98896714D01*
X131209142Y-98896714D02*
X131209142Y-98134714D01*
X131136571Y-98243571D01*
X131064000Y-98316142D01*
X130991428Y-98352428D01*
X140897428Y-98134714D02*
X140897428Y-98751571D01*
X140933714Y-98824142D01*
X140970000Y-98860428D01*
X141042571Y-98896714D01*
X141187714Y-98896714D01*
X141260285Y-98860428D01*
X141296571Y-98824142D01*
X141332857Y-98751571D01*
X141332857Y-98134714D01*
X141659428Y-98207285D02*
X141695714Y-98171000D01*
X141768285Y-98134714D01*
X141949714Y-98134714D01*
X142022285Y-98171000D01*
X142058571Y-98207285D01*
X142094857Y-98279857D01*
X142094857Y-98352428D01*
X142058571Y-98461285D01*
X141623142Y-98896714D01*
X142094857Y-98896714D01*
X144217571Y-119978714D02*
X144217571Y-119216714D01*
X144399000Y-119216714D01*
X144507857Y-119253000D01*
X144580428Y-119325571D01*
X144616714Y-119398142D01*
X144653000Y-119543285D01*
X144653000Y-119652142D01*
X144616714Y-119797285D01*
X144580428Y-119869857D01*
X144507857Y-119942428D01*
X144399000Y-119978714D01*
X144217571Y-119978714D01*
X145378714Y-119978714D02*
X144943285Y-119978714D01*
X145161000Y-119978714D02*
X145161000Y-119216714D01*
X145088428Y-119325571D01*
X145015857Y-119398142D01*
X144943285Y-119434428D01*
X140843000Y-119979714D02*
X140589000Y-119616857D01*
X140407571Y-119979714D02*
X140407571Y-119217714D01*
X140697857Y-119217714D01*
X140770428Y-119254000D01*
X140806714Y-119290285D01*
X140843000Y-119362857D01*
X140843000Y-119471714D01*
X140806714Y-119544285D01*
X140770428Y-119580571D01*
X140697857Y-119616857D01*
X140407571Y-119616857D01*
X141568714Y-119979714D02*
X141133285Y-119979714D01*
X141351000Y-119979714D02*
X141351000Y-119217714D01*
X141278428Y-119326571D01*
X141205857Y-119399142D01*
X141133285Y-119435428D01*
X129884714Y-87884000D02*
X129521857Y-88138000D01*
X129884714Y-88319428D02*
X129122714Y-88319428D01*
X129122714Y-88029142D01*
X129159000Y-87956571D01*
X129195285Y-87920285D01*
X129267857Y-87884000D01*
X129376714Y-87884000D01*
X129449285Y-87920285D01*
X129485571Y-87956571D01*
X129521857Y-88029142D01*
X129521857Y-88319428D01*
X129195285Y-87593714D02*
X129159000Y-87557428D01*
X129122714Y-87484857D01*
X129122714Y-87303428D01*
X129159000Y-87230857D01*
X129195285Y-87194571D01*
X129267857Y-87158285D01*
X129340428Y-87158285D01*
X129449285Y-87194571D01*
X129884714Y-87630000D01*
X129884714Y-87158285D01*
X141822714Y-87884000D02*
X141459857Y-88138000D01*
X141822714Y-88319428D02*
X141060714Y-88319428D01*
X141060714Y-88029142D01*
X141097000Y-87956571D01*
X141133285Y-87920285D01*
X141205857Y-87884000D01*
X141314714Y-87884000D01*
X141387285Y-87920285D01*
X141423571Y-87956571D01*
X141459857Y-88029142D01*
X141459857Y-88319428D01*
X141060714Y-87630000D02*
X141060714Y-87158285D01*
X141351000Y-87412285D01*
X141351000Y-87303428D01*
X141387285Y-87230857D01*
X141423571Y-87194571D01*
X141496142Y-87158285D01*
X141677571Y-87158285D01*
X141750142Y-87194571D01*
X141786428Y-87230857D01*
X141822714Y-87303428D01*
X141822714Y-87521142D01*
X141786428Y-87593714D01*
X141750142Y-87630000D01*
X135146142Y-87376000D02*
X135182428Y-87412285D01*
X135218714Y-87521142D01*
X135218714Y-87593714D01*
X135182428Y-87702571D01*
X135109857Y-87775142D01*
X135037285Y-87811428D01*
X134892142Y-87847714D01*
X134783285Y-87847714D01*
X134638142Y-87811428D01*
X134565571Y-87775142D01*
X134493000Y-87702571D01*
X134456714Y-87593714D01*
X134456714Y-87521142D01*
X134493000Y-87412285D01*
X134529285Y-87376000D01*
X135218714Y-86650285D02*
X135218714Y-87085714D01*
X135218714Y-86868000D02*
X134456714Y-86868000D01*
X134565571Y-86940571D01*
X134638142Y-87013142D01*
X134674428Y-87085714D01*
X147338142Y-87376000D02*
X147374428Y-87412285D01*
X147410714Y-87521142D01*
X147410714Y-87593714D01*
X147374428Y-87702571D01*
X147301857Y-87775142D01*
X147229285Y-87811428D01*
X147084142Y-87847714D01*
X146975285Y-87847714D01*
X146830142Y-87811428D01*
X146757571Y-87775142D01*
X146685000Y-87702571D01*
X146648714Y-87593714D01*
X146648714Y-87521142D01*
X146685000Y-87412285D01*
X146721285Y-87376000D01*
X146721285Y-87085714D02*
X146685000Y-87049428D01*
X146648714Y-86976857D01*
X146648714Y-86795428D01*
X146685000Y-86722857D01*
X146721285Y-86686571D01*
X146793857Y-86650285D01*
X146866428Y-86650285D01*
X146975285Y-86686571D01*
X147410714Y-87122000D01*
X147410714Y-86650285D01*
X132080000Y-113375714D02*
X132080000Y-112613714D01*
X132442857Y-113375714D02*
X132442857Y-112613714D01*
X132878285Y-113375714D01*
X132878285Y-112613714D01*
X133640285Y-113375714D02*
X133204857Y-113375714D01*
X133422571Y-113375714D02*
X133422571Y-112613714D01*
X133350000Y-112722571D01*
X133277428Y-112795142D01*
X133204857Y-112831428D01*
X136652000Y-113375714D02*
X136652000Y-112613714D01*
X137014857Y-113375714D02*
X137014857Y-112613714D01*
X137450285Y-113375714D01*
X137450285Y-112613714D01*
X137776857Y-112686285D02*
X137813142Y-112650000D01*
X137885714Y-112613714D01*
X138067142Y-112613714D01*
X138139714Y-112650000D01*
X138176000Y-112686285D01*
X138212285Y-112758857D01*
X138212285Y-112831428D01*
X138176000Y-112940285D01*
X137740571Y-113375714D01*
X138212285Y-113375714D01*
X141224000Y-113375714D02*
X141224000Y-112613714D01*
X141586857Y-113375714D02*
X141586857Y-112613714D01*
X142022285Y-113375714D01*
X142022285Y-112613714D01*
X142312571Y-112613714D02*
X142784285Y-112613714D01*
X142530285Y-112904000D01*
X142639142Y-112904000D01*
X142711714Y-112940285D01*
X142748000Y-112976571D01*
X142784285Y-113049142D01*
X142784285Y-113230571D01*
X142748000Y-113303142D01*
X142711714Y-113339428D01*
X142639142Y-113375714D01*
X142421428Y-113375714D01*
X142348857Y-113339428D01*
X142312571Y-113303142D01*
X145796000Y-113375714D02*
X145796000Y-112613714D01*
X146158857Y-113375714D02*
X146158857Y-112613714D01*
X146594285Y-113375714D01*
X146594285Y-112613714D01*
X147283714Y-112867714D02*
X147283714Y-113375714D01*
X147102285Y-112577428D02*
X146920857Y-113121714D01*
X147392571Y-113121714D01*
X132715000Y-106771714D02*
X132461000Y-106408857D01*
X132279571Y-106771714D02*
X132279571Y-106009714D01*
X132569857Y-106009714D01*
X132642428Y-106046000D01*
X132678714Y-106082285D01*
X132715000Y-106154857D01*
X132715000Y-106263714D01*
X132678714Y-106336285D01*
X132642428Y-106372571D01*
X132569857Y-106408857D01*
X132279571Y-106408857D01*
X133368142Y-106263714D02*
X133368142Y-106771714D01*
X133186714Y-105973428D02*
X133005285Y-106517714D01*
X133477000Y-106517714D01*
X137287000Y-106771714D02*
X137033000Y-106408857D01*
X136851571Y-106771714D02*
X136851571Y-106009714D01*
X137141857Y-106009714D01*
X137214428Y-106046000D01*
X137250714Y-106082285D01*
X137287000Y-106154857D01*
X137287000Y-106263714D01*
X137250714Y-106336285D01*
X137214428Y-106372571D01*
X137141857Y-106408857D01*
X136851571Y-106408857D01*
X137976428Y-106009714D02*
X137613571Y-106009714D01*
X137577285Y-106372571D01*
X137613571Y-106336285D01*
X137686142Y-106300000D01*
X137867571Y-106300000D01*
X137940142Y-106336285D01*
X137976428Y-106372571D01*
X138012714Y-106445142D01*
X138012714Y-106626571D01*
X137976428Y-106699142D01*
X137940142Y-106735428D01*
X137867571Y-106771714D01*
X137686142Y-106771714D01*
X137613571Y-106735428D01*
X137577285Y-106699142D01*
X141859000Y-106771714D02*
X141605000Y-106408857D01*
X141423571Y-106771714D02*
X141423571Y-106009714D01*
X141713857Y-106009714D01*
X141786428Y-106046000D01*
X141822714Y-106082285D01*
X141859000Y-106154857D01*
X141859000Y-106263714D01*
X141822714Y-106336285D01*
X141786428Y-106372571D01*
X141713857Y-106408857D01*
X141423571Y-106408857D01*
X142512142Y-106009714D02*
X142367000Y-106009714D01*
X142294428Y-106046000D01*
X142258142Y-106082285D01*
X142185571Y-106191142D01*
X142149285Y-106336285D01*
X142149285Y-106626571D01*
X142185571Y-106699142D01*
X142221857Y-106735428D01*
X142294428Y-106771714D01*
X142439571Y-106771714D01*
X142512142Y-106735428D01*
X142548428Y-106699142D01*
X142584714Y-106626571D01*
X142584714Y-106445142D01*
X142548428Y-106372571D01*
X142512142Y-106336285D01*
X142439571Y-106300000D01*
X142294428Y-106300000D01*
X142221857Y-106336285D01*
X142185571Y-106372571D01*
X142149285Y-106445142D01*
X146431000Y-106771714D02*
X146177000Y-106408857D01*
X145995571Y-106771714D02*
X145995571Y-106009714D01*
X146285857Y-106009714D01*
X146358428Y-106046000D01*
X146394714Y-106082285D01*
X146431000Y-106154857D01*
X146431000Y-106263714D01*
X146394714Y-106336285D01*
X146358428Y-106372571D01*
X146285857Y-106408857D01*
X145995571Y-106408857D01*
X146685000Y-106009714D02*
X147193000Y-106009714D01*
X146866428Y-106771714D01*
M02*
