G04 #@! TF.GenerationSoftware,KiCad,Pcbnew,(5.1.5)-3*
G04 #@! TF.CreationDate,2020-05-08T19:39:07+02:00*
G04 #@! TF.ProjectId,DRV8870 BDC Motor Driver,44525638-3837-4302-9042-4443204d6f74,rev?*
G04 #@! TF.SameCoordinates,Original*
G04 #@! TF.FileFunction,Soldermask,Top*
G04 #@! TF.FilePolarity,Negative*
%FSLAX46Y46*%
G04 Gerber Fmt 4.6, Leading zero omitted, Abs format (unit mm)*
G04 Created by KiCad (PCBNEW (5.1.5)-3) date 2020-05-08 19:39:07*
%MOMM*%
%LPD*%
G04 APERTURE LIST*
%ADD10C,0.100000*%
G04 APERTURE END LIST*
D10*
G36*
X151243512Y-122293927D02*
G01*
X151392812Y-122323624D01*
X151556784Y-122391544D01*
X151704354Y-122490147D01*
X151829853Y-122615646D01*
X151928456Y-122763216D01*
X151996376Y-122927188D01*
X152031000Y-123101259D01*
X152031000Y-123278741D01*
X151996376Y-123452812D01*
X151928456Y-123616784D01*
X151829853Y-123764354D01*
X151704354Y-123889853D01*
X151556784Y-123988456D01*
X151392812Y-124056376D01*
X151243512Y-124086073D01*
X151218742Y-124091000D01*
X151041258Y-124091000D01*
X151016488Y-124086073D01*
X150867188Y-124056376D01*
X150703216Y-123988456D01*
X150555646Y-123889853D01*
X150430147Y-123764354D01*
X150331544Y-123616784D01*
X150263624Y-123452812D01*
X150229000Y-123278741D01*
X150229000Y-123101259D01*
X150263624Y-122927188D01*
X150331544Y-122763216D01*
X150430147Y-122615646D01*
X150555646Y-122490147D01*
X150703216Y-122391544D01*
X150867188Y-122323624D01*
X151016488Y-122293927D01*
X151041258Y-122289000D01*
X151218742Y-122289000D01*
X151243512Y-122293927D01*
G37*
G36*
X128383512Y-122293927D02*
G01*
X128532812Y-122323624D01*
X128696784Y-122391544D01*
X128844354Y-122490147D01*
X128969853Y-122615646D01*
X129068456Y-122763216D01*
X129136376Y-122927188D01*
X129171000Y-123101259D01*
X129171000Y-123278741D01*
X129136376Y-123452812D01*
X129068456Y-123616784D01*
X128969853Y-123764354D01*
X128844354Y-123889853D01*
X128696784Y-123988456D01*
X128532812Y-124056376D01*
X128383512Y-124086073D01*
X128358742Y-124091000D01*
X128181258Y-124091000D01*
X128156488Y-124086073D01*
X128007188Y-124056376D01*
X127843216Y-123988456D01*
X127695646Y-123889853D01*
X127570147Y-123764354D01*
X127471544Y-123616784D01*
X127403624Y-123452812D01*
X127369000Y-123278741D01*
X127369000Y-123101259D01*
X127403624Y-122927188D01*
X127471544Y-122763216D01*
X127570147Y-122615646D01*
X127695646Y-122490147D01*
X127843216Y-122391544D01*
X128007188Y-122323624D01*
X128156488Y-122293927D01*
X128181258Y-122289000D01*
X128358742Y-122289000D01*
X128383512Y-122293927D01*
G37*
G36*
X138128868Y-120538565D02*
G01*
X138167538Y-120550296D01*
X138203177Y-120569346D01*
X138234417Y-120594983D01*
X138260054Y-120626223D01*
X138279104Y-120661862D01*
X138290835Y-120700532D01*
X138295400Y-120746888D01*
X138295400Y-121823112D01*
X138290835Y-121869468D01*
X138279104Y-121908138D01*
X138260054Y-121943777D01*
X138234417Y-121975017D01*
X138203177Y-122000654D01*
X138167538Y-122019704D01*
X138128868Y-122031435D01*
X138082512Y-122036000D01*
X137431288Y-122036000D01*
X137384932Y-122031435D01*
X137346262Y-122019704D01*
X137310623Y-122000654D01*
X137279383Y-121975017D01*
X137253746Y-121943777D01*
X137234696Y-121908138D01*
X137222965Y-121869468D01*
X137218400Y-121823112D01*
X137218400Y-120746888D01*
X137222965Y-120700532D01*
X137234696Y-120661862D01*
X137253746Y-120626223D01*
X137279383Y-120594983D01*
X137310623Y-120569346D01*
X137346262Y-120550296D01*
X137384932Y-120538565D01*
X137431288Y-120534000D01*
X138082512Y-120534000D01*
X138128868Y-120538565D01*
G37*
G36*
X142279468Y-120538565D02*
G01*
X142318138Y-120550296D01*
X142353777Y-120569346D01*
X142385017Y-120594983D01*
X142410654Y-120626223D01*
X142429704Y-120661862D01*
X142441435Y-120700532D01*
X142446000Y-120746888D01*
X142446000Y-121823112D01*
X142441435Y-121869468D01*
X142429704Y-121908138D01*
X142410654Y-121943777D01*
X142385017Y-121975017D01*
X142353777Y-122000654D01*
X142318138Y-122019704D01*
X142279468Y-122031435D01*
X142233112Y-122036000D01*
X141581888Y-122036000D01*
X141535532Y-122031435D01*
X141496862Y-122019704D01*
X141461223Y-122000654D01*
X141429983Y-121975017D01*
X141404346Y-121943777D01*
X141385296Y-121908138D01*
X141373565Y-121869468D01*
X141369000Y-121823112D01*
X141369000Y-120746888D01*
X141373565Y-120700532D01*
X141385296Y-120661862D01*
X141404346Y-120626223D01*
X141429983Y-120594983D01*
X141461223Y-120569346D01*
X141496862Y-120550296D01*
X141535532Y-120538565D01*
X141581888Y-120534000D01*
X142233112Y-120534000D01*
X142279468Y-120538565D01*
G37*
G36*
X140404468Y-120538565D02*
G01*
X140443138Y-120550296D01*
X140478777Y-120569346D01*
X140510017Y-120594983D01*
X140535654Y-120626223D01*
X140554704Y-120661862D01*
X140566435Y-120700532D01*
X140571000Y-120746888D01*
X140571000Y-121823112D01*
X140566435Y-121869468D01*
X140554704Y-121908138D01*
X140535654Y-121943777D01*
X140510017Y-121975017D01*
X140478777Y-122000654D01*
X140443138Y-122019704D01*
X140404468Y-122031435D01*
X140358112Y-122036000D01*
X139706888Y-122036000D01*
X139660532Y-122031435D01*
X139621862Y-122019704D01*
X139586223Y-122000654D01*
X139554983Y-121975017D01*
X139529346Y-121943777D01*
X139510296Y-121908138D01*
X139498565Y-121869468D01*
X139494000Y-121823112D01*
X139494000Y-120746888D01*
X139498565Y-120700532D01*
X139510296Y-120661862D01*
X139529346Y-120626223D01*
X139554983Y-120594983D01*
X139586223Y-120569346D01*
X139621862Y-120550296D01*
X139660532Y-120538565D01*
X139706888Y-120534000D01*
X140358112Y-120534000D01*
X140404468Y-120538565D01*
G37*
G36*
X144214468Y-120538565D02*
G01*
X144253138Y-120550296D01*
X144288777Y-120569346D01*
X144320017Y-120594983D01*
X144345654Y-120626223D01*
X144364704Y-120661862D01*
X144376435Y-120700532D01*
X144381000Y-120746888D01*
X144381000Y-121823112D01*
X144376435Y-121869468D01*
X144364704Y-121908138D01*
X144345654Y-121943777D01*
X144320017Y-121975017D01*
X144288777Y-122000654D01*
X144253138Y-122019704D01*
X144214468Y-122031435D01*
X144168112Y-122036000D01*
X143516888Y-122036000D01*
X143470532Y-122031435D01*
X143431862Y-122019704D01*
X143396223Y-122000654D01*
X143364983Y-121975017D01*
X143339346Y-121943777D01*
X143320296Y-121908138D01*
X143308565Y-121869468D01*
X143304000Y-121823112D01*
X143304000Y-120746888D01*
X143308565Y-120700532D01*
X143320296Y-120661862D01*
X143339346Y-120626223D01*
X143364983Y-120594983D01*
X143396223Y-120569346D01*
X143431862Y-120550296D01*
X143470532Y-120538565D01*
X143516888Y-120534000D01*
X144168112Y-120534000D01*
X144214468Y-120538565D01*
G37*
G36*
X146089468Y-120538565D02*
G01*
X146128138Y-120550296D01*
X146163777Y-120569346D01*
X146195017Y-120594983D01*
X146220654Y-120626223D01*
X146239704Y-120661862D01*
X146251435Y-120700532D01*
X146256000Y-120746888D01*
X146256000Y-121823112D01*
X146251435Y-121869468D01*
X146239704Y-121908138D01*
X146220654Y-121943777D01*
X146195017Y-121975017D01*
X146163777Y-122000654D01*
X146128138Y-122019704D01*
X146089468Y-122031435D01*
X146043112Y-122036000D01*
X145391888Y-122036000D01*
X145345532Y-122031435D01*
X145306862Y-122019704D01*
X145271223Y-122000654D01*
X145239983Y-121975017D01*
X145214346Y-121943777D01*
X145195296Y-121908138D01*
X145183565Y-121869468D01*
X145179000Y-121823112D01*
X145179000Y-120746888D01*
X145183565Y-120700532D01*
X145195296Y-120661862D01*
X145214346Y-120626223D01*
X145239983Y-120594983D01*
X145271223Y-120569346D01*
X145306862Y-120550296D01*
X145345532Y-120538565D01*
X145391888Y-120534000D01*
X146043112Y-120534000D01*
X146089468Y-120538565D01*
G37*
G36*
X136261968Y-120538565D02*
G01*
X136300638Y-120550296D01*
X136336277Y-120569346D01*
X136367517Y-120594983D01*
X136393154Y-120626223D01*
X136412204Y-120661862D01*
X136423935Y-120700532D01*
X136428500Y-120746888D01*
X136428500Y-121823112D01*
X136423935Y-121869468D01*
X136412204Y-121908138D01*
X136393154Y-121943777D01*
X136367517Y-121975017D01*
X136336277Y-122000654D01*
X136300638Y-122019704D01*
X136261968Y-122031435D01*
X136215612Y-122036000D01*
X135564388Y-122036000D01*
X135518032Y-122031435D01*
X135479362Y-122019704D01*
X135443723Y-122000654D01*
X135412483Y-121975017D01*
X135386846Y-121943777D01*
X135367796Y-121908138D01*
X135356065Y-121869468D01*
X135351500Y-121823112D01*
X135351500Y-120746888D01*
X135356065Y-120700532D01*
X135367796Y-120661862D01*
X135386846Y-120626223D01*
X135412483Y-120594983D01*
X135443723Y-120569346D01*
X135479362Y-120550296D01*
X135518032Y-120538565D01*
X135564388Y-120534000D01*
X136215612Y-120534000D01*
X136261968Y-120538565D01*
G37*
G36*
X134386968Y-120538565D02*
G01*
X134425638Y-120550296D01*
X134461277Y-120569346D01*
X134492517Y-120594983D01*
X134518154Y-120626223D01*
X134537204Y-120661862D01*
X134548935Y-120700532D01*
X134553500Y-120746888D01*
X134553500Y-121823112D01*
X134548935Y-121869468D01*
X134537204Y-121908138D01*
X134518154Y-121943777D01*
X134492517Y-121975017D01*
X134461277Y-122000654D01*
X134425638Y-122019704D01*
X134386968Y-122031435D01*
X134340612Y-122036000D01*
X133689388Y-122036000D01*
X133643032Y-122031435D01*
X133604362Y-122019704D01*
X133568723Y-122000654D01*
X133537483Y-121975017D01*
X133511846Y-121943777D01*
X133492796Y-121908138D01*
X133481065Y-121869468D01*
X133476500Y-121823112D01*
X133476500Y-120746888D01*
X133481065Y-120700532D01*
X133492796Y-120661862D01*
X133511846Y-120626223D01*
X133537483Y-120594983D01*
X133568723Y-120569346D01*
X133604362Y-120550296D01*
X133643032Y-120538565D01*
X133689388Y-120534000D01*
X134340612Y-120534000D01*
X134386968Y-120538565D01*
G37*
G36*
X151243512Y-119753927D02*
G01*
X151392812Y-119783624D01*
X151556784Y-119851544D01*
X151704354Y-119950147D01*
X151829853Y-120075646D01*
X151928456Y-120223216D01*
X151996376Y-120387188D01*
X152031000Y-120561259D01*
X152031000Y-120738741D01*
X151996376Y-120912812D01*
X151928456Y-121076784D01*
X151829853Y-121224354D01*
X151704354Y-121349853D01*
X151556784Y-121448456D01*
X151392812Y-121516376D01*
X151243512Y-121546073D01*
X151218742Y-121551000D01*
X151041258Y-121551000D01*
X151016488Y-121546073D01*
X150867188Y-121516376D01*
X150703216Y-121448456D01*
X150555646Y-121349853D01*
X150430147Y-121224354D01*
X150331544Y-121076784D01*
X150263624Y-120912812D01*
X150229000Y-120738741D01*
X150229000Y-120561259D01*
X150263624Y-120387188D01*
X150331544Y-120223216D01*
X150430147Y-120075646D01*
X150555646Y-119950147D01*
X150703216Y-119851544D01*
X150867188Y-119783624D01*
X151016488Y-119753927D01*
X151041258Y-119749000D01*
X151218742Y-119749000D01*
X151243512Y-119753927D01*
G37*
G36*
X128383512Y-119753927D02*
G01*
X128532812Y-119783624D01*
X128696784Y-119851544D01*
X128844354Y-119950147D01*
X128969853Y-120075646D01*
X129068456Y-120223216D01*
X129136376Y-120387188D01*
X129171000Y-120561259D01*
X129171000Y-120738741D01*
X129136376Y-120912812D01*
X129068456Y-121076784D01*
X128969853Y-121224354D01*
X128844354Y-121349853D01*
X128696784Y-121448456D01*
X128532812Y-121516376D01*
X128383512Y-121546073D01*
X128358742Y-121551000D01*
X128181258Y-121551000D01*
X128156488Y-121546073D01*
X128007188Y-121516376D01*
X127843216Y-121448456D01*
X127695646Y-121349853D01*
X127570147Y-121224354D01*
X127471544Y-121076784D01*
X127403624Y-120912812D01*
X127369000Y-120738741D01*
X127369000Y-120561259D01*
X127403624Y-120387188D01*
X127471544Y-120223216D01*
X127570147Y-120075646D01*
X127695646Y-119950147D01*
X127843216Y-119851544D01*
X128007188Y-119783624D01*
X128156488Y-119753927D01*
X128181258Y-119749000D01*
X128358742Y-119749000D01*
X128383512Y-119753927D01*
G37*
G36*
X151243512Y-117213927D02*
G01*
X151392812Y-117243624D01*
X151556784Y-117311544D01*
X151704354Y-117410147D01*
X151829853Y-117535646D01*
X151928456Y-117683216D01*
X151996376Y-117847188D01*
X152031000Y-118021259D01*
X152031000Y-118198741D01*
X151996376Y-118372812D01*
X151928456Y-118536784D01*
X151829853Y-118684354D01*
X151704354Y-118809853D01*
X151556784Y-118908456D01*
X151392812Y-118976376D01*
X151243512Y-119006073D01*
X151218742Y-119011000D01*
X151041258Y-119011000D01*
X151016488Y-119006073D01*
X150867188Y-118976376D01*
X150703216Y-118908456D01*
X150555646Y-118809853D01*
X150430147Y-118684354D01*
X150331544Y-118536784D01*
X150263624Y-118372812D01*
X150229000Y-118198741D01*
X150229000Y-118021259D01*
X150263624Y-117847188D01*
X150331544Y-117683216D01*
X150430147Y-117535646D01*
X150555646Y-117410147D01*
X150703216Y-117311544D01*
X150867188Y-117243624D01*
X151016488Y-117213927D01*
X151041258Y-117209000D01*
X151218742Y-117209000D01*
X151243512Y-117213927D01*
G37*
G36*
X128383512Y-117213927D02*
G01*
X128532812Y-117243624D01*
X128696784Y-117311544D01*
X128844354Y-117410147D01*
X128969853Y-117535646D01*
X129068456Y-117683216D01*
X129136376Y-117847188D01*
X129171000Y-118021259D01*
X129171000Y-118198741D01*
X129136376Y-118372812D01*
X129068456Y-118536784D01*
X128969853Y-118684354D01*
X128844354Y-118809853D01*
X128696784Y-118908456D01*
X128532812Y-118976376D01*
X128383512Y-119006073D01*
X128358742Y-119011000D01*
X128181258Y-119011000D01*
X128156488Y-119006073D01*
X128007188Y-118976376D01*
X127843216Y-118908456D01*
X127695646Y-118809853D01*
X127570147Y-118684354D01*
X127471544Y-118536784D01*
X127403624Y-118372812D01*
X127369000Y-118198741D01*
X127369000Y-118021259D01*
X127403624Y-117847188D01*
X127471544Y-117683216D01*
X127570147Y-117535646D01*
X127695646Y-117410147D01*
X127843216Y-117311544D01*
X128007188Y-117243624D01*
X128156488Y-117213927D01*
X128181258Y-117209000D01*
X128358742Y-117209000D01*
X128383512Y-117213927D01*
G37*
G36*
X151243512Y-114673927D02*
G01*
X151392812Y-114703624D01*
X151556784Y-114771544D01*
X151704354Y-114870147D01*
X151829853Y-114995646D01*
X151928456Y-115143216D01*
X151996376Y-115307188D01*
X152031000Y-115481259D01*
X152031000Y-115658741D01*
X151996376Y-115832812D01*
X151928456Y-115996784D01*
X151829853Y-116144354D01*
X151704354Y-116269853D01*
X151556784Y-116368456D01*
X151392812Y-116436376D01*
X151243512Y-116466073D01*
X151218742Y-116471000D01*
X151041258Y-116471000D01*
X151016488Y-116466073D01*
X150867188Y-116436376D01*
X150703216Y-116368456D01*
X150555646Y-116269853D01*
X150430147Y-116144354D01*
X150331544Y-115996784D01*
X150263624Y-115832812D01*
X150229000Y-115658741D01*
X150229000Y-115481259D01*
X150263624Y-115307188D01*
X150331544Y-115143216D01*
X150430147Y-114995646D01*
X150555646Y-114870147D01*
X150703216Y-114771544D01*
X150867188Y-114703624D01*
X151016488Y-114673927D01*
X151041258Y-114669000D01*
X151218742Y-114669000D01*
X151243512Y-114673927D01*
G37*
G36*
X128383512Y-114673927D02*
G01*
X128532812Y-114703624D01*
X128696784Y-114771544D01*
X128844354Y-114870147D01*
X128969853Y-114995646D01*
X129068456Y-115143216D01*
X129136376Y-115307188D01*
X129171000Y-115481259D01*
X129171000Y-115658741D01*
X129136376Y-115832812D01*
X129068456Y-115996784D01*
X128969853Y-116144354D01*
X128844354Y-116269853D01*
X128696784Y-116368456D01*
X128532812Y-116436376D01*
X128383512Y-116466073D01*
X128358742Y-116471000D01*
X128181258Y-116471000D01*
X128156488Y-116466073D01*
X128007188Y-116436376D01*
X127843216Y-116368456D01*
X127695646Y-116269853D01*
X127570147Y-116144354D01*
X127471544Y-115996784D01*
X127403624Y-115832812D01*
X127369000Y-115658741D01*
X127369000Y-115481259D01*
X127403624Y-115307188D01*
X127471544Y-115143216D01*
X127570147Y-114995646D01*
X127695646Y-114870147D01*
X127843216Y-114771544D01*
X128007188Y-114703624D01*
X128156488Y-114673927D01*
X128181258Y-114669000D01*
X128358742Y-114669000D01*
X128383512Y-114673927D01*
G37*
G36*
X147867468Y-113934565D02*
G01*
X147906138Y-113946296D01*
X147941777Y-113965346D01*
X147973017Y-113990983D01*
X147998654Y-114022223D01*
X148017704Y-114057862D01*
X148029435Y-114096532D01*
X148034000Y-114142888D01*
X148034000Y-115219112D01*
X148029435Y-115265468D01*
X148017704Y-115304138D01*
X147998654Y-115339777D01*
X147973017Y-115371017D01*
X147941777Y-115396654D01*
X147906138Y-115415704D01*
X147867468Y-115427435D01*
X147821112Y-115432000D01*
X147169888Y-115432000D01*
X147123532Y-115427435D01*
X147084862Y-115415704D01*
X147049223Y-115396654D01*
X147017983Y-115371017D01*
X146992346Y-115339777D01*
X146973296Y-115304138D01*
X146961565Y-115265468D01*
X146957000Y-115219112D01*
X146957000Y-114142888D01*
X146961565Y-114096532D01*
X146973296Y-114057862D01*
X146992346Y-114022223D01*
X147017983Y-113990983D01*
X147049223Y-113965346D01*
X147084862Y-113946296D01*
X147123532Y-113934565D01*
X147169888Y-113930000D01*
X147821112Y-113930000D01*
X147867468Y-113934565D01*
G37*
G36*
X136848468Y-113934565D02*
G01*
X136887138Y-113946296D01*
X136922777Y-113965346D01*
X136954017Y-113990983D01*
X136979654Y-114022223D01*
X136998704Y-114057862D01*
X137010435Y-114096532D01*
X137015000Y-114142888D01*
X137015000Y-115219112D01*
X137010435Y-115265468D01*
X136998704Y-115304138D01*
X136979654Y-115339777D01*
X136954017Y-115371017D01*
X136922777Y-115396654D01*
X136887138Y-115415704D01*
X136848468Y-115427435D01*
X136802112Y-115432000D01*
X136150888Y-115432000D01*
X136104532Y-115427435D01*
X136065862Y-115415704D01*
X136030223Y-115396654D01*
X135998983Y-115371017D01*
X135973346Y-115339777D01*
X135954296Y-115304138D01*
X135942565Y-115265468D01*
X135938000Y-115219112D01*
X135938000Y-114142888D01*
X135942565Y-114096532D01*
X135954296Y-114057862D01*
X135973346Y-114022223D01*
X135998983Y-113990983D01*
X136030223Y-113965346D01*
X136065862Y-113946296D01*
X136104532Y-113934565D01*
X136150888Y-113930000D01*
X136802112Y-113930000D01*
X136848468Y-113934565D01*
G37*
G36*
X138723468Y-113934565D02*
G01*
X138762138Y-113946296D01*
X138797777Y-113965346D01*
X138829017Y-113990983D01*
X138854654Y-114022223D01*
X138873704Y-114057862D01*
X138885435Y-114096532D01*
X138890000Y-114142888D01*
X138890000Y-115219112D01*
X138885435Y-115265468D01*
X138873704Y-115304138D01*
X138854654Y-115339777D01*
X138829017Y-115371017D01*
X138797777Y-115396654D01*
X138762138Y-115415704D01*
X138723468Y-115427435D01*
X138677112Y-115432000D01*
X138025888Y-115432000D01*
X137979532Y-115427435D01*
X137940862Y-115415704D01*
X137905223Y-115396654D01*
X137873983Y-115371017D01*
X137848346Y-115339777D01*
X137829296Y-115304138D01*
X137817565Y-115265468D01*
X137813000Y-115219112D01*
X137813000Y-114142888D01*
X137817565Y-114096532D01*
X137829296Y-114057862D01*
X137848346Y-114022223D01*
X137873983Y-113990983D01*
X137905223Y-113965346D01*
X137940862Y-113946296D01*
X137979532Y-113934565D01*
X138025888Y-113930000D01*
X138677112Y-113930000D01*
X138723468Y-113934565D01*
G37*
G36*
X134151468Y-113934565D02*
G01*
X134190138Y-113946296D01*
X134225777Y-113965346D01*
X134257017Y-113990983D01*
X134282654Y-114022223D01*
X134301704Y-114057862D01*
X134313435Y-114096532D01*
X134318000Y-114142888D01*
X134318000Y-115219112D01*
X134313435Y-115265468D01*
X134301704Y-115304138D01*
X134282654Y-115339777D01*
X134257017Y-115371017D01*
X134225777Y-115396654D01*
X134190138Y-115415704D01*
X134151468Y-115427435D01*
X134105112Y-115432000D01*
X133453888Y-115432000D01*
X133407532Y-115427435D01*
X133368862Y-115415704D01*
X133333223Y-115396654D01*
X133301983Y-115371017D01*
X133276346Y-115339777D01*
X133257296Y-115304138D01*
X133245565Y-115265468D01*
X133241000Y-115219112D01*
X133241000Y-114142888D01*
X133245565Y-114096532D01*
X133257296Y-114057862D01*
X133276346Y-114022223D01*
X133301983Y-113990983D01*
X133333223Y-113965346D01*
X133368862Y-113946296D01*
X133407532Y-113934565D01*
X133453888Y-113930000D01*
X134105112Y-113930000D01*
X134151468Y-113934565D01*
G37*
G36*
X132276468Y-113934565D02*
G01*
X132315138Y-113946296D01*
X132350777Y-113965346D01*
X132382017Y-113990983D01*
X132407654Y-114022223D01*
X132426704Y-114057862D01*
X132438435Y-114096532D01*
X132443000Y-114142888D01*
X132443000Y-115219112D01*
X132438435Y-115265468D01*
X132426704Y-115304138D01*
X132407654Y-115339777D01*
X132382017Y-115371017D01*
X132350777Y-115396654D01*
X132315138Y-115415704D01*
X132276468Y-115427435D01*
X132230112Y-115432000D01*
X131578888Y-115432000D01*
X131532532Y-115427435D01*
X131493862Y-115415704D01*
X131458223Y-115396654D01*
X131426983Y-115371017D01*
X131401346Y-115339777D01*
X131382296Y-115304138D01*
X131370565Y-115265468D01*
X131366000Y-115219112D01*
X131366000Y-114142888D01*
X131370565Y-114096532D01*
X131382296Y-114057862D01*
X131401346Y-114022223D01*
X131426983Y-113990983D01*
X131458223Y-113965346D01*
X131493862Y-113946296D01*
X131532532Y-113934565D01*
X131578888Y-113930000D01*
X132230112Y-113930000D01*
X132276468Y-113934565D01*
G37*
G36*
X141420468Y-113934565D02*
G01*
X141459138Y-113946296D01*
X141494777Y-113965346D01*
X141526017Y-113990983D01*
X141551654Y-114022223D01*
X141570704Y-114057862D01*
X141582435Y-114096532D01*
X141587000Y-114142888D01*
X141587000Y-115219112D01*
X141582435Y-115265468D01*
X141570704Y-115304138D01*
X141551654Y-115339777D01*
X141526017Y-115371017D01*
X141494777Y-115396654D01*
X141459138Y-115415704D01*
X141420468Y-115427435D01*
X141374112Y-115432000D01*
X140722888Y-115432000D01*
X140676532Y-115427435D01*
X140637862Y-115415704D01*
X140602223Y-115396654D01*
X140570983Y-115371017D01*
X140545346Y-115339777D01*
X140526296Y-115304138D01*
X140514565Y-115265468D01*
X140510000Y-115219112D01*
X140510000Y-114142888D01*
X140514565Y-114096532D01*
X140526296Y-114057862D01*
X140545346Y-114022223D01*
X140570983Y-113990983D01*
X140602223Y-113965346D01*
X140637862Y-113946296D01*
X140676532Y-113934565D01*
X140722888Y-113930000D01*
X141374112Y-113930000D01*
X141420468Y-113934565D01*
G37*
G36*
X143295468Y-113934565D02*
G01*
X143334138Y-113946296D01*
X143369777Y-113965346D01*
X143401017Y-113990983D01*
X143426654Y-114022223D01*
X143445704Y-114057862D01*
X143457435Y-114096532D01*
X143462000Y-114142888D01*
X143462000Y-115219112D01*
X143457435Y-115265468D01*
X143445704Y-115304138D01*
X143426654Y-115339777D01*
X143401017Y-115371017D01*
X143369777Y-115396654D01*
X143334138Y-115415704D01*
X143295468Y-115427435D01*
X143249112Y-115432000D01*
X142597888Y-115432000D01*
X142551532Y-115427435D01*
X142512862Y-115415704D01*
X142477223Y-115396654D01*
X142445983Y-115371017D01*
X142420346Y-115339777D01*
X142401296Y-115304138D01*
X142389565Y-115265468D01*
X142385000Y-115219112D01*
X142385000Y-114142888D01*
X142389565Y-114096532D01*
X142401296Y-114057862D01*
X142420346Y-114022223D01*
X142445983Y-113990983D01*
X142477223Y-113965346D01*
X142512862Y-113946296D01*
X142551532Y-113934565D01*
X142597888Y-113930000D01*
X143249112Y-113930000D01*
X143295468Y-113934565D01*
G37*
G36*
X145992468Y-113934565D02*
G01*
X146031138Y-113946296D01*
X146066777Y-113965346D01*
X146098017Y-113990983D01*
X146123654Y-114022223D01*
X146142704Y-114057862D01*
X146154435Y-114096532D01*
X146159000Y-114142888D01*
X146159000Y-115219112D01*
X146154435Y-115265468D01*
X146142704Y-115304138D01*
X146123654Y-115339777D01*
X146098017Y-115371017D01*
X146066777Y-115396654D01*
X146031138Y-115415704D01*
X145992468Y-115427435D01*
X145946112Y-115432000D01*
X145294888Y-115432000D01*
X145248532Y-115427435D01*
X145209862Y-115415704D01*
X145174223Y-115396654D01*
X145142983Y-115371017D01*
X145117346Y-115339777D01*
X145098296Y-115304138D01*
X145086565Y-115265468D01*
X145082000Y-115219112D01*
X145082000Y-114142888D01*
X145086565Y-114096532D01*
X145098296Y-114057862D01*
X145117346Y-114022223D01*
X145142983Y-113990983D01*
X145174223Y-113965346D01*
X145209862Y-113946296D01*
X145248532Y-113934565D01*
X145294888Y-113930000D01*
X145946112Y-113930000D01*
X145992468Y-113934565D01*
G37*
G36*
X151243512Y-112133927D02*
G01*
X151392812Y-112163624D01*
X151556784Y-112231544D01*
X151704354Y-112330147D01*
X151829853Y-112455646D01*
X151928456Y-112603216D01*
X151996376Y-112767188D01*
X152031000Y-112941259D01*
X152031000Y-113118741D01*
X151996376Y-113292812D01*
X151928456Y-113456784D01*
X151829853Y-113604354D01*
X151704354Y-113729853D01*
X151556784Y-113828456D01*
X151392812Y-113896376D01*
X151243512Y-113926073D01*
X151218742Y-113931000D01*
X151041258Y-113931000D01*
X151016488Y-113926073D01*
X150867188Y-113896376D01*
X150703216Y-113828456D01*
X150555646Y-113729853D01*
X150430147Y-113604354D01*
X150331544Y-113456784D01*
X150263624Y-113292812D01*
X150229000Y-113118741D01*
X150229000Y-112941259D01*
X150263624Y-112767188D01*
X150331544Y-112603216D01*
X150430147Y-112455646D01*
X150555646Y-112330147D01*
X150703216Y-112231544D01*
X150867188Y-112163624D01*
X151016488Y-112133927D01*
X151041258Y-112129000D01*
X151218742Y-112129000D01*
X151243512Y-112133927D01*
G37*
G36*
X128383512Y-112133927D02*
G01*
X128532812Y-112163624D01*
X128696784Y-112231544D01*
X128844354Y-112330147D01*
X128969853Y-112455646D01*
X129068456Y-112603216D01*
X129136376Y-112767188D01*
X129171000Y-112941259D01*
X129171000Y-113118741D01*
X129136376Y-113292812D01*
X129068456Y-113456784D01*
X128969853Y-113604354D01*
X128844354Y-113729853D01*
X128696784Y-113828456D01*
X128532812Y-113896376D01*
X128383512Y-113926073D01*
X128358742Y-113931000D01*
X128181258Y-113931000D01*
X128156488Y-113926073D01*
X128007188Y-113896376D01*
X127843216Y-113828456D01*
X127695646Y-113729853D01*
X127570147Y-113604354D01*
X127471544Y-113456784D01*
X127403624Y-113292812D01*
X127369000Y-113118741D01*
X127369000Y-112941259D01*
X127403624Y-112767188D01*
X127471544Y-112603216D01*
X127570147Y-112455646D01*
X127695646Y-112330147D01*
X127843216Y-112231544D01*
X128007188Y-112163624D01*
X128156488Y-112133927D01*
X128181258Y-112129000D01*
X128358742Y-112129000D01*
X128383512Y-112133927D01*
G37*
G36*
X151243512Y-109593927D02*
G01*
X151392812Y-109623624D01*
X151556784Y-109691544D01*
X151704354Y-109790147D01*
X151829853Y-109915646D01*
X151928456Y-110063216D01*
X151996376Y-110227188D01*
X152031000Y-110401259D01*
X152031000Y-110578741D01*
X151996376Y-110752812D01*
X151928456Y-110916784D01*
X151829853Y-111064354D01*
X151704354Y-111189853D01*
X151556784Y-111288456D01*
X151392812Y-111356376D01*
X151243512Y-111386073D01*
X151218742Y-111391000D01*
X151041258Y-111391000D01*
X151016488Y-111386073D01*
X150867188Y-111356376D01*
X150703216Y-111288456D01*
X150555646Y-111189853D01*
X150430147Y-111064354D01*
X150331544Y-110916784D01*
X150263624Y-110752812D01*
X150229000Y-110578741D01*
X150229000Y-110401259D01*
X150263624Y-110227188D01*
X150331544Y-110063216D01*
X150430147Y-109915646D01*
X150555646Y-109790147D01*
X150703216Y-109691544D01*
X150867188Y-109623624D01*
X151016488Y-109593927D01*
X151041258Y-109589000D01*
X151218742Y-109589000D01*
X151243512Y-109593927D01*
G37*
G36*
X128383512Y-109593927D02*
G01*
X128532812Y-109623624D01*
X128696784Y-109691544D01*
X128844354Y-109790147D01*
X128969853Y-109915646D01*
X129068456Y-110063216D01*
X129136376Y-110227188D01*
X129171000Y-110401259D01*
X129171000Y-110578741D01*
X129136376Y-110752812D01*
X129068456Y-110916784D01*
X128969853Y-111064354D01*
X128844354Y-111189853D01*
X128696784Y-111288456D01*
X128532812Y-111356376D01*
X128383512Y-111386073D01*
X128358742Y-111391000D01*
X128181258Y-111391000D01*
X128156488Y-111386073D01*
X128007188Y-111356376D01*
X127843216Y-111288456D01*
X127695646Y-111189853D01*
X127570147Y-111064354D01*
X127471544Y-110916784D01*
X127403624Y-110752812D01*
X127369000Y-110578741D01*
X127369000Y-110401259D01*
X127403624Y-110227188D01*
X127471544Y-110063216D01*
X127570147Y-109915646D01*
X127695646Y-109790147D01*
X127843216Y-109691544D01*
X128007188Y-109623624D01*
X128156488Y-109593927D01*
X128181258Y-109589000D01*
X128358742Y-109589000D01*
X128383512Y-109593927D01*
G37*
G36*
X128383512Y-107053927D02*
G01*
X128532812Y-107083624D01*
X128696784Y-107151544D01*
X128844354Y-107250147D01*
X128969853Y-107375646D01*
X129068456Y-107523216D01*
X129136376Y-107687188D01*
X129171000Y-107861259D01*
X129171000Y-108038741D01*
X129136376Y-108212812D01*
X129068456Y-108376784D01*
X128969853Y-108524354D01*
X128844354Y-108649853D01*
X128696784Y-108748456D01*
X128532812Y-108816376D01*
X128383512Y-108846073D01*
X128358742Y-108851000D01*
X128181258Y-108851000D01*
X128156488Y-108846073D01*
X128007188Y-108816376D01*
X127843216Y-108748456D01*
X127695646Y-108649853D01*
X127570147Y-108524354D01*
X127471544Y-108376784D01*
X127403624Y-108212812D01*
X127369000Y-108038741D01*
X127369000Y-107861259D01*
X127403624Y-107687188D01*
X127471544Y-107523216D01*
X127570147Y-107375646D01*
X127695646Y-107250147D01*
X127843216Y-107151544D01*
X128007188Y-107083624D01*
X128156488Y-107053927D01*
X128181258Y-107049000D01*
X128358742Y-107049000D01*
X128383512Y-107053927D01*
G37*
G36*
X151243512Y-107053927D02*
G01*
X151392812Y-107083624D01*
X151556784Y-107151544D01*
X151704354Y-107250147D01*
X151829853Y-107375646D01*
X151928456Y-107523216D01*
X151996376Y-107687188D01*
X152031000Y-107861259D01*
X152031000Y-108038741D01*
X151996376Y-108212812D01*
X151928456Y-108376784D01*
X151829853Y-108524354D01*
X151704354Y-108649853D01*
X151556784Y-108748456D01*
X151392812Y-108816376D01*
X151243512Y-108846073D01*
X151218742Y-108851000D01*
X151041258Y-108851000D01*
X151016488Y-108846073D01*
X150867188Y-108816376D01*
X150703216Y-108748456D01*
X150555646Y-108649853D01*
X150430147Y-108524354D01*
X150331544Y-108376784D01*
X150263624Y-108212812D01*
X150229000Y-108038741D01*
X150229000Y-107861259D01*
X150263624Y-107687188D01*
X150331544Y-107523216D01*
X150430147Y-107375646D01*
X150555646Y-107250147D01*
X150703216Y-107151544D01*
X150867188Y-107083624D01*
X151016488Y-107053927D01*
X151041258Y-107049000D01*
X151218742Y-107049000D01*
X151243512Y-107053927D01*
G37*
G36*
X147867468Y-107330565D02*
G01*
X147906138Y-107342296D01*
X147941777Y-107361346D01*
X147973017Y-107386983D01*
X147998654Y-107418223D01*
X148017704Y-107453862D01*
X148029435Y-107492532D01*
X148034000Y-107538888D01*
X148034000Y-108615112D01*
X148029435Y-108661468D01*
X148017704Y-108700138D01*
X147998654Y-108735777D01*
X147973017Y-108767017D01*
X147941777Y-108792654D01*
X147906138Y-108811704D01*
X147867468Y-108823435D01*
X147821112Y-108828000D01*
X147169888Y-108828000D01*
X147123532Y-108823435D01*
X147084862Y-108811704D01*
X147049223Y-108792654D01*
X147017983Y-108767017D01*
X146992346Y-108735777D01*
X146973296Y-108700138D01*
X146961565Y-108661468D01*
X146957000Y-108615112D01*
X146957000Y-107538888D01*
X146961565Y-107492532D01*
X146973296Y-107453862D01*
X146992346Y-107418223D01*
X147017983Y-107386983D01*
X147049223Y-107361346D01*
X147084862Y-107342296D01*
X147123532Y-107330565D01*
X147169888Y-107326000D01*
X147821112Y-107326000D01*
X147867468Y-107330565D01*
G37*
G36*
X145992468Y-107330565D02*
G01*
X146031138Y-107342296D01*
X146066777Y-107361346D01*
X146098017Y-107386983D01*
X146123654Y-107418223D01*
X146142704Y-107453862D01*
X146154435Y-107492532D01*
X146159000Y-107538888D01*
X146159000Y-108615112D01*
X146154435Y-108661468D01*
X146142704Y-108700138D01*
X146123654Y-108735777D01*
X146098017Y-108767017D01*
X146066777Y-108792654D01*
X146031138Y-108811704D01*
X145992468Y-108823435D01*
X145946112Y-108828000D01*
X145294888Y-108828000D01*
X145248532Y-108823435D01*
X145209862Y-108811704D01*
X145174223Y-108792654D01*
X145142983Y-108767017D01*
X145117346Y-108735777D01*
X145098296Y-108700138D01*
X145086565Y-108661468D01*
X145082000Y-108615112D01*
X145082000Y-107538888D01*
X145086565Y-107492532D01*
X145098296Y-107453862D01*
X145117346Y-107418223D01*
X145142983Y-107386983D01*
X145174223Y-107361346D01*
X145209862Y-107342296D01*
X145248532Y-107330565D01*
X145294888Y-107326000D01*
X145946112Y-107326000D01*
X145992468Y-107330565D01*
G37*
G36*
X143295468Y-107330565D02*
G01*
X143334138Y-107342296D01*
X143369777Y-107361346D01*
X143401017Y-107386983D01*
X143426654Y-107418223D01*
X143445704Y-107453862D01*
X143457435Y-107492532D01*
X143462000Y-107538888D01*
X143462000Y-108615112D01*
X143457435Y-108661468D01*
X143445704Y-108700138D01*
X143426654Y-108735777D01*
X143401017Y-108767017D01*
X143369777Y-108792654D01*
X143334138Y-108811704D01*
X143295468Y-108823435D01*
X143249112Y-108828000D01*
X142597888Y-108828000D01*
X142551532Y-108823435D01*
X142512862Y-108811704D01*
X142477223Y-108792654D01*
X142445983Y-108767017D01*
X142420346Y-108735777D01*
X142401296Y-108700138D01*
X142389565Y-108661468D01*
X142385000Y-108615112D01*
X142385000Y-107538888D01*
X142389565Y-107492532D01*
X142401296Y-107453862D01*
X142420346Y-107418223D01*
X142445983Y-107386983D01*
X142477223Y-107361346D01*
X142512862Y-107342296D01*
X142551532Y-107330565D01*
X142597888Y-107326000D01*
X143249112Y-107326000D01*
X143295468Y-107330565D01*
G37*
G36*
X141420468Y-107330565D02*
G01*
X141459138Y-107342296D01*
X141494777Y-107361346D01*
X141526017Y-107386983D01*
X141551654Y-107418223D01*
X141570704Y-107453862D01*
X141582435Y-107492532D01*
X141587000Y-107538888D01*
X141587000Y-108615112D01*
X141582435Y-108661468D01*
X141570704Y-108700138D01*
X141551654Y-108735777D01*
X141526017Y-108767017D01*
X141494777Y-108792654D01*
X141459138Y-108811704D01*
X141420468Y-108823435D01*
X141374112Y-108828000D01*
X140722888Y-108828000D01*
X140676532Y-108823435D01*
X140637862Y-108811704D01*
X140602223Y-108792654D01*
X140570983Y-108767017D01*
X140545346Y-108735777D01*
X140526296Y-108700138D01*
X140514565Y-108661468D01*
X140510000Y-108615112D01*
X140510000Y-107538888D01*
X140514565Y-107492532D01*
X140526296Y-107453862D01*
X140545346Y-107418223D01*
X140570983Y-107386983D01*
X140602223Y-107361346D01*
X140637862Y-107342296D01*
X140676532Y-107330565D01*
X140722888Y-107326000D01*
X141374112Y-107326000D01*
X141420468Y-107330565D01*
G37*
G36*
X138723468Y-107330565D02*
G01*
X138762138Y-107342296D01*
X138797777Y-107361346D01*
X138829017Y-107386983D01*
X138854654Y-107418223D01*
X138873704Y-107453862D01*
X138885435Y-107492532D01*
X138890000Y-107538888D01*
X138890000Y-108615112D01*
X138885435Y-108661468D01*
X138873704Y-108700138D01*
X138854654Y-108735777D01*
X138829017Y-108767017D01*
X138797777Y-108792654D01*
X138762138Y-108811704D01*
X138723468Y-108823435D01*
X138677112Y-108828000D01*
X138025888Y-108828000D01*
X137979532Y-108823435D01*
X137940862Y-108811704D01*
X137905223Y-108792654D01*
X137873983Y-108767017D01*
X137848346Y-108735777D01*
X137829296Y-108700138D01*
X137817565Y-108661468D01*
X137813000Y-108615112D01*
X137813000Y-107538888D01*
X137817565Y-107492532D01*
X137829296Y-107453862D01*
X137848346Y-107418223D01*
X137873983Y-107386983D01*
X137905223Y-107361346D01*
X137940862Y-107342296D01*
X137979532Y-107330565D01*
X138025888Y-107326000D01*
X138677112Y-107326000D01*
X138723468Y-107330565D01*
G37*
G36*
X136848468Y-107330565D02*
G01*
X136887138Y-107342296D01*
X136922777Y-107361346D01*
X136954017Y-107386983D01*
X136979654Y-107418223D01*
X136998704Y-107453862D01*
X137010435Y-107492532D01*
X137015000Y-107538888D01*
X137015000Y-108615112D01*
X137010435Y-108661468D01*
X136998704Y-108700138D01*
X136979654Y-108735777D01*
X136954017Y-108767017D01*
X136922777Y-108792654D01*
X136887138Y-108811704D01*
X136848468Y-108823435D01*
X136802112Y-108828000D01*
X136150888Y-108828000D01*
X136104532Y-108823435D01*
X136065862Y-108811704D01*
X136030223Y-108792654D01*
X135998983Y-108767017D01*
X135973346Y-108735777D01*
X135954296Y-108700138D01*
X135942565Y-108661468D01*
X135938000Y-108615112D01*
X135938000Y-107538888D01*
X135942565Y-107492532D01*
X135954296Y-107453862D01*
X135973346Y-107418223D01*
X135998983Y-107386983D01*
X136030223Y-107361346D01*
X136065862Y-107342296D01*
X136104532Y-107330565D01*
X136150888Y-107326000D01*
X136802112Y-107326000D01*
X136848468Y-107330565D01*
G37*
G36*
X132276468Y-107330565D02*
G01*
X132315138Y-107342296D01*
X132350777Y-107361346D01*
X132382017Y-107386983D01*
X132407654Y-107418223D01*
X132426704Y-107453862D01*
X132438435Y-107492532D01*
X132443000Y-107538888D01*
X132443000Y-108615112D01*
X132438435Y-108661468D01*
X132426704Y-108700138D01*
X132407654Y-108735777D01*
X132382017Y-108767017D01*
X132350777Y-108792654D01*
X132315138Y-108811704D01*
X132276468Y-108823435D01*
X132230112Y-108828000D01*
X131578888Y-108828000D01*
X131532532Y-108823435D01*
X131493862Y-108811704D01*
X131458223Y-108792654D01*
X131426983Y-108767017D01*
X131401346Y-108735777D01*
X131382296Y-108700138D01*
X131370565Y-108661468D01*
X131366000Y-108615112D01*
X131366000Y-107538888D01*
X131370565Y-107492532D01*
X131382296Y-107453862D01*
X131401346Y-107418223D01*
X131426983Y-107386983D01*
X131458223Y-107361346D01*
X131493862Y-107342296D01*
X131532532Y-107330565D01*
X131578888Y-107326000D01*
X132230112Y-107326000D01*
X132276468Y-107330565D01*
G37*
G36*
X134151468Y-107330565D02*
G01*
X134190138Y-107342296D01*
X134225777Y-107361346D01*
X134257017Y-107386983D01*
X134282654Y-107418223D01*
X134301704Y-107453862D01*
X134313435Y-107492532D01*
X134318000Y-107538888D01*
X134318000Y-108615112D01*
X134313435Y-108661468D01*
X134301704Y-108700138D01*
X134282654Y-108735777D01*
X134257017Y-108767017D01*
X134225777Y-108792654D01*
X134190138Y-108811704D01*
X134151468Y-108823435D01*
X134105112Y-108828000D01*
X133453888Y-108828000D01*
X133407532Y-108823435D01*
X133368862Y-108811704D01*
X133333223Y-108792654D01*
X133301983Y-108767017D01*
X133276346Y-108735777D01*
X133257296Y-108700138D01*
X133245565Y-108661468D01*
X133241000Y-108615112D01*
X133241000Y-107538888D01*
X133245565Y-107492532D01*
X133257296Y-107453862D01*
X133276346Y-107418223D01*
X133301983Y-107386983D01*
X133333223Y-107361346D01*
X133368862Y-107342296D01*
X133407532Y-107330565D01*
X133453888Y-107326000D01*
X134105112Y-107326000D01*
X134151468Y-107330565D01*
G37*
G36*
X129171000Y-106311000D02*
G01*
X127369000Y-106311000D01*
X127369000Y-104509000D01*
X129171000Y-104509000D01*
X129171000Y-106311000D01*
G37*
G36*
X152031000Y-106311000D02*
G01*
X150229000Y-106311000D01*
X150229000Y-104509000D01*
X152031000Y-104509000D01*
X152031000Y-106311000D01*
G37*
G36*
X135531000Y-102426000D02*
G01*
X134979000Y-102426000D01*
X134979000Y-100174000D01*
X135531000Y-100174000D01*
X135531000Y-102426000D01*
G37*
G36*
X132991000Y-102426000D02*
G01*
X132439000Y-102426000D01*
X132439000Y-100174000D01*
X132991000Y-100174000D01*
X132991000Y-102426000D01*
G37*
G36*
X134261000Y-102426000D02*
G01*
X133709000Y-102426000D01*
X133709000Y-100174000D01*
X134261000Y-100174000D01*
X134261000Y-102426000D01*
G37*
G36*
X136801000Y-102426000D02*
G01*
X136249000Y-102426000D01*
X136249000Y-100174000D01*
X136801000Y-100174000D01*
X136801000Y-102426000D01*
G37*
G36*
X147596000Y-102426000D02*
G01*
X147044000Y-102426000D01*
X147044000Y-100174000D01*
X147596000Y-100174000D01*
X147596000Y-102426000D01*
G37*
G36*
X146326000Y-102426000D02*
G01*
X145774000Y-102426000D01*
X145774000Y-100174000D01*
X146326000Y-100174000D01*
X146326000Y-102426000D01*
G37*
G36*
X143786000Y-102426000D02*
G01*
X143234000Y-102426000D01*
X143234000Y-100174000D01*
X143786000Y-100174000D01*
X143786000Y-102426000D01*
G37*
G36*
X145056000Y-102426000D02*
G01*
X144504000Y-102426000D01*
X144504000Y-100174000D01*
X145056000Y-100174000D01*
X145056000Y-102426000D01*
G37*
G36*
X147016000Y-99676000D02*
G01*
X143814000Y-99676000D01*
X143814000Y-97174000D01*
X147016000Y-97174000D01*
X147016000Y-99676000D01*
G37*
G36*
X136221000Y-99676000D02*
G01*
X133019000Y-99676000D01*
X133019000Y-97174000D01*
X136221000Y-97174000D01*
X136221000Y-99676000D01*
G37*
G36*
X132991000Y-96676000D02*
G01*
X132439000Y-96676000D01*
X132439000Y-94424000D01*
X132991000Y-94424000D01*
X132991000Y-96676000D01*
G37*
G36*
X136801000Y-96676000D02*
G01*
X136249000Y-96676000D01*
X136249000Y-94424000D01*
X136801000Y-94424000D01*
X136801000Y-96676000D01*
G37*
G36*
X135531000Y-96676000D02*
G01*
X134979000Y-96676000D01*
X134979000Y-94424000D01*
X135531000Y-94424000D01*
X135531000Y-96676000D01*
G37*
G36*
X147596000Y-96676000D02*
G01*
X147044000Y-96676000D01*
X147044000Y-94424000D01*
X147596000Y-94424000D01*
X147596000Y-96676000D01*
G37*
G36*
X146326000Y-96676000D02*
G01*
X145774000Y-96676000D01*
X145774000Y-94424000D01*
X146326000Y-94424000D01*
X146326000Y-96676000D01*
G37*
G36*
X145056000Y-96676000D02*
G01*
X144504000Y-96676000D01*
X144504000Y-94424000D01*
X145056000Y-94424000D01*
X145056000Y-96676000D01*
G37*
G36*
X143786000Y-96676000D02*
G01*
X143234000Y-96676000D01*
X143234000Y-94424000D01*
X143786000Y-94424000D01*
X143786000Y-96676000D01*
G37*
G36*
X134261000Y-96676000D02*
G01*
X133709000Y-96676000D01*
X133709000Y-94424000D01*
X134261000Y-94424000D01*
X134261000Y-96676000D01*
G37*
G36*
X143770604Y-88485347D02*
G01*
X143807144Y-88496432D01*
X143840821Y-88514433D01*
X143870341Y-88538659D01*
X143894567Y-88568179D01*
X143912568Y-88601856D01*
X143923653Y-88638396D01*
X143928000Y-88682538D01*
X143928000Y-89631462D01*
X143923653Y-89675604D01*
X143912568Y-89712144D01*
X143894567Y-89745821D01*
X143870341Y-89775341D01*
X143840821Y-89799567D01*
X143807144Y-89817568D01*
X143770604Y-89828653D01*
X143726462Y-89833000D01*
X142277538Y-89833000D01*
X142233396Y-89828653D01*
X142196856Y-89817568D01*
X142163179Y-89799567D01*
X142133659Y-89775341D01*
X142109433Y-89745821D01*
X142091432Y-89712144D01*
X142080347Y-89675604D01*
X142076000Y-89631462D01*
X142076000Y-88682538D01*
X142080347Y-88638396D01*
X142091432Y-88601856D01*
X142109433Y-88568179D01*
X142133659Y-88538659D01*
X142163179Y-88514433D01*
X142196856Y-88496432D01*
X142233396Y-88485347D01*
X142277538Y-88481000D01*
X143726462Y-88481000D01*
X143770604Y-88485347D01*
G37*
G36*
X131832604Y-88485347D02*
G01*
X131869144Y-88496432D01*
X131902821Y-88514433D01*
X131932341Y-88538659D01*
X131956567Y-88568179D01*
X131974568Y-88601856D01*
X131985653Y-88638396D01*
X131990000Y-88682538D01*
X131990000Y-89631462D01*
X131985653Y-89675604D01*
X131974568Y-89712144D01*
X131956567Y-89745821D01*
X131932341Y-89775341D01*
X131902821Y-89799567D01*
X131869144Y-89817568D01*
X131832604Y-89828653D01*
X131788462Y-89833000D01*
X130339538Y-89833000D01*
X130295396Y-89828653D01*
X130258856Y-89817568D01*
X130225179Y-89799567D01*
X130195659Y-89775341D01*
X130171433Y-89745821D01*
X130153432Y-89712144D01*
X130142347Y-89675604D01*
X130138000Y-89631462D01*
X130138000Y-88682538D01*
X130142347Y-88638396D01*
X130153432Y-88601856D01*
X130171433Y-88568179D01*
X130195659Y-88538659D01*
X130225179Y-88514433D01*
X130258856Y-88496432D01*
X130295396Y-88485347D01*
X130339538Y-88481000D01*
X131788462Y-88481000D01*
X131832604Y-88485347D01*
G37*
G36*
X136982468Y-87652565D02*
G01*
X137021138Y-87664296D01*
X137056777Y-87683346D01*
X137088017Y-87708983D01*
X137113654Y-87740223D01*
X137132704Y-87775862D01*
X137144435Y-87814532D01*
X137149000Y-87860888D01*
X137149000Y-88512112D01*
X137144435Y-88558468D01*
X137132704Y-88597138D01*
X137113654Y-88632777D01*
X137088017Y-88664017D01*
X137056777Y-88689654D01*
X137021138Y-88708704D01*
X136982468Y-88720435D01*
X136936112Y-88725000D01*
X135859888Y-88725000D01*
X135813532Y-88720435D01*
X135774862Y-88708704D01*
X135739223Y-88689654D01*
X135707983Y-88664017D01*
X135682346Y-88632777D01*
X135663296Y-88597138D01*
X135651565Y-88558468D01*
X135647000Y-88512112D01*
X135647000Y-87860888D01*
X135651565Y-87814532D01*
X135663296Y-87775862D01*
X135682346Y-87740223D01*
X135707983Y-87708983D01*
X135739223Y-87683346D01*
X135774862Y-87664296D01*
X135813532Y-87652565D01*
X135859888Y-87648000D01*
X136936112Y-87648000D01*
X136982468Y-87652565D01*
G37*
G36*
X149174468Y-87652565D02*
G01*
X149213138Y-87664296D01*
X149248777Y-87683346D01*
X149280017Y-87708983D01*
X149305654Y-87740223D01*
X149324704Y-87775862D01*
X149336435Y-87814532D01*
X149341000Y-87860888D01*
X149341000Y-88512112D01*
X149336435Y-88558468D01*
X149324704Y-88597138D01*
X149305654Y-88632777D01*
X149280017Y-88664017D01*
X149248777Y-88689654D01*
X149213138Y-88708704D01*
X149174468Y-88720435D01*
X149128112Y-88725000D01*
X148051888Y-88725000D01*
X148005532Y-88720435D01*
X147966862Y-88708704D01*
X147931223Y-88689654D01*
X147899983Y-88664017D01*
X147874346Y-88632777D01*
X147855296Y-88597138D01*
X147843565Y-88558468D01*
X147839000Y-88512112D01*
X147839000Y-87860888D01*
X147843565Y-87814532D01*
X147855296Y-87775862D01*
X147874346Y-87740223D01*
X147899983Y-87708983D01*
X147931223Y-87683346D01*
X147966862Y-87664296D01*
X148005532Y-87652565D01*
X148051888Y-87648000D01*
X149128112Y-87648000D01*
X149174468Y-87652565D01*
G37*
G36*
X131832604Y-85685347D02*
G01*
X131869144Y-85696432D01*
X131902821Y-85714433D01*
X131932341Y-85738659D01*
X131956567Y-85768179D01*
X131974568Y-85801856D01*
X131985653Y-85838396D01*
X131990000Y-85882538D01*
X131990000Y-86831462D01*
X131985653Y-86875604D01*
X131974568Y-86912144D01*
X131956567Y-86945821D01*
X131932341Y-86975341D01*
X131902821Y-86999567D01*
X131869144Y-87017568D01*
X131832604Y-87028653D01*
X131788462Y-87033000D01*
X130339538Y-87033000D01*
X130295396Y-87028653D01*
X130258856Y-87017568D01*
X130225179Y-86999567D01*
X130195659Y-86975341D01*
X130171433Y-86945821D01*
X130153432Y-86912144D01*
X130142347Y-86875604D01*
X130138000Y-86831462D01*
X130138000Y-85882538D01*
X130142347Y-85838396D01*
X130153432Y-85801856D01*
X130171433Y-85768179D01*
X130195659Y-85738659D01*
X130225179Y-85714433D01*
X130258856Y-85696432D01*
X130295396Y-85685347D01*
X130339538Y-85681000D01*
X131788462Y-85681000D01*
X131832604Y-85685347D01*
G37*
G36*
X143770604Y-85685347D02*
G01*
X143807144Y-85696432D01*
X143840821Y-85714433D01*
X143870341Y-85738659D01*
X143894567Y-85768179D01*
X143912568Y-85801856D01*
X143923653Y-85838396D01*
X143928000Y-85882538D01*
X143928000Y-86831462D01*
X143923653Y-86875604D01*
X143912568Y-86912144D01*
X143894567Y-86945821D01*
X143870341Y-86975341D01*
X143840821Y-86999567D01*
X143807144Y-87017568D01*
X143770604Y-87028653D01*
X143726462Y-87033000D01*
X142277538Y-87033000D01*
X142233396Y-87028653D01*
X142196856Y-87017568D01*
X142163179Y-86999567D01*
X142133659Y-86975341D01*
X142109433Y-86945821D01*
X142091432Y-86912144D01*
X142080347Y-86875604D01*
X142076000Y-86831462D01*
X142076000Y-85882538D01*
X142080347Y-85838396D01*
X142091432Y-85801856D01*
X142109433Y-85768179D01*
X142133659Y-85738659D01*
X142163179Y-85714433D01*
X142196856Y-85696432D01*
X142233396Y-85685347D01*
X142277538Y-85681000D01*
X143726462Y-85681000D01*
X143770604Y-85685347D01*
G37*
G36*
X149174468Y-85777565D02*
G01*
X149213138Y-85789296D01*
X149248777Y-85808346D01*
X149280017Y-85833983D01*
X149305654Y-85865223D01*
X149324704Y-85900862D01*
X149336435Y-85939532D01*
X149341000Y-85985888D01*
X149341000Y-86637112D01*
X149336435Y-86683468D01*
X149324704Y-86722138D01*
X149305654Y-86757777D01*
X149280017Y-86789017D01*
X149248777Y-86814654D01*
X149213138Y-86833704D01*
X149174468Y-86845435D01*
X149128112Y-86850000D01*
X148051888Y-86850000D01*
X148005532Y-86845435D01*
X147966862Y-86833704D01*
X147931223Y-86814654D01*
X147899983Y-86789017D01*
X147874346Y-86757777D01*
X147855296Y-86722138D01*
X147843565Y-86683468D01*
X147839000Y-86637112D01*
X147839000Y-85985888D01*
X147843565Y-85939532D01*
X147855296Y-85900862D01*
X147874346Y-85865223D01*
X147899983Y-85833983D01*
X147931223Y-85808346D01*
X147966862Y-85789296D01*
X148005532Y-85777565D01*
X148051888Y-85773000D01*
X149128112Y-85773000D01*
X149174468Y-85777565D01*
G37*
G36*
X136982468Y-85777565D02*
G01*
X137021138Y-85789296D01*
X137056777Y-85808346D01*
X137088017Y-85833983D01*
X137113654Y-85865223D01*
X137132704Y-85900862D01*
X137144435Y-85939532D01*
X137149000Y-85985888D01*
X137149000Y-86637112D01*
X137144435Y-86683468D01*
X137132704Y-86722138D01*
X137113654Y-86757777D01*
X137088017Y-86789017D01*
X137056777Y-86814654D01*
X137021138Y-86833704D01*
X136982468Y-86845435D01*
X136936112Y-86850000D01*
X135859888Y-86850000D01*
X135813532Y-86845435D01*
X135774862Y-86833704D01*
X135739223Y-86814654D01*
X135707983Y-86789017D01*
X135682346Y-86757777D01*
X135663296Y-86722138D01*
X135651565Y-86683468D01*
X135647000Y-86637112D01*
X135647000Y-85985888D01*
X135651565Y-85939532D01*
X135663296Y-85900862D01*
X135682346Y-85865223D01*
X135707983Y-85833983D01*
X135739223Y-85808346D01*
X135774862Y-85789296D01*
X135813532Y-85777565D01*
X135859888Y-85773000D01*
X136936112Y-85773000D01*
X136982468Y-85777565D01*
G37*
G36*
X152775256Y-73194298D02*
G01*
X152881579Y-73215447D01*
X153182042Y-73339903D01*
X153452451Y-73520585D01*
X153682415Y-73750549D01*
X153863097Y-74020958D01*
X153987553Y-74321421D01*
X154051000Y-74640391D01*
X154051000Y-74965609D01*
X153987553Y-75284579D01*
X153863097Y-75585042D01*
X153682415Y-75855451D01*
X153452451Y-76085415D01*
X153182042Y-76266097D01*
X152881579Y-76390553D01*
X152775256Y-76411702D01*
X152562611Y-76454000D01*
X152237389Y-76454000D01*
X152024744Y-76411702D01*
X151918421Y-76390553D01*
X151617958Y-76266097D01*
X151347549Y-76085415D01*
X151117585Y-75855451D01*
X150936903Y-75585042D01*
X150812447Y-75284579D01*
X150749000Y-74965609D01*
X150749000Y-74640391D01*
X150812447Y-74321421D01*
X150936903Y-74020958D01*
X151117585Y-73750549D01*
X151347549Y-73520585D01*
X151617958Y-73339903D01*
X151918421Y-73215447D01*
X152024744Y-73194298D01*
X152237389Y-73152000D01*
X152562611Y-73152000D01*
X152775256Y-73194298D01*
G37*
G36*
X127375256Y-73194298D02*
G01*
X127481579Y-73215447D01*
X127782042Y-73339903D01*
X128052451Y-73520585D01*
X128282415Y-73750549D01*
X128463097Y-74020958D01*
X128587553Y-74321421D01*
X128651000Y-74640391D01*
X128651000Y-74965609D01*
X128587553Y-75284579D01*
X128463097Y-75585042D01*
X128282415Y-75855451D01*
X128052451Y-76085415D01*
X127782042Y-76266097D01*
X127481579Y-76390553D01*
X127375256Y-76411702D01*
X127162611Y-76454000D01*
X126837389Y-76454000D01*
X126624744Y-76411702D01*
X126518421Y-76390553D01*
X126217958Y-76266097D01*
X125947549Y-76085415D01*
X125717585Y-75855451D01*
X125536903Y-75585042D01*
X125412447Y-75284579D01*
X125349000Y-74965609D01*
X125349000Y-74640391D01*
X125412447Y-74321421D01*
X125536903Y-74020958D01*
X125717585Y-73750549D01*
X125947549Y-73520585D01*
X126217958Y-73339903D01*
X126518421Y-73215447D01*
X126624744Y-73194298D01*
X126837389Y-73152000D01*
X127162611Y-73152000D01*
X127375256Y-73194298D01*
G37*
G36*
X132455256Y-73194298D02*
G01*
X132561579Y-73215447D01*
X132862042Y-73339903D01*
X133132451Y-73520585D01*
X133362415Y-73750549D01*
X133543097Y-74020958D01*
X133667553Y-74321421D01*
X133731000Y-74640391D01*
X133731000Y-74965609D01*
X133667553Y-75284579D01*
X133543097Y-75585042D01*
X133362415Y-75855451D01*
X133132451Y-76085415D01*
X132862042Y-76266097D01*
X132561579Y-76390553D01*
X132455256Y-76411702D01*
X132242611Y-76454000D01*
X131917389Y-76454000D01*
X131704744Y-76411702D01*
X131598421Y-76390553D01*
X131297958Y-76266097D01*
X131027549Y-76085415D01*
X130797585Y-75855451D01*
X130616903Y-75585042D01*
X130492447Y-75284579D01*
X130429000Y-74965609D01*
X130429000Y-74640391D01*
X130492447Y-74321421D01*
X130616903Y-74020958D01*
X130797585Y-73750549D01*
X131027549Y-73520585D01*
X131297958Y-73339903D01*
X131598421Y-73215447D01*
X131704744Y-73194298D01*
X131917389Y-73152000D01*
X132242611Y-73152000D01*
X132455256Y-73194298D01*
G37*
G36*
X137535256Y-73194298D02*
G01*
X137641579Y-73215447D01*
X137942042Y-73339903D01*
X138212451Y-73520585D01*
X138442415Y-73750549D01*
X138623097Y-74020958D01*
X138747553Y-74321421D01*
X138811000Y-74640391D01*
X138811000Y-74965609D01*
X138747553Y-75284579D01*
X138623097Y-75585042D01*
X138442415Y-75855451D01*
X138212451Y-76085415D01*
X137942042Y-76266097D01*
X137641579Y-76390553D01*
X137535256Y-76411702D01*
X137322611Y-76454000D01*
X136997389Y-76454000D01*
X136784744Y-76411702D01*
X136678421Y-76390553D01*
X136377958Y-76266097D01*
X136107549Y-76085415D01*
X135877585Y-75855451D01*
X135696903Y-75585042D01*
X135572447Y-75284579D01*
X135509000Y-74965609D01*
X135509000Y-74640391D01*
X135572447Y-74321421D01*
X135696903Y-74020958D01*
X135877585Y-73750549D01*
X136107549Y-73520585D01*
X136377958Y-73339903D01*
X136678421Y-73215447D01*
X136784744Y-73194298D01*
X136997389Y-73152000D01*
X137322611Y-73152000D01*
X137535256Y-73194298D01*
G37*
G36*
X147695256Y-73194298D02*
G01*
X147801579Y-73215447D01*
X148102042Y-73339903D01*
X148372451Y-73520585D01*
X148602415Y-73750549D01*
X148783097Y-74020958D01*
X148907553Y-74321421D01*
X148971000Y-74640391D01*
X148971000Y-74965609D01*
X148907553Y-75284579D01*
X148783097Y-75585042D01*
X148602415Y-75855451D01*
X148372451Y-76085415D01*
X148102042Y-76266097D01*
X147801579Y-76390553D01*
X147695256Y-76411702D01*
X147482611Y-76454000D01*
X147157389Y-76454000D01*
X146944744Y-76411702D01*
X146838421Y-76390553D01*
X146537958Y-76266097D01*
X146267549Y-76085415D01*
X146037585Y-75855451D01*
X145856903Y-75585042D01*
X145732447Y-75284579D01*
X145669000Y-74965609D01*
X145669000Y-74640391D01*
X145732447Y-74321421D01*
X145856903Y-74020958D01*
X146037585Y-73750549D01*
X146267549Y-73520585D01*
X146537958Y-73339903D01*
X146838421Y-73215447D01*
X146944744Y-73194298D01*
X147157389Y-73152000D01*
X147482611Y-73152000D01*
X147695256Y-73194298D01*
G37*
G36*
X142615256Y-73194298D02*
G01*
X142721579Y-73215447D01*
X143022042Y-73339903D01*
X143292451Y-73520585D01*
X143522415Y-73750549D01*
X143703097Y-74020958D01*
X143827553Y-74321421D01*
X143891000Y-74640391D01*
X143891000Y-74965609D01*
X143827553Y-75284579D01*
X143703097Y-75585042D01*
X143522415Y-75855451D01*
X143292451Y-76085415D01*
X143022042Y-76266097D01*
X142721579Y-76390553D01*
X142615256Y-76411702D01*
X142402611Y-76454000D01*
X142077389Y-76454000D01*
X141864744Y-76411702D01*
X141758421Y-76390553D01*
X141457958Y-76266097D01*
X141187549Y-76085415D01*
X140957585Y-75855451D01*
X140776903Y-75585042D01*
X140652447Y-75284579D01*
X140589000Y-74965609D01*
X140589000Y-74640391D01*
X140652447Y-74321421D01*
X140776903Y-74020958D01*
X140957585Y-73750549D01*
X141187549Y-73520585D01*
X141457958Y-73339903D01*
X141758421Y-73215447D01*
X141864744Y-73194298D01*
X142077389Y-73152000D01*
X142402611Y-73152000D01*
X142615256Y-73194298D01*
G37*
M02*
