G04 #@! TF.GenerationSoftware,KiCad,Pcbnew,(5.1.5)-3*
G04 #@! TF.CreationDate,2020-05-08T19:39:07+02:00*
G04 #@! TF.ProjectId,DRV8870 BDC Motor Driver,44525638-3837-4302-9042-4443204d6f74,rev?*
G04 #@! TF.SameCoordinates,Original*
G04 #@! TF.FileFunction,Legend,Bot*
G04 #@! TF.FilePolarity,Positive*
%FSLAX46Y46*%
G04 Gerber Fmt 4.6, Leading zero omitted, Abs format (unit mm)*
G04 Created by KiCad (PCBNEW (5.1.5)-3) date 2020-05-08 19:39:07*
%MOMM*%
%LPD*%
G04 APERTURE LIST*
%ADD10C,0.150000*%
%ADD11C,0.010000*%
%ADD12C,0.120000*%
G04 APERTURE END LIST*
D10*
X150585714Y-71464714D02*
X150585714Y-70702714D01*
X150404285Y-70702714D01*
X150295428Y-70739000D01*
X150222857Y-70811571D01*
X150186571Y-70884142D01*
X150150285Y-71029285D01*
X150150285Y-71138142D01*
X150186571Y-71283285D01*
X150222857Y-71355857D01*
X150295428Y-71428428D01*
X150404285Y-71464714D01*
X150585714Y-71464714D01*
X149823714Y-71065571D02*
X149569714Y-71065571D01*
X149460857Y-71464714D02*
X149823714Y-71464714D01*
X149823714Y-70702714D01*
X149460857Y-70702714D01*
X149170571Y-71428428D02*
X149061714Y-71464714D01*
X148880285Y-71464714D01*
X148807714Y-71428428D01*
X148771428Y-71392142D01*
X148735142Y-71319571D01*
X148735142Y-71247000D01*
X148771428Y-71174428D01*
X148807714Y-71138142D01*
X148880285Y-71101857D01*
X149025428Y-71065571D01*
X149098000Y-71029285D01*
X149134285Y-70993000D01*
X149170571Y-70920428D01*
X149170571Y-70847857D01*
X149134285Y-70775285D01*
X149098000Y-70739000D01*
X149025428Y-70702714D01*
X148844000Y-70702714D01*
X148735142Y-70739000D01*
X148408571Y-71464714D02*
X148408571Y-70702714D01*
X147646571Y-70739000D02*
X147719142Y-70702714D01*
X147828000Y-70702714D01*
X147936857Y-70739000D01*
X148009428Y-70811571D01*
X148045714Y-70884142D01*
X148082000Y-71029285D01*
X148082000Y-71138142D01*
X148045714Y-71283285D01*
X148009428Y-71355857D01*
X147936857Y-71428428D01*
X147828000Y-71464714D01*
X147755428Y-71464714D01*
X147646571Y-71428428D01*
X147610285Y-71392142D01*
X147610285Y-71138142D01*
X147755428Y-71138142D01*
X147283714Y-71464714D02*
X147283714Y-70702714D01*
X146848285Y-71464714D01*
X146848285Y-70702714D01*
X146485428Y-71065571D02*
X146231428Y-71065571D01*
X146122571Y-71464714D02*
X146485428Y-71464714D01*
X146485428Y-70702714D01*
X146122571Y-70702714D01*
X145796000Y-71464714D02*
X145796000Y-70702714D01*
X145614571Y-70702714D01*
X145505714Y-70739000D01*
X145433142Y-70811571D01*
X145396857Y-70884142D01*
X145360571Y-71029285D01*
X145360571Y-71138142D01*
X145396857Y-71283285D01*
X145433142Y-71355857D01*
X145505714Y-71428428D01*
X145614571Y-71464714D01*
X145796000Y-71464714D01*
X144199428Y-71065571D02*
X144090571Y-71101857D01*
X144054285Y-71138142D01*
X144018000Y-71210714D01*
X144018000Y-71319571D01*
X144054285Y-71392142D01*
X144090571Y-71428428D01*
X144163142Y-71464714D01*
X144453428Y-71464714D01*
X144453428Y-70702714D01*
X144199428Y-70702714D01*
X144126857Y-70739000D01*
X144090571Y-70775285D01*
X144054285Y-70847857D01*
X144054285Y-70920428D01*
X144090571Y-70993000D01*
X144126857Y-71029285D01*
X144199428Y-71065571D01*
X144453428Y-71065571D01*
X143546285Y-71101857D02*
X143546285Y-71464714D01*
X143800285Y-70702714D02*
X143546285Y-71101857D01*
X143292285Y-70702714D01*
X143038285Y-71392142D02*
X143002000Y-71428428D01*
X143038285Y-71464714D01*
X143074571Y-71428428D01*
X143038285Y-71392142D01*
X143038285Y-71464714D01*
X143038285Y-70993000D02*
X143002000Y-71029285D01*
X143038285Y-71065571D01*
X143074571Y-71029285D01*
X143038285Y-70993000D01*
X143038285Y-71065571D01*
X142094857Y-71464714D02*
X142094857Y-70702714D01*
X141840857Y-71247000D01*
X141586857Y-70702714D01*
X141586857Y-71464714D01*
X141260285Y-71247000D02*
X140897428Y-71247000D01*
X141332857Y-71464714D02*
X141078857Y-70702714D01*
X140824857Y-71464714D01*
X140135428Y-71464714D02*
X140389428Y-71101857D01*
X140570857Y-71464714D02*
X140570857Y-70702714D01*
X140280571Y-70702714D01*
X140208000Y-70739000D01*
X140171714Y-70775285D01*
X140135428Y-70847857D01*
X140135428Y-70956714D01*
X140171714Y-71029285D01*
X140208000Y-71065571D01*
X140280571Y-71101857D01*
X140570857Y-71101857D01*
X139808857Y-71464714D02*
X139808857Y-70702714D01*
X139300857Y-70702714D02*
X139155714Y-70702714D01*
X139083142Y-70739000D01*
X139010571Y-70811571D01*
X138974285Y-70956714D01*
X138974285Y-71210714D01*
X139010571Y-71355857D01*
X139083142Y-71428428D01*
X139155714Y-71464714D01*
X139300857Y-71464714D01*
X139373428Y-71428428D01*
X139446000Y-71355857D01*
X139482285Y-71210714D01*
X139482285Y-70956714D01*
X139446000Y-70811571D01*
X139373428Y-70739000D01*
X139300857Y-70702714D01*
X137922000Y-70702714D02*
X137776857Y-70702714D01*
X137704285Y-70739000D01*
X137631714Y-70811571D01*
X137595428Y-70956714D01*
X137595428Y-71210714D01*
X137631714Y-71355857D01*
X137704285Y-71428428D01*
X137776857Y-71464714D01*
X137922000Y-71464714D01*
X137994571Y-71428428D01*
X138067142Y-71355857D01*
X138103428Y-71210714D01*
X138103428Y-70956714D01*
X138067142Y-70811571D01*
X137994571Y-70739000D01*
X137922000Y-70702714D01*
X136906000Y-71464714D02*
X137268857Y-71464714D01*
X137268857Y-70702714D01*
X136652000Y-71065571D02*
X136398000Y-71065571D01*
X136289142Y-71464714D02*
X136652000Y-71464714D01*
X136652000Y-70702714D01*
X136289142Y-70702714D01*
X136071428Y-70702714D02*
X135636000Y-70702714D01*
X135853714Y-71464714D02*
X135853714Y-70702714D01*
X135382000Y-71464714D02*
X135382000Y-70702714D01*
X134583714Y-71392142D02*
X134620000Y-71428428D01*
X134728857Y-71464714D01*
X134801428Y-71464714D01*
X134910285Y-71428428D01*
X134982857Y-71355857D01*
X135019142Y-71283285D01*
X135055428Y-71138142D01*
X135055428Y-71029285D01*
X135019142Y-70884142D01*
X134982857Y-70811571D01*
X134910285Y-70739000D01*
X134801428Y-70702714D01*
X134728857Y-70702714D01*
X134620000Y-70739000D01*
X134583714Y-70775285D01*
X134692571Y-70412428D02*
X134801428Y-70521285D01*
X134220857Y-71428428D02*
X134220857Y-71464714D01*
X134257142Y-71537285D01*
X134293428Y-71573571D01*
X133313714Y-71464714D02*
X133313714Y-70956714D01*
X133313714Y-71029285D02*
X133277428Y-70993000D01*
X133204857Y-70956714D01*
X133096000Y-70956714D01*
X133023428Y-70993000D01*
X132987142Y-71065571D01*
X132987142Y-71464714D01*
X132987142Y-71065571D02*
X132950857Y-70993000D01*
X132878285Y-70956714D01*
X132769428Y-70956714D01*
X132696857Y-70993000D01*
X132660571Y-71065571D01*
X132660571Y-71464714D01*
X131971142Y-71464714D02*
X131971142Y-71065571D01*
X132007428Y-70993000D01*
X132080000Y-70956714D01*
X132225142Y-70956714D01*
X132297714Y-70993000D01*
X131971142Y-71428428D02*
X132043714Y-71464714D01*
X132225142Y-71464714D01*
X132297714Y-71428428D01*
X132334000Y-71355857D01*
X132334000Y-71283285D01*
X132297714Y-71210714D01*
X132225142Y-71174428D01*
X132043714Y-71174428D01*
X131971142Y-71138142D01*
X131281714Y-70956714D02*
X131281714Y-71573571D01*
X131318000Y-71646142D01*
X131354285Y-71682428D01*
X131426857Y-71718714D01*
X131535714Y-71718714D01*
X131608285Y-71682428D01*
X131281714Y-71428428D02*
X131354285Y-71464714D01*
X131499428Y-71464714D01*
X131572000Y-71428428D01*
X131608285Y-71392142D01*
X131644571Y-71319571D01*
X131644571Y-71101857D01*
X131608285Y-71029285D01*
X131572000Y-70993000D01*
X131499428Y-70956714D01*
X131354285Y-70956714D01*
X131281714Y-70993000D01*
X130918857Y-71392142D02*
X130882571Y-71428428D01*
X130918857Y-71464714D01*
X130955142Y-71428428D01*
X130918857Y-71392142D01*
X130918857Y-71464714D01*
X130556000Y-71464714D02*
X130556000Y-70956714D01*
X130556000Y-70702714D02*
X130592285Y-70739000D01*
X130556000Y-70775285D01*
X130519714Y-70739000D01*
X130556000Y-70702714D01*
X130556000Y-70775285D01*
X130193142Y-70956714D02*
X130193142Y-71464714D01*
X130193142Y-71029285D02*
X130156857Y-70993000D01*
X130084285Y-70956714D01*
X129975428Y-70956714D01*
X129902857Y-70993000D01*
X129866571Y-71065571D01*
X129866571Y-71464714D01*
X129177142Y-70956714D02*
X129177142Y-71573571D01*
X129213428Y-71646142D01*
X129249714Y-71682428D01*
X129322285Y-71718714D01*
X129431142Y-71718714D01*
X129503714Y-71682428D01*
X129177142Y-71428428D02*
X129249714Y-71464714D01*
X129394857Y-71464714D01*
X129467428Y-71428428D01*
X129503714Y-71392142D01*
X129540000Y-71319571D01*
X129540000Y-71101857D01*
X129503714Y-71029285D01*
X129467428Y-70993000D01*
X129394857Y-70956714D01*
X129249714Y-70956714D01*
X129177142Y-70993000D01*
X128814285Y-71392142D02*
X128778000Y-71428428D01*
X128814285Y-71464714D01*
X128850571Y-71428428D01*
X128814285Y-71392142D01*
X128814285Y-71464714D01*
X148789571Y-126328714D02*
X148789571Y-125566714D01*
X148789571Y-125929571D02*
X148354142Y-125929571D01*
X148354142Y-126328714D02*
X148354142Y-125566714D01*
X148063857Y-125566714D02*
X147882428Y-126328714D01*
X147737285Y-125784428D01*
X147592142Y-126328714D01*
X147410714Y-125566714D01*
X146104428Y-126328714D02*
X146358428Y-125965857D01*
X146539857Y-126328714D02*
X146539857Y-125566714D01*
X146249571Y-125566714D01*
X146177000Y-125603000D01*
X146140714Y-125639285D01*
X146104428Y-125711857D01*
X146104428Y-125820714D01*
X146140714Y-125893285D01*
X146177000Y-125929571D01*
X146249571Y-125965857D01*
X146539857Y-125965857D01*
X145777857Y-125929571D02*
X145523857Y-125929571D01*
X145415000Y-126328714D02*
X145777857Y-126328714D01*
X145777857Y-125566714D01*
X145415000Y-125566714D01*
X145197285Y-125566714D02*
X144943285Y-126328714D01*
X144689285Y-125566714D01*
X144435285Y-126256142D02*
X144399000Y-126292428D01*
X144435285Y-126328714D01*
X144471571Y-126292428D01*
X144435285Y-126256142D01*
X144435285Y-126328714D01*
X143092714Y-126328714D02*
X143528142Y-126328714D01*
X143310428Y-126328714D02*
X143310428Y-125566714D01*
X143383000Y-125675571D01*
X143455571Y-125748142D01*
X143528142Y-125784428D01*
X142766142Y-126256142D02*
X142729857Y-126292428D01*
X142766142Y-126328714D01*
X142802428Y-126292428D01*
X142766142Y-126256142D01*
X142766142Y-126328714D01*
X142258142Y-125566714D02*
X142185571Y-125566714D01*
X142113000Y-125603000D01*
X142076714Y-125639285D01*
X142040428Y-125711857D01*
X142004142Y-125857000D01*
X142004142Y-126038428D01*
X142040428Y-126183571D01*
X142076714Y-126256142D01*
X142113000Y-126292428D01*
X142185571Y-126328714D01*
X142258142Y-126328714D01*
X142330714Y-126292428D01*
X142367000Y-126256142D01*
X142403285Y-126183571D01*
X142439571Y-126038428D01*
X142439571Y-125857000D01*
X142403285Y-125711857D01*
X142367000Y-125639285D01*
X142330714Y-125603000D01*
X142258142Y-125566714D01*
X149352000Y-105754714D02*
X149352000Y-104992714D01*
X148989142Y-105754714D02*
X148989142Y-104992714D01*
X148553714Y-105754714D01*
X148553714Y-104992714D01*
X147864285Y-105246714D02*
X147864285Y-105754714D01*
X148045714Y-104956428D02*
X148227142Y-105500714D01*
X147755428Y-105500714D01*
X149352000Y-108294714D02*
X149352000Y-107532714D01*
X148989142Y-108294714D02*
X148989142Y-107532714D01*
X148553714Y-108294714D01*
X148553714Y-107532714D01*
X148263428Y-107532714D02*
X147791714Y-107532714D01*
X148045714Y-107823000D01*
X147936857Y-107823000D01*
X147864285Y-107859285D01*
X147828000Y-107895571D01*
X147791714Y-107968142D01*
X147791714Y-108149571D01*
X147828000Y-108222142D01*
X147864285Y-108258428D01*
X147936857Y-108294714D01*
X148154571Y-108294714D01*
X148227142Y-108258428D01*
X148263428Y-108222142D01*
X149442714Y-110834714D02*
X149442714Y-110072714D01*
X149007285Y-110834714D01*
X149007285Y-110072714D01*
X148209000Y-110762142D02*
X148245285Y-110798428D01*
X148354142Y-110834714D01*
X148426714Y-110834714D01*
X148535571Y-110798428D01*
X148608142Y-110725857D01*
X148644428Y-110653285D01*
X148680714Y-110508142D01*
X148680714Y-110399285D01*
X148644428Y-110254142D01*
X148608142Y-110181571D01*
X148535571Y-110109000D01*
X148426714Y-110072714D01*
X148354142Y-110072714D01*
X148245285Y-110109000D01*
X148209000Y-110145285D01*
X149442714Y-113374714D02*
X149442714Y-112612714D01*
X149007285Y-113374714D01*
X149007285Y-112612714D01*
X148209000Y-113302142D02*
X148245285Y-113338428D01*
X148354142Y-113374714D01*
X148426714Y-113374714D01*
X148535571Y-113338428D01*
X148608142Y-113265857D01*
X148644428Y-113193285D01*
X148680714Y-113048142D01*
X148680714Y-112939285D01*
X148644428Y-112794142D01*
X148608142Y-112721571D01*
X148535571Y-112649000D01*
X148426714Y-112612714D01*
X148354142Y-112612714D01*
X148245285Y-112649000D01*
X148209000Y-112685285D01*
X149442714Y-115914714D02*
X149442714Y-115152714D01*
X149007285Y-115914714D01*
X149007285Y-115152714D01*
X148209000Y-115842142D02*
X148245285Y-115878428D01*
X148354142Y-115914714D01*
X148426714Y-115914714D01*
X148535571Y-115878428D01*
X148608142Y-115805857D01*
X148644428Y-115733285D01*
X148680714Y-115588142D01*
X148680714Y-115479285D01*
X148644428Y-115334142D01*
X148608142Y-115261571D01*
X148535571Y-115189000D01*
X148426714Y-115152714D01*
X148354142Y-115152714D01*
X148245285Y-115189000D01*
X148209000Y-115225285D01*
X149442714Y-118454714D02*
X149442714Y-117692714D01*
X149007285Y-118454714D01*
X149007285Y-117692714D01*
X148209000Y-118382142D02*
X148245285Y-118418428D01*
X148354142Y-118454714D01*
X148426714Y-118454714D01*
X148535571Y-118418428D01*
X148608142Y-118345857D01*
X148644428Y-118273285D01*
X148680714Y-118128142D01*
X148680714Y-118019285D01*
X148644428Y-117874142D01*
X148608142Y-117801571D01*
X148535571Y-117729000D01*
X148426714Y-117692714D01*
X148354142Y-117692714D01*
X148245285Y-117729000D01*
X148209000Y-117765285D01*
X148989142Y-120232714D02*
X149352000Y-120232714D01*
X149388285Y-120595571D01*
X149352000Y-120559285D01*
X149279428Y-120523000D01*
X149098000Y-120523000D01*
X149025428Y-120559285D01*
X148989142Y-120595571D01*
X148952857Y-120668142D01*
X148952857Y-120849571D01*
X148989142Y-120922142D01*
X149025428Y-120958428D01*
X149098000Y-120994714D01*
X149279428Y-120994714D01*
X149352000Y-120958428D01*
X149388285Y-120922142D01*
X148735142Y-120232714D02*
X148481142Y-120994714D01*
X148227142Y-120232714D01*
X148916571Y-122809000D02*
X148989142Y-122772714D01*
X149098000Y-122772714D01*
X149206857Y-122809000D01*
X149279428Y-122881571D01*
X149315714Y-122954142D01*
X149352000Y-123099285D01*
X149352000Y-123208142D01*
X149315714Y-123353285D01*
X149279428Y-123425857D01*
X149206857Y-123498428D01*
X149098000Y-123534714D01*
X149025428Y-123534714D01*
X148916571Y-123498428D01*
X148880285Y-123462142D01*
X148880285Y-123208142D01*
X149025428Y-123208142D01*
X148553714Y-123534714D02*
X148553714Y-122772714D01*
X148118285Y-123534714D01*
X148118285Y-122772714D01*
X147755428Y-123534714D02*
X147755428Y-122772714D01*
X147574000Y-122772714D01*
X147465142Y-122809000D01*
X147392571Y-122881571D01*
X147356285Y-122954142D01*
X147320000Y-123099285D01*
X147320000Y-123208142D01*
X147356285Y-123353285D01*
X147392571Y-123425857D01*
X147465142Y-123498428D01*
X147574000Y-123534714D01*
X147755428Y-123534714D01*
X131644571Y-122809000D02*
X131717142Y-122772714D01*
X131826000Y-122772714D01*
X131934857Y-122809000D01*
X132007428Y-122881571D01*
X132043714Y-122954142D01*
X132080000Y-123099285D01*
X132080000Y-123208142D01*
X132043714Y-123353285D01*
X132007428Y-123425857D01*
X131934857Y-123498428D01*
X131826000Y-123534714D01*
X131753428Y-123534714D01*
X131644571Y-123498428D01*
X131608285Y-123462142D01*
X131608285Y-123208142D01*
X131753428Y-123208142D01*
X131281714Y-123534714D02*
X131281714Y-122772714D01*
X130846285Y-123534714D01*
X130846285Y-122772714D01*
X130483428Y-123534714D02*
X130483428Y-122772714D01*
X130302000Y-122772714D01*
X130193142Y-122809000D01*
X130120571Y-122881571D01*
X130084285Y-122954142D01*
X130048000Y-123099285D01*
X130048000Y-123208142D01*
X130084285Y-123353285D01*
X130120571Y-123425857D01*
X130193142Y-123498428D01*
X130302000Y-123534714D01*
X130483428Y-123534714D01*
X132007428Y-120232714D02*
X131535714Y-120232714D01*
X131789714Y-120523000D01*
X131680857Y-120523000D01*
X131608285Y-120559285D01*
X131572000Y-120595571D01*
X131535714Y-120668142D01*
X131535714Y-120849571D01*
X131572000Y-120922142D01*
X131608285Y-120958428D01*
X131680857Y-120994714D01*
X131898571Y-120994714D01*
X131971142Y-120958428D01*
X132007428Y-120922142D01*
X131318000Y-120232714D02*
X131064000Y-120994714D01*
X130810000Y-120232714D01*
X130628571Y-120232714D02*
X130156857Y-120232714D01*
X130410857Y-120523000D01*
X130302000Y-120523000D01*
X130229428Y-120559285D01*
X130193142Y-120595571D01*
X130156857Y-120668142D01*
X130156857Y-120849571D01*
X130193142Y-120922142D01*
X130229428Y-120958428D01*
X130302000Y-120994714D01*
X130519714Y-120994714D01*
X130592285Y-120958428D01*
X130628571Y-120922142D01*
X131408714Y-118454714D02*
X131408714Y-117692714D01*
X130973285Y-118454714D01*
X130973285Y-117692714D01*
X130175000Y-118382142D02*
X130211285Y-118418428D01*
X130320142Y-118454714D01*
X130392714Y-118454714D01*
X130501571Y-118418428D01*
X130574142Y-118345857D01*
X130610428Y-118273285D01*
X130646714Y-118128142D01*
X130646714Y-118019285D01*
X130610428Y-117874142D01*
X130574142Y-117801571D01*
X130501571Y-117729000D01*
X130392714Y-117692714D01*
X130320142Y-117692714D01*
X130211285Y-117729000D01*
X130175000Y-117765285D01*
X131408714Y-115914714D02*
X131408714Y-115152714D01*
X130973285Y-115914714D01*
X130973285Y-115152714D01*
X130175000Y-115842142D02*
X130211285Y-115878428D01*
X130320142Y-115914714D01*
X130392714Y-115914714D01*
X130501571Y-115878428D01*
X130574142Y-115805857D01*
X130610428Y-115733285D01*
X130646714Y-115588142D01*
X130646714Y-115479285D01*
X130610428Y-115334142D01*
X130574142Y-115261571D01*
X130501571Y-115189000D01*
X130392714Y-115152714D01*
X130320142Y-115152714D01*
X130211285Y-115189000D01*
X130175000Y-115225285D01*
X131408714Y-113374714D02*
X131408714Y-112612714D01*
X130973285Y-113374714D01*
X130973285Y-112612714D01*
X130175000Y-113302142D02*
X130211285Y-113338428D01*
X130320142Y-113374714D01*
X130392714Y-113374714D01*
X130501571Y-113338428D01*
X130574142Y-113265857D01*
X130610428Y-113193285D01*
X130646714Y-113048142D01*
X130646714Y-112939285D01*
X130610428Y-112794142D01*
X130574142Y-112721571D01*
X130501571Y-112649000D01*
X130392714Y-112612714D01*
X130320142Y-112612714D01*
X130211285Y-112649000D01*
X130175000Y-112685285D01*
X131826000Y-110834714D02*
X131826000Y-110072714D01*
X131463142Y-110834714D02*
X131463142Y-110072714D01*
X131027714Y-110834714D01*
X131027714Y-110072714D01*
X130701142Y-110145285D02*
X130664857Y-110109000D01*
X130592285Y-110072714D01*
X130410857Y-110072714D01*
X130338285Y-110109000D01*
X130302000Y-110145285D01*
X130265714Y-110217857D01*
X130265714Y-110290428D01*
X130302000Y-110399285D01*
X130737428Y-110834714D01*
X130265714Y-110834714D01*
X131826000Y-108294714D02*
X131826000Y-107532714D01*
X131463142Y-108294714D02*
X131463142Y-107532714D01*
X131027714Y-108294714D01*
X131027714Y-107532714D01*
X130265714Y-108294714D02*
X130701142Y-108294714D01*
X130483428Y-108294714D02*
X130483428Y-107532714D01*
X130556000Y-107641571D01*
X130628571Y-107714142D01*
X130701142Y-107750428D01*
X131408714Y-105754714D02*
X131408714Y-104992714D01*
X130973285Y-105754714D01*
X130973285Y-104992714D01*
X130175000Y-105682142D02*
X130211285Y-105718428D01*
X130320142Y-105754714D01*
X130392714Y-105754714D01*
X130501571Y-105718428D01*
X130574142Y-105645857D01*
X130610428Y-105573285D01*
X130646714Y-105428142D01*
X130646714Y-105319285D01*
X130610428Y-105174142D01*
X130574142Y-105101571D01*
X130501571Y-105029000D01*
X130392714Y-104992714D01*
X130320142Y-104992714D01*
X130211285Y-105029000D01*
X130175000Y-105065285D01*
D11*
G36*
X137298546Y-116736091D02*
G01*
X137483273Y-116736091D01*
X137483273Y-116551364D01*
X137298546Y-116551364D01*
X137298546Y-116736091D01*
G37*
X137298546Y-116736091D02*
X137483273Y-116736091D01*
X137483273Y-116551364D01*
X137298546Y-116551364D01*
X137298546Y-116736091D01*
G36*
X137298546Y-118398636D02*
G01*
X137483273Y-118398636D01*
X137483273Y-118213909D01*
X137298546Y-118213909D01*
X137298546Y-118398636D01*
G37*
X137298546Y-118398636D02*
X137483273Y-118398636D01*
X137483273Y-118213909D01*
X137298546Y-118213909D01*
X137298546Y-118398636D01*
G36*
X140341554Y-116460403D02*
G01*
X140305063Y-116464450D01*
X140249657Y-116470900D01*
X140177333Y-116479512D01*
X140090086Y-116490043D01*
X139989915Y-116502254D01*
X139878817Y-116515901D01*
X139758788Y-116530745D01*
X139631826Y-116546542D01*
X139593225Y-116551364D01*
X139465081Y-116567363D01*
X139343660Y-116582485D01*
X139230908Y-116596488D01*
X139128771Y-116609133D01*
X139039197Y-116620179D01*
X138964132Y-116629388D01*
X138905523Y-116636518D01*
X138865317Y-116641331D01*
X138845461Y-116643585D01*
X138843731Y-116643727D01*
X138829045Y-116651199D01*
X138807364Y-116669450D01*
X138804703Y-116672066D01*
X138794883Y-116682490D01*
X138787642Y-116693582D01*
X138782588Y-116708789D01*
X138779327Y-116731561D01*
X138777466Y-116765346D01*
X138776613Y-116813592D01*
X138776375Y-116879749D01*
X138776364Y-116920818D01*
X138776442Y-116997271D01*
X138776937Y-117054082D01*
X138778242Y-117094699D01*
X138780751Y-117122571D01*
X138784855Y-117141147D01*
X138790949Y-117153874D01*
X138799424Y-117164203D01*
X138804703Y-117169570D01*
X138833041Y-117197909D01*
X140382232Y-117197909D01*
X140410570Y-117169570D01*
X140438909Y-117141231D01*
X140438909Y-117013182D01*
X140254182Y-117013182D01*
X138961091Y-117013182D01*
X138961091Y-116915045D01*
X138961849Y-116870696D01*
X138963873Y-116836778D01*
X138966785Y-116818593D01*
X138968072Y-116816909D01*
X138981499Y-116815513D01*
X139015256Y-116811540D01*
X139066768Y-116805312D01*
X139133455Y-116797153D01*
X139212742Y-116787383D01*
X139302051Y-116776325D01*
X139398804Y-116764303D01*
X139500424Y-116751637D01*
X139604335Y-116738651D01*
X139707959Y-116725667D01*
X139808718Y-116713006D01*
X139904035Y-116700993D01*
X139991333Y-116689948D01*
X140068036Y-116680194D01*
X140131564Y-116672054D01*
X140179342Y-116665850D01*
X140208792Y-116661904D01*
X140216659Y-116660743D01*
X140254182Y-116654226D01*
X140254182Y-117013182D01*
X140438909Y-117013182D01*
X140438909Y-116515678D01*
X140410570Y-116487339D01*
X140384051Y-116467790D01*
X140358395Y-116459034D01*
X140357131Y-116459000D01*
X140341554Y-116460403D01*
G37*
X140341554Y-116460403D02*
X140305063Y-116464450D01*
X140249657Y-116470900D01*
X140177333Y-116479512D01*
X140090086Y-116490043D01*
X139989915Y-116502254D01*
X139878817Y-116515901D01*
X139758788Y-116530745D01*
X139631826Y-116546542D01*
X139593225Y-116551364D01*
X139465081Y-116567363D01*
X139343660Y-116582485D01*
X139230908Y-116596488D01*
X139128771Y-116609133D01*
X139039197Y-116620179D01*
X138964132Y-116629388D01*
X138905523Y-116636518D01*
X138865317Y-116641331D01*
X138845461Y-116643585D01*
X138843731Y-116643727D01*
X138829045Y-116651199D01*
X138807364Y-116669450D01*
X138804703Y-116672066D01*
X138794883Y-116682490D01*
X138787642Y-116693582D01*
X138782588Y-116708789D01*
X138779327Y-116731561D01*
X138777466Y-116765346D01*
X138776613Y-116813592D01*
X138776375Y-116879749D01*
X138776364Y-116920818D01*
X138776442Y-116997271D01*
X138776937Y-117054082D01*
X138778242Y-117094699D01*
X138780751Y-117122571D01*
X138784855Y-117141147D01*
X138790949Y-117153874D01*
X138799424Y-117164203D01*
X138804703Y-117169570D01*
X138833041Y-117197909D01*
X140382232Y-117197909D01*
X140410570Y-117169570D01*
X140438909Y-117141231D01*
X140438909Y-117013182D01*
X140254182Y-117013182D01*
X138961091Y-117013182D01*
X138961091Y-116915045D01*
X138961849Y-116870696D01*
X138963873Y-116836778D01*
X138966785Y-116818593D01*
X138968072Y-116816909D01*
X138981499Y-116815513D01*
X139015256Y-116811540D01*
X139066768Y-116805312D01*
X139133455Y-116797153D01*
X139212742Y-116787383D01*
X139302051Y-116776325D01*
X139398804Y-116764303D01*
X139500424Y-116751637D01*
X139604335Y-116738651D01*
X139707959Y-116725667D01*
X139808718Y-116713006D01*
X139904035Y-116700993D01*
X139991333Y-116689948D01*
X140068036Y-116680194D01*
X140131564Y-116672054D01*
X140179342Y-116665850D01*
X140208792Y-116661904D01*
X140216659Y-116660743D01*
X140254182Y-116654226D01*
X140254182Y-117013182D01*
X140438909Y-117013182D01*
X140438909Y-116515678D01*
X140410570Y-116487339D01*
X140384051Y-116467790D01*
X140358395Y-116459034D01*
X140357131Y-116459000D01*
X140341554Y-116460403D01*
G36*
X138804703Y-117780430D02*
G01*
X138794883Y-117790854D01*
X138787642Y-117801945D01*
X138782588Y-117817153D01*
X138779327Y-117839925D01*
X138777466Y-117873710D01*
X138776613Y-117921956D01*
X138776375Y-117988113D01*
X138776364Y-118029182D01*
X138776442Y-118105635D01*
X138776937Y-118162446D01*
X138778242Y-118203063D01*
X138780751Y-118230935D01*
X138784855Y-118249510D01*
X138790949Y-118262238D01*
X138799424Y-118272566D01*
X138804703Y-118277934D01*
X138827255Y-118297117D01*
X138844526Y-118306167D01*
X138845727Y-118306273D01*
X138859106Y-118307672D01*
X138893440Y-118311711D01*
X138946774Y-118318148D01*
X139017154Y-118326742D01*
X139102623Y-118337254D01*
X139201226Y-118349441D01*
X139311009Y-118363065D01*
X139430016Y-118377883D01*
X139556292Y-118393655D01*
X139596091Y-118398636D01*
X139724592Y-118414680D01*
X139846727Y-118429839D01*
X139960500Y-118443872D01*
X140063917Y-118456537D01*
X140154980Y-118467593D01*
X140231696Y-118476797D01*
X140292067Y-118483907D01*
X140334100Y-118488682D01*
X140355797Y-118490879D01*
X140358000Y-118491000D01*
X140382539Y-118483155D01*
X140409075Y-118464124D01*
X140410570Y-118462661D01*
X140438909Y-118434322D01*
X140438909Y-117936818D01*
X140254182Y-117936818D01*
X140254182Y-118295773D01*
X140216659Y-118289254D01*
X140198171Y-118286594D01*
X140159067Y-118281388D01*
X140101647Y-118273928D01*
X140028209Y-118264507D01*
X139941054Y-118253418D01*
X139842480Y-118240956D01*
X139734788Y-118227412D01*
X139620277Y-118213082D01*
X139578841Y-118207912D01*
X139463631Y-118193573D01*
X139355355Y-118180135D01*
X139256173Y-118167865D01*
X139168246Y-118157027D01*
X139093733Y-118147888D01*
X139034795Y-118140713D01*
X138993591Y-118135766D01*
X138972282Y-118133314D01*
X138969818Y-118133091D01*
X138965874Y-118122431D01*
X138962858Y-118093985D01*
X138961241Y-118053053D01*
X138961091Y-118034954D01*
X138961091Y-117936818D01*
X140254182Y-117936818D01*
X140438909Y-117936818D01*
X140438909Y-117808768D01*
X140410570Y-117780430D01*
X140382232Y-117752091D01*
X138833041Y-117752091D01*
X138804703Y-117780430D01*
G37*
X138804703Y-117780430D02*
X138794883Y-117790854D01*
X138787642Y-117801945D01*
X138782588Y-117817153D01*
X138779327Y-117839925D01*
X138777466Y-117873710D01*
X138776613Y-117921956D01*
X138776375Y-117988113D01*
X138776364Y-118029182D01*
X138776442Y-118105635D01*
X138776937Y-118162446D01*
X138778242Y-118203063D01*
X138780751Y-118230935D01*
X138784855Y-118249510D01*
X138790949Y-118262238D01*
X138799424Y-118272566D01*
X138804703Y-118277934D01*
X138827255Y-118297117D01*
X138844526Y-118306167D01*
X138845727Y-118306273D01*
X138859106Y-118307672D01*
X138893440Y-118311711D01*
X138946774Y-118318148D01*
X139017154Y-118326742D01*
X139102623Y-118337254D01*
X139201226Y-118349441D01*
X139311009Y-118363065D01*
X139430016Y-118377883D01*
X139556292Y-118393655D01*
X139596091Y-118398636D01*
X139724592Y-118414680D01*
X139846727Y-118429839D01*
X139960500Y-118443872D01*
X140063917Y-118456537D01*
X140154980Y-118467593D01*
X140231696Y-118476797D01*
X140292067Y-118483907D01*
X140334100Y-118488682D01*
X140355797Y-118490879D01*
X140358000Y-118491000D01*
X140382539Y-118483155D01*
X140409075Y-118464124D01*
X140410570Y-118462661D01*
X140438909Y-118434322D01*
X140438909Y-117936818D01*
X140254182Y-117936818D01*
X140254182Y-118295773D01*
X140216659Y-118289254D01*
X140198171Y-118286594D01*
X140159067Y-118281388D01*
X140101647Y-118273928D01*
X140028209Y-118264507D01*
X139941054Y-118253418D01*
X139842480Y-118240956D01*
X139734788Y-118227412D01*
X139620277Y-118213082D01*
X139578841Y-118207912D01*
X139463631Y-118193573D01*
X139355355Y-118180135D01*
X139256173Y-118167865D01*
X139168246Y-118157027D01*
X139093733Y-118147888D01*
X139034795Y-118140713D01*
X138993591Y-118135766D01*
X138972282Y-118133314D01*
X138969818Y-118133091D01*
X138965874Y-118122431D01*
X138962858Y-118093985D01*
X138961241Y-118053053D01*
X138961091Y-118034954D01*
X138961091Y-117936818D01*
X140254182Y-117936818D01*
X140438909Y-117936818D01*
X140438909Y-117808768D01*
X140410570Y-117780430D01*
X140382232Y-117752091D01*
X138833041Y-117752091D01*
X138804703Y-117780430D01*
G36*
X139195951Y-115812461D02*
G01*
X138990914Y-115812491D01*
X138806626Y-115812559D01*
X138641917Y-115812683D01*
X138495616Y-115812876D01*
X138366553Y-115813156D01*
X138253557Y-115813537D01*
X138155457Y-115814036D01*
X138071082Y-115814668D01*
X137999263Y-115815448D01*
X137938827Y-115816393D01*
X137888606Y-115817518D01*
X137847427Y-115818839D01*
X137814120Y-115820371D01*
X137787515Y-115822130D01*
X137766441Y-115824131D01*
X137749727Y-115826392D01*
X137736203Y-115828926D01*
X137724698Y-115831750D01*
X137714041Y-115834880D01*
X137712512Y-115835355D01*
X137626784Y-115873512D01*
X137547440Y-115931116D01*
X137480472Y-116003230D01*
X137450918Y-116050462D01*
X137424234Y-116107984D01*
X137403598Y-116167418D01*
X137392188Y-116220385D01*
X137390909Y-116239405D01*
X137390122Y-116255103D01*
X137384673Y-116264870D01*
X137369932Y-116270512D01*
X137341265Y-116273836D01*
X137295659Y-116276561D01*
X137211917Y-116286601D01*
X137143136Y-116308310D01*
X137083037Y-116344302D01*
X137038469Y-116383651D01*
X136989405Y-116440274D01*
X136957627Y-116497466D01*
X136940426Y-116562041D01*
X136935094Y-116640813D01*
X136935089Y-116643727D01*
X136940076Y-116723082D01*
X136956843Y-116788017D01*
X136988098Y-116845344D01*
X137036550Y-116901877D01*
X137038469Y-116903804D01*
X137096160Y-116952654D01*
X137157669Y-116985195D01*
X137229276Y-117004044D01*
X137295659Y-117010894D01*
X137390909Y-117016077D01*
X137390909Y-117933922D01*
X137295659Y-117939106D01*
X137211917Y-117949147D01*
X137143136Y-117970856D01*
X137083037Y-118006848D01*
X137038469Y-118046196D01*
X136989405Y-118102819D01*
X136957627Y-118160011D01*
X136940426Y-118224587D01*
X136935094Y-118303358D01*
X136935089Y-118306273D01*
X136940076Y-118385628D01*
X136956843Y-118450562D01*
X136988098Y-118507889D01*
X137036550Y-118564422D01*
X137038469Y-118566349D01*
X137096160Y-118615199D01*
X137157669Y-118647741D01*
X137229276Y-118666589D01*
X137295659Y-118673439D01*
X137342299Y-118676241D01*
X137370512Y-118679606D01*
X137384931Y-118685339D01*
X137390186Y-118695247D01*
X137390909Y-118710595D01*
X137397277Y-118758089D01*
X137414263Y-118815722D01*
X137438688Y-118875113D01*
X137467376Y-118927883D01*
X137480472Y-118946769D01*
X137548682Y-119019982D01*
X137628173Y-119077292D01*
X137712512Y-119114645D01*
X137723122Y-119117816D01*
X137734398Y-119120679D01*
X137747509Y-119123249D01*
X137763622Y-119125542D01*
X137783908Y-119127574D01*
X137809536Y-119129358D01*
X137841674Y-119130911D01*
X137881492Y-119132247D01*
X137930158Y-119133382D01*
X137988843Y-119134330D01*
X138058714Y-119135108D01*
X138140941Y-119135730D01*
X138236693Y-119136211D01*
X138347139Y-119136566D01*
X138473449Y-119136812D01*
X138616790Y-119136962D01*
X138778333Y-119137032D01*
X138959246Y-119137037D01*
X139160699Y-119136993D01*
X139383860Y-119136914D01*
X139427012Y-119136897D01*
X139654392Y-119136799D01*
X139859847Y-119136684D01*
X140044543Y-119136535D01*
X140209646Y-119136338D01*
X140356321Y-119136077D01*
X140485735Y-119135736D01*
X140599053Y-119135299D01*
X140697442Y-119134752D01*
X140782066Y-119134078D01*
X140854092Y-119133261D01*
X140914686Y-119132287D01*
X140965014Y-119131139D01*
X141006241Y-119129803D01*
X141039534Y-119128262D01*
X141066058Y-119126500D01*
X141086979Y-119124503D01*
X141103464Y-119122255D01*
X141116677Y-119119739D01*
X141127785Y-119116941D01*
X141137409Y-119114020D01*
X141222681Y-119075120D01*
X141299899Y-119017615D01*
X141364968Y-118945649D01*
X141413791Y-118863366D01*
X141432009Y-118815943D01*
X141438536Y-118793261D01*
X141443702Y-118769783D01*
X141447663Y-118742566D01*
X141450576Y-118708668D01*
X141452596Y-118665147D01*
X141453882Y-118609061D01*
X141454589Y-118537468D01*
X141454875Y-118447426D01*
X141454909Y-118385875D01*
X141454909Y-118029182D01*
X141611298Y-118029182D01*
X141674388Y-118028988D01*
X141718704Y-118027965D01*
X141748559Y-118025452D01*
X141768270Y-118020785D01*
X141782150Y-118013304D01*
X141794515Y-118002346D01*
X141796025Y-118000843D01*
X141813497Y-117978634D01*
X141822025Y-117951790D01*
X141824360Y-117911407D01*
X141824364Y-117909083D01*
X141824364Y-117845661D01*
X142089095Y-117842171D01*
X142178933Y-117840844D01*
X142248869Y-117839018D01*
X142302087Y-117835946D01*
X142341773Y-117830874D01*
X142371114Y-117823054D01*
X142393296Y-117811735D01*
X142411504Y-117796165D01*
X142428924Y-117775595D01*
X142441332Y-117759190D01*
X142449156Y-117747417D01*
X142455053Y-117733726D01*
X142459294Y-117714884D01*
X142462148Y-117687660D01*
X142463888Y-117648820D01*
X142464784Y-117595132D01*
X142465106Y-117523365D01*
X142465136Y-117475000D01*
X142465014Y-117391907D01*
X142464468Y-117328673D01*
X142463445Y-117290273D01*
X142286182Y-117290273D01*
X142286182Y-117659727D01*
X141824364Y-117659727D01*
X141824364Y-117290273D01*
X142286182Y-117290273D01*
X142463445Y-117290273D01*
X142463226Y-117282065D01*
X142461018Y-117248850D01*
X142457574Y-117225796D01*
X142452622Y-117209671D01*
X142445891Y-117197243D01*
X142441332Y-117190810D01*
X142422715Y-117166587D01*
X142405382Y-117147853D01*
X142386145Y-117133857D01*
X142361819Y-117123848D01*
X142329219Y-117117076D01*
X142285158Y-117112789D01*
X142226449Y-117110239D01*
X142149908Y-117108673D01*
X142089095Y-117107828D01*
X141915871Y-117105545D01*
X141639636Y-117105545D01*
X141639636Y-117844454D01*
X141454909Y-117844454D01*
X141454909Y-117475000D01*
X141264409Y-117475000D01*
X141264397Y-117674232D01*
X141264345Y-117851681D01*
X141264233Y-118008654D01*
X141264039Y-118146457D01*
X141263742Y-118266399D01*
X141263321Y-118369786D01*
X141262753Y-118457927D01*
X141262018Y-118532127D01*
X141261094Y-118593695D01*
X141259960Y-118643937D01*
X141258595Y-118684161D01*
X141256976Y-118715675D01*
X141255084Y-118739785D01*
X141252896Y-118757799D01*
X141250391Y-118771025D01*
X141247547Y-118780768D01*
X141244344Y-118788338D01*
X141242887Y-118791182D01*
X141193945Y-118860616D01*
X141130989Y-118911807D01*
X141062439Y-118942031D01*
X141038473Y-118945970D01*
X140998213Y-118949230D01*
X140948457Y-118951339D01*
X140920932Y-118951826D01*
X140808364Y-118952818D01*
X140808364Y-115997182D01*
X140623636Y-115997182D01*
X140623636Y-118952818D01*
X138591636Y-118952818D01*
X138591636Y-115997182D01*
X138406909Y-115997182D01*
X138406909Y-118952818D01*
X138129818Y-118952818D01*
X138129818Y-118675727D01*
X137945091Y-118675727D01*
X137945091Y-118955855D01*
X137861386Y-118950389D01*
X137794744Y-118941627D01*
X137741401Y-118925712D01*
X137731500Y-118921064D01*
X137665788Y-118874643D01*
X137616437Y-118812983D01*
X137585714Y-118739135D01*
X137581114Y-118718624D01*
X137573067Y-118675727D01*
X137945091Y-118675727D01*
X138129818Y-118675727D01*
X138129818Y-118491000D01*
X137945091Y-118491000D01*
X137603359Y-118491000D01*
X137502805Y-118490846D01*
X137422657Y-118490297D01*
X137360231Y-118489220D01*
X137312844Y-118487480D01*
X137277813Y-118484945D01*
X137252454Y-118481481D01*
X137234083Y-118476956D01*
X137221707Y-118472057D01*
X137170910Y-118436642D01*
X137136779Y-118389439D01*
X137119664Y-118334998D01*
X137119915Y-118277871D01*
X137137882Y-118222610D01*
X137173915Y-118173764D01*
X137197261Y-118154268D01*
X137208427Y-118146686D01*
X137220079Y-118140650D01*
X137234882Y-118135953D01*
X137255501Y-118132388D01*
X137284599Y-118129750D01*
X137324843Y-118127831D01*
X137378895Y-118126424D01*
X137449420Y-118125325D01*
X137539084Y-118124325D01*
X137590068Y-118123816D01*
X137945091Y-118120314D01*
X137945091Y-118491000D01*
X138129818Y-118491000D01*
X138129818Y-117013182D01*
X137945091Y-117013182D01*
X137945091Y-117936818D01*
X137575636Y-117936818D01*
X137575636Y-117013182D01*
X137945091Y-117013182D01*
X138129818Y-117013182D01*
X138129818Y-116459000D01*
X137945091Y-116459000D01*
X137945091Y-116828454D01*
X137603359Y-116828454D01*
X137502805Y-116828301D01*
X137422657Y-116827752D01*
X137360231Y-116826674D01*
X137312844Y-116824934D01*
X137277813Y-116822399D01*
X137252454Y-116818936D01*
X137234083Y-116814411D01*
X137221707Y-116809511D01*
X137188495Y-116787541D01*
X137156610Y-116757036D01*
X137150689Y-116749762D01*
X137131253Y-116719079D01*
X137122060Y-116687021D01*
X137119954Y-116644144D01*
X137129007Y-116579959D01*
X137156229Y-116529393D01*
X137202923Y-116490293D01*
X137218240Y-116481829D01*
X137232514Y-116475247D01*
X137248437Y-116470062D01*
X137268804Y-116466109D01*
X137296406Y-116463222D01*
X137334038Y-116461237D01*
X137384491Y-116459988D01*
X137450559Y-116459310D01*
X137535035Y-116459038D01*
X137604040Y-116459000D01*
X137945091Y-116459000D01*
X138129818Y-116459000D01*
X138129818Y-116274273D01*
X137945091Y-116274273D01*
X137573067Y-116274273D01*
X137581114Y-116231376D01*
X137606091Y-116153950D01*
X137648589Y-116091052D01*
X137707446Y-116043645D01*
X137781500Y-116012690D01*
X137861386Y-115999611D01*
X137945091Y-115994145D01*
X137945091Y-116274273D01*
X138129818Y-116274273D01*
X138129818Y-115997182D01*
X138406909Y-115997182D01*
X138591636Y-115997182D01*
X140623636Y-115997182D01*
X140808364Y-115997182D01*
X140808364Y-115994690D01*
X140938250Y-115999339D01*
X141001478Y-116002494D01*
X141047220Y-116007289D01*
X141081072Y-116014646D01*
X141108628Y-116025490D01*
X141114318Y-116028391D01*
X141180670Y-116076295D01*
X141233123Y-116141693D01*
X141242887Y-116158818D01*
X141246247Y-116165864D01*
X141249239Y-116174536D01*
X141251884Y-116186141D01*
X141254203Y-116201985D01*
X141256217Y-116223377D01*
X141257947Y-116251624D01*
X141259416Y-116288033D01*
X141260645Y-116333910D01*
X141261654Y-116390565D01*
X141262466Y-116459303D01*
X141263101Y-116541432D01*
X141263582Y-116638260D01*
X141263928Y-116751093D01*
X141264163Y-116881240D01*
X141264307Y-117030006D01*
X141264381Y-117198700D01*
X141264407Y-117388629D01*
X141264409Y-117475000D01*
X141454909Y-117475000D01*
X141454909Y-117105545D01*
X141639636Y-117105545D01*
X141915871Y-117105545D01*
X141824364Y-117104339D01*
X141824364Y-117040917D01*
X141822247Y-116999699D01*
X141814063Y-116972429D01*
X141797062Y-116950202D01*
X141796025Y-116949157D01*
X141783558Y-116937759D01*
X141770069Y-116929914D01*
X141751243Y-116924960D01*
X141722765Y-116922234D01*
X141680320Y-116921074D01*
X141619592Y-116920819D01*
X141611298Y-116920818D01*
X141454909Y-116920818D01*
X141454909Y-116564125D01*
X141454796Y-116462089D01*
X141454351Y-116380201D01*
X141453419Y-116315519D01*
X141451841Y-116265101D01*
X141449463Y-116226005D01*
X141446127Y-116195289D01*
X141441676Y-116170011D01*
X141435954Y-116147228D01*
X141432009Y-116134057D01*
X141393152Y-116046729D01*
X141335631Y-115968224D01*
X141263340Y-115902436D01*
X141180174Y-115853261D01*
X141133307Y-115835355D01*
X141122675Y-115832180D01*
X141111364Y-115829313D01*
X141098201Y-115826738D01*
X141082017Y-115824440D01*
X141061641Y-115822402D01*
X141035902Y-115820609D01*
X141003629Y-115819045D01*
X140963652Y-115817695D01*
X140914801Y-115816543D01*
X140855904Y-115815574D01*
X140785790Y-115814770D01*
X140703290Y-115814118D01*
X140607232Y-115813601D01*
X140496446Y-115813204D01*
X140369761Y-115812911D01*
X140226007Y-115812706D01*
X140064012Y-115812573D01*
X139882607Y-115812498D01*
X139680620Y-115812463D01*
X139456881Y-115812454D01*
X139422909Y-115812454D01*
X139195951Y-115812461D01*
G37*
X139195951Y-115812461D02*
X138990914Y-115812491D01*
X138806626Y-115812559D01*
X138641917Y-115812683D01*
X138495616Y-115812876D01*
X138366553Y-115813156D01*
X138253557Y-115813537D01*
X138155457Y-115814036D01*
X138071082Y-115814668D01*
X137999263Y-115815448D01*
X137938827Y-115816393D01*
X137888606Y-115817518D01*
X137847427Y-115818839D01*
X137814120Y-115820371D01*
X137787515Y-115822130D01*
X137766441Y-115824131D01*
X137749727Y-115826392D01*
X137736203Y-115828926D01*
X137724698Y-115831750D01*
X137714041Y-115834880D01*
X137712512Y-115835355D01*
X137626784Y-115873512D01*
X137547440Y-115931116D01*
X137480472Y-116003230D01*
X137450918Y-116050462D01*
X137424234Y-116107984D01*
X137403598Y-116167418D01*
X137392188Y-116220385D01*
X137390909Y-116239405D01*
X137390122Y-116255103D01*
X137384673Y-116264870D01*
X137369932Y-116270512D01*
X137341265Y-116273836D01*
X137295659Y-116276561D01*
X137211917Y-116286601D01*
X137143136Y-116308310D01*
X137083037Y-116344302D01*
X137038469Y-116383651D01*
X136989405Y-116440274D01*
X136957627Y-116497466D01*
X136940426Y-116562041D01*
X136935094Y-116640813D01*
X136935089Y-116643727D01*
X136940076Y-116723082D01*
X136956843Y-116788017D01*
X136988098Y-116845344D01*
X137036550Y-116901877D01*
X137038469Y-116903804D01*
X137096160Y-116952654D01*
X137157669Y-116985195D01*
X137229276Y-117004044D01*
X137295659Y-117010894D01*
X137390909Y-117016077D01*
X137390909Y-117933922D01*
X137295659Y-117939106D01*
X137211917Y-117949147D01*
X137143136Y-117970856D01*
X137083037Y-118006848D01*
X137038469Y-118046196D01*
X136989405Y-118102819D01*
X136957627Y-118160011D01*
X136940426Y-118224587D01*
X136935094Y-118303358D01*
X136935089Y-118306273D01*
X136940076Y-118385628D01*
X136956843Y-118450562D01*
X136988098Y-118507889D01*
X137036550Y-118564422D01*
X137038469Y-118566349D01*
X137096160Y-118615199D01*
X137157669Y-118647741D01*
X137229276Y-118666589D01*
X137295659Y-118673439D01*
X137342299Y-118676241D01*
X137370512Y-118679606D01*
X137384931Y-118685339D01*
X137390186Y-118695247D01*
X137390909Y-118710595D01*
X137397277Y-118758089D01*
X137414263Y-118815722D01*
X137438688Y-118875113D01*
X137467376Y-118927883D01*
X137480472Y-118946769D01*
X137548682Y-119019982D01*
X137628173Y-119077292D01*
X137712512Y-119114645D01*
X137723122Y-119117816D01*
X137734398Y-119120679D01*
X137747509Y-119123249D01*
X137763622Y-119125542D01*
X137783908Y-119127574D01*
X137809536Y-119129358D01*
X137841674Y-119130911D01*
X137881492Y-119132247D01*
X137930158Y-119133382D01*
X137988843Y-119134330D01*
X138058714Y-119135108D01*
X138140941Y-119135730D01*
X138236693Y-119136211D01*
X138347139Y-119136566D01*
X138473449Y-119136812D01*
X138616790Y-119136962D01*
X138778333Y-119137032D01*
X138959246Y-119137037D01*
X139160699Y-119136993D01*
X139383860Y-119136914D01*
X139427012Y-119136897D01*
X139654392Y-119136799D01*
X139859847Y-119136684D01*
X140044543Y-119136535D01*
X140209646Y-119136338D01*
X140356321Y-119136077D01*
X140485735Y-119135736D01*
X140599053Y-119135299D01*
X140697442Y-119134752D01*
X140782066Y-119134078D01*
X140854092Y-119133261D01*
X140914686Y-119132287D01*
X140965014Y-119131139D01*
X141006241Y-119129803D01*
X141039534Y-119128262D01*
X141066058Y-119126500D01*
X141086979Y-119124503D01*
X141103464Y-119122255D01*
X141116677Y-119119739D01*
X141127785Y-119116941D01*
X141137409Y-119114020D01*
X141222681Y-119075120D01*
X141299899Y-119017615D01*
X141364968Y-118945649D01*
X141413791Y-118863366D01*
X141432009Y-118815943D01*
X141438536Y-118793261D01*
X141443702Y-118769783D01*
X141447663Y-118742566D01*
X141450576Y-118708668D01*
X141452596Y-118665147D01*
X141453882Y-118609061D01*
X141454589Y-118537468D01*
X141454875Y-118447426D01*
X141454909Y-118385875D01*
X141454909Y-118029182D01*
X141611298Y-118029182D01*
X141674388Y-118028988D01*
X141718704Y-118027965D01*
X141748559Y-118025452D01*
X141768270Y-118020785D01*
X141782150Y-118013304D01*
X141794515Y-118002346D01*
X141796025Y-118000843D01*
X141813497Y-117978634D01*
X141822025Y-117951790D01*
X141824360Y-117911407D01*
X141824364Y-117909083D01*
X141824364Y-117845661D01*
X142089095Y-117842171D01*
X142178933Y-117840844D01*
X142248869Y-117839018D01*
X142302087Y-117835946D01*
X142341773Y-117830874D01*
X142371114Y-117823054D01*
X142393296Y-117811735D01*
X142411504Y-117796165D01*
X142428924Y-117775595D01*
X142441332Y-117759190D01*
X142449156Y-117747417D01*
X142455053Y-117733726D01*
X142459294Y-117714884D01*
X142462148Y-117687660D01*
X142463888Y-117648820D01*
X142464784Y-117595132D01*
X142465106Y-117523365D01*
X142465136Y-117475000D01*
X142465014Y-117391907D01*
X142464468Y-117328673D01*
X142463445Y-117290273D01*
X142286182Y-117290273D01*
X142286182Y-117659727D01*
X141824364Y-117659727D01*
X141824364Y-117290273D01*
X142286182Y-117290273D01*
X142463445Y-117290273D01*
X142463226Y-117282065D01*
X142461018Y-117248850D01*
X142457574Y-117225796D01*
X142452622Y-117209671D01*
X142445891Y-117197243D01*
X142441332Y-117190810D01*
X142422715Y-117166587D01*
X142405382Y-117147853D01*
X142386145Y-117133857D01*
X142361819Y-117123848D01*
X142329219Y-117117076D01*
X142285158Y-117112789D01*
X142226449Y-117110239D01*
X142149908Y-117108673D01*
X142089095Y-117107828D01*
X141915871Y-117105545D01*
X141639636Y-117105545D01*
X141639636Y-117844454D01*
X141454909Y-117844454D01*
X141454909Y-117475000D01*
X141264409Y-117475000D01*
X141264397Y-117674232D01*
X141264345Y-117851681D01*
X141264233Y-118008654D01*
X141264039Y-118146457D01*
X141263742Y-118266399D01*
X141263321Y-118369786D01*
X141262753Y-118457927D01*
X141262018Y-118532127D01*
X141261094Y-118593695D01*
X141259960Y-118643937D01*
X141258595Y-118684161D01*
X141256976Y-118715675D01*
X141255084Y-118739785D01*
X141252896Y-118757799D01*
X141250391Y-118771025D01*
X141247547Y-118780768D01*
X141244344Y-118788338D01*
X141242887Y-118791182D01*
X141193945Y-118860616D01*
X141130989Y-118911807D01*
X141062439Y-118942031D01*
X141038473Y-118945970D01*
X140998213Y-118949230D01*
X140948457Y-118951339D01*
X140920932Y-118951826D01*
X140808364Y-118952818D01*
X140808364Y-115997182D01*
X140623636Y-115997182D01*
X140623636Y-118952818D01*
X138591636Y-118952818D01*
X138591636Y-115997182D01*
X138406909Y-115997182D01*
X138406909Y-118952818D01*
X138129818Y-118952818D01*
X138129818Y-118675727D01*
X137945091Y-118675727D01*
X137945091Y-118955855D01*
X137861386Y-118950389D01*
X137794744Y-118941627D01*
X137741401Y-118925712D01*
X137731500Y-118921064D01*
X137665788Y-118874643D01*
X137616437Y-118812983D01*
X137585714Y-118739135D01*
X137581114Y-118718624D01*
X137573067Y-118675727D01*
X137945091Y-118675727D01*
X138129818Y-118675727D01*
X138129818Y-118491000D01*
X137945091Y-118491000D01*
X137603359Y-118491000D01*
X137502805Y-118490846D01*
X137422657Y-118490297D01*
X137360231Y-118489220D01*
X137312844Y-118487480D01*
X137277813Y-118484945D01*
X137252454Y-118481481D01*
X137234083Y-118476956D01*
X137221707Y-118472057D01*
X137170910Y-118436642D01*
X137136779Y-118389439D01*
X137119664Y-118334998D01*
X137119915Y-118277871D01*
X137137882Y-118222610D01*
X137173915Y-118173764D01*
X137197261Y-118154268D01*
X137208427Y-118146686D01*
X137220079Y-118140650D01*
X137234882Y-118135953D01*
X137255501Y-118132388D01*
X137284599Y-118129750D01*
X137324843Y-118127831D01*
X137378895Y-118126424D01*
X137449420Y-118125325D01*
X137539084Y-118124325D01*
X137590068Y-118123816D01*
X137945091Y-118120314D01*
X137945091Y-118491000D01*
X138129818Y-118491000D01*
X138129818Y-117013182D01*
X137945091Y-117013182D01*
X137945091Y-117936818D01*
X137575636Y-117936818D01*
X137575636Y-117013182D01*
X137945091Y-117013182D01*
X138129818Y-117013182D01*
X138129818Y-116459000D01*
X137945091Y-116459000D01*
X137945091Y-116828454D01*
X137603359Y-116828454D01*
X137502805Y-116828301D01*
X137422657Y-116827752D01*
X137360231Y-116826674D01*
X137312844Y-116824934D01*
X137277813Y-116822399D01*
X137252454Y-116818936D01*
X137234083Y-116814411D01*
X137221707Y-116809511D01*
X137188495Y-116787541D01*
X137156610Y-116757036D01*
X137150689Y-116749762D01*
X137131253Y-116719079D01*
X137122060Y-116687021D01*
X137119954Y-116644144D01*
X137129007Y-116579959D01*
X137156229Y-116529393D01*
X137202923Y-116490293D01*
X137218240Y-116481829D01*
X137232514Y-116475247D01*
X137248437Y-116470062D01*
X137268804Y-116466109D01*
X137296406Y-116463222D01*
X137334038Y-116461237D01*
X137384491Y-116459988D01*
X137450559Y-116459310D01*
X137535035Y-116459038D01*
X137604040Y-116459000D01*
X137945091Y-116459000D01*
X138129818Y-116459000D01*
X138129818Y-116274273D01*
X137945091Y-116274273D01*
X137573067Y-116274273D01*
X137581114Y-116231376D01*
X137606091Y-116153950D01*
X137648589Y-116091052D01*
X137707446Y-116043645D01*
X137781500Y-116012690D01*
X137861386Y-115999611D01*
X137945091Y-115994145D01*
X137945091Y-116274273D01*
X138129818Y-116274273D01*
X138129818Y-115997182D01*
X138406909Y-115997182D01*
X138591636Y-115997182D01*
X140623636Y-115997182D01*
X140808364Y-115997182D01*
X140808364Y-115994690D01*
X140938250Y-115999339D01*
X141001478Y-116002494D01*
X141047220Y-116007289D01*
X141081072Y-116014646D01*
X141108628Y-116025490D01*
X141114318Y-116028391D01*
X141180670Y-116076295D01*
X141233123Y-116141693D01*
X141242887Y-116158818D01*
X141246247Y-116165864D01*
X141249239Y-116174536D01*
X141251884Y-116186141D01*
X141254203Y-116201985D01*
X141256217Y-116223377D01*
X141257947Y-116251624D01*
X141259416Y-116288033D01*
X141260645Y-116333910D01*
X141261654Y-116390565D01*
X141262466Y-116459303D01*
X141263101Y-116541432D01*
X141263582Y-116638260D01*
X141263928Y-116751093D01*
X141264163Y-116881240D01*
X141264307Y-117030006D01*
X141264381Y-117198700D01*
X141264407Y-117388629D01*
X141264409Y-117475000D01*
X141454909Y-117475000D01*
X141454909Y-117105545D01*
X141639636Y-117105545D01*
X141915871Y-117105545D01*
X141824364Y-117104339D01*
X141824364Y-117040917D01*
X141822247Y-116999699D01*
X141814063Y-116972429D01*
X141797062Y-116950202D01*
X141796025Y-116949157D01*
X141783558Y-116937759D01*
X141770069Y-116929914D01*
X141751243Y-116924960D01*
X141722765Y-116922234D01*
X141680320Y-116921074D01*
X141619592Y-116920819D01*
X141611298Y-116920818D01*
X141454909Y-116920818D01*
X141454909Y-116564125D01*
X141454796Y-116462089D01*
X141454351Y-116380201D01*
X141453419Y-116315519D01*
X141451841Y-116265101D01*
X141449463Y-116226005D01*
X141446127Y-116195289D01*
X141441676Y-116170011D01*
X141435954Y-116147228D01*
X141432009Y-116134057D01*
X141393152Y-116046729D01*
X141335631Y-115968224D01*
X141263340Y-115902436D01*
X141180174Y-115853261D01*
X141133307Y-115835355D01*
X141122675Y-115832180D01*
X141111364Y-115829313D01*
X141098201Y-115826738D01*
X141082017Y-115824440D01*
X141061641Y-115822402D01*
X141035902Y-115820609D01*
X141003629Y-115819045D01*
X140963652Y-115817695D01*
X140914801Y-115816543D01*
X140855904Y-115815574D01*
X140785790Y-115814770D01*
X140703290Y-115814118D01*
X140607232Y-115813601D01*
X140496446Y-115813204D01*
X140369761Y-115812911D01*
X140226007Y-115812706D01*
X140064012Y-115812573D01*
X139882607Y-115812498D01*
X139680620Y-115812463D01*
X139456881Y-115812454D01*
X139422909Y-115812454D01*
X139195951Y-115812461D01*
G36*
X138112500Y-102749350D02*
G01*
X138118850Y-102755700D01*
X138125200Y-102749350D01*
X138118850Y-102743000D01*
X138112500Y-102749350D01*
G37*
X138112500Y-102749350D02*
X138118850Y-102755700D01*
X138125200Y-102749350D01*
X138118850Y-102743000D01*
X138112500Y-102749350D01*
G36*
X138436111Y-100644109D02*
G01*
X138438108Y-100653850D01*
X138447122Y-100670560D01*
X138450409Y-100672900D01*
X138454849Y-100662529D01*
X138455400Y-100653850D01*
X138448754Y-100636946D01*
X138443099Y-100634800D01*
X138436111Y-100644109D01*
G37*
X138436111Y-100644109D02*
X138438108Y-100653850D01*
X138447122Y-100670560D01*
X138450409Y-100672900D01*
X138454849Y-100662529D01*
X138455400Y-100653850D01*
X138448754Y-100636946D01*
X138443099Y-100634800D01*
X138436111Y-100644109D01*
G36*
X139704031Y-101288290D02*
G01*
X139712700Y-101293872D01*
X139738847Y-101304046D01*
X139769850Y-101312014D01*
X139807950Y-101319556D01*
X139769850Y-101301600D01*
X139741541Y-101290329D01*
X139717314Y-101283837D01*
X139702901Y-101282899D01*
X139704031Y-101288290D01*
G37*
X139704031Y-101288290D02*
X139712700Y-101293872D01*
X139738847Y-101304046D01*
X139769850Y-101312014D01*
X139807950Y-101319556D01*
X139769850Y-101301600D01*
X139741541Y-101290329D01*
X139717314Y-101283837D01*
X139702901Y-101282899D01*
X139704031Y-101288290D01*
G36*
X138864096Y-99985600D02*
G01*
X138821854Y-99999205D01*
X138757761Y-100032164D01*
X138690708Y-100081735D01*
X138628251Y-100141406D01*
X138577945Y-100204670D01*
X138571314Y-100215039D01*
X138545962Y-100251836D01*
X138521559Y-100280153D01*
X138508695Y-100290564D01*
X138484483Y-100297158D01*
X138443446Y-100302376D01*
X138394153Y-100305155D01*
X138390635Y-100305230D01*
X138318719Y-100307800D01*
X138269399Y-100312666D01*
X138239936Y-100320341D01*
X138227587Y-100331337D01*
X138226800Y-100335898D01*
X138238567Y-100359338D01*
X138270335Y-100378234D01*
X138316804Y-100390300D01*
X138360281Y-100393499D01*
X138405792Y-100395718D01*
X138435791Y-100404340D01*
X138459932Y-100422314D01*
X138462328Y-100424672D01*
X138483539Y-100450636D01*
X138493410Y-100472083D01*
X138493500Y-100473521D01*
X138484134Y-100509894D01*
X138461127Y-100548303D01*
X138432112Y-100576910D01*
X138423763Y-100581638D01*
X138399930Y-100595283D01*
X138394489Y-100611652D01*
X138404310Y-100640472D01*
X138404600Y-100641150D01*
X138412917Y-100658173D01*
X138415807Y-100651473D01*
X138416408Y-100637660D01*
X138426213Y-100613321D01*
X138448843Y-100596283D01*
X138476661Y-100588208D01*
X138502031Y-100590760D01*
X138517319Y-100605599D01*
X138518900Y-100615351D01*
X138512165Y-100632506D01*
X138506200Y-100634800D01*
X138494217Y-100624878D01*
X138493500Y-100619983D01*
X138488510Y-100611327D01*
X138485341Y-100613326D01*
X138485331Y-100628346D01*
X138492238Y-100639628D01*
X138500862Y-100662315D01*
X138499439Y-100689392D01*
X138490265Y-100711492D01*
X138475640Y-100719247D01*
X138472884Y-100718506D01*
X138458237Y-100715708D01*
X138458578Y-100726284D01*
X138474252Y-100753332D01*
X138477272Y-100757973D01*
X138492102Y-100793942D01*
X138495396Y-100827082D01*
X138499651Y-100864534D01*
X138511624Y-100891331D01*
X138527181Y-100926607D01*
X138531601Y-100954745D01*
X138542449Y-100990608D01*
X138569700Y-101017808D01*
X138594819Y-101041489D01*
X138607447Y-101063404D01*
X138607800Y-101066448D01*
X138597084Y-101096131D01*
X138571546Y-101115083D01*
X138558162Y-101117400D01*
X138539907Y-101125888D01*
X138510807Y-101148093D01*
X138478697Y-101177725D01*
X138423210Y-101232466D01*
X138379286Y-101273262D01*
X138341087Y-101304670D01*
X138302778Y-101331250D01*
X138258519Y-101357559D01*
X138224229Y-101376440D01*
X138162069Y-101412572D01*
X138119313Y-101443812D01*
X138091391Y-101473667D01*
X138085012Y-101483224D01*
X138058578Y-101521259D01*
X138024689Y-101563540D01*
X138009239Y-101580950D01*
X137968311Y-101626713D01*
X137931883Y-101670348D01*
X137903533Y-101707286D01*
X137886836Y-101732958D01*
X137883901Y-101741004D01*
X137876128Y-101755908D01*
X137856350Y-101782047D01*
X137842625Y-101798156D01*
X137810676Y-101840317D01*
X137771853Y-101901132D01*
X137728848Y-101975727D01*
X137684347Y-102059224D01*
X137641042Y-102146748D01*
X137601621Y-102233423D01*
X137598212Y-102241350D01*
X137581373Y-102274703D01*
X137554652Y-102321081D01*
X137522650Y-102372643D01*
X137507441Y-102395919D01*
X137469086Y-102457420D01*
X137444353Y-102507740D01*
X137429763Y-102554477D01*
X137426012Y-102573719D01*
X137419157Y-102664942D01*
X137427838Y-102753834D01*
X137451064Y-102831426D01*
X137455596Y-102841237D01*
X137477958Y-102874186D01*
X137515516Y-102916569D01*
X137562720Y-102963165D01*
X137614020Y-103008753D01*
X137663866Y-103048115D01*
X137703038Y-103073981D01*
X137768773Y-103112645D01*
X137811562Y-103140676D01*
X137831498Y-103158137D01*
X137833100Y-103161977D01*
X137841910Y-103172326D01*
X137869483Y-103180029D01*
X137917534Y-103185288D01*
X137987780Y-103188306D01*
X138063961Y-103189254D01*
X138138349Y-103190250D01*
X138190219Y-103193435D01*
X138222434Y-103199990D01*
X138237857Y-103211098D01*
X138239349Y-103227939D01*
X138229774Y-103251695D01*
X138227192Y-103256619D01*
X138217932Y-103286786D01*
X138226576Y-103314080D01*
X138238611Y-103341203D01*
X138254273Y-103382471D01*
X138266589Y-103418221D01*
X138291534Y-103494206D01*
X138247185Y-103543295D01*
X138207378Y-103600018D01*
X138192739Y-103654442D01*
X138203182Y-103707014D01*
X138212775Y-103725105D01*
X138234195Y-103782340D01*
X138238444Y-103854648D01*
X138227432Y-103929063D01*
X138222389Y-103970101D01*
X138231532Y-104006044D01*
X138240435Y-104024125D01*
X138259219Y-104079346D01*
X138264901Y-104137044D01*
X138268679Y-104186185D01*
X138278242Y-104233142D01*
X138283951Y-104249908D01*
X138296087Y-104292493D01*
X138302643Y-104341846D01*
X138303018Y-104354275D01*
X138305320Y-104395195D01*
X138311400Y-104450409D01*
X138320048Y-104509304D01*
X138322050Y-104521000D01*
X138331064Y-104579027D01*
X138337771Y-104635275D01*
X138340968Y-104679293D01*
X138341080Y-104686100D01*
X138345420Y-104730188D01*
X138357732Y-104793674D01*
X138376975Y-104872210D01*
X138402111Y-104961445D01*
X138422993Y-105029000D01*
X138435428Y-105074613D01*
X138447637Y-105130163D01*
X138453822Y-105164459D01*
X138463780Y-105213221D01*
X138476402Y-105257276D01*
X138485533Y-105279872D01*
X138496294Y-105312605D01*
X138504453Y-105359266D01*
X138507651Y-105398413D01*
X138513320Y-105458078D01*
X138524643Y-105522187D01*
X138533183Y-105556050D01*
X138547192Y-105609554D01*
X138561289Y-105673442D01*
X138571318Y-105727500D01*
X138582401Y-105782639D01*
X138599097Y-105850663D01*
X138618591Y-105920494D01*
X138628355Y-105952146D01*
X138646671Y-106011406D01*
X138662629Y-106066955D01*
X138674074Y-106111095D01*
X138678061Y-106129946D01*
X138688106Y-106174342D01*
X138702536Y-106222720D01*
X138705836Y-106232136D01*
X138719451Y-106302694D01*
X138717123Y-106337730D01*
X138714734Y-106379184D01*
X138725766Y-106411871D01*
X138735843Y-106427464D01*
X138747124Y-106446008D01*
X138754989Y-106467825D01*
X138760184Y-106497965D01*
X138763453Y-106541477D01*
X138765542Y-106603408D01*
X138766186Y-106633019D01*
X138767943Y-106697067D01*
X138770372Y-106752870D01*
X138773174Y-106795013D01*
X138776048Y-106818081D01*
X138776516Y-106819700D01*
X138782339Y-106843942D01*
X138788225Y-106880853D01*
X138789637Y-106892285D01*
X138800393Y-106935869D01*
X138819092Y-106974953D01*
X138823315Y-106980844D01*
X138842948Y-107016177D01*
X138843580Y-107054566D01*
X138843057Y-107057483D01*
X138835250Y-107099100D01*
X139423563Y-107099100D01*
X139414774Y-107070525D01*
X139406652Y-107040137D01*
X139397061Y-106999017D01*
X139394214Y-106985768D01*
X139382174Y-106945543D01*
X139366307Y-106912926D01*
X139361044Y-106905940D01*
X139350952Y-106888632D01*
X139343268Y-106859425D01*
X139337300Y-106814190D01*
X139332356Y-106748798D01*
X139331108Y-106727172D01*
X139326421Y-106662553D01*
X139320089Y-106603310D01*
X139312964Y-106556260D01*
X139306336Y-106529319D01*
X139298721Y-106498920D01*
X139295769Y-106456947D01*
X139297310Y-106398251D01*
X139300422Y-106351519D01*
X139306728Y-106236759D01*
X139309862Y-106101777D01*
X139309758Y-105951560D01*
X139307441Y-105829100D01*
X139306622Y-105783432D01*
X139305995Y-105719148D01*
X139305600Y-105643030D01*
X139305479Y-105561861D01*
X139305557Y-105512836D01*
X139305161Y-105439858D01*
X139303665Y-105375404D01*
X139301265Y-105323901D01*
X139298155Y-105289771D01*
X139295236Y-105277886D01*
X139287412Y-105257923D01*
X139279583Y-105222428D01*
X139276025Y-105198948D01*
X139272787Y-105155507D01*
X139277870Y-105126777D01*
X139291407Y-105104755D01*
X139315103Y-105084914D01*
X139338846Y-105086465D01*
X139364936Y-105110483D01*
X139392119Y-105151847D01*
X139421586Y-105196996D01*
X139458237Y-105245734D01*
X139478383Y-105269684D01*
X139510231Y-105306791D01*
X139537969Y-105341393D01*
X139550930Y-105359200D01*
X139568954Y-105385530D01*
X139595992Y-105424157D01*
X139626221Y-105466763D01*
X139626497Y-105467150D01*
X139652126Y-105503842D01*
X139668154Y-105531957D01*
X139676898Y-105559537D01*
X139680676Y-105594628D01*
X139681805Y-105645273D01*
X139681931Y-105659557D01*
X139682911Y-105775765D01*
X139734952Y-105834887D01*
X139770715Y-105880447D01*
X139796241Y-105926758D01*
X139813057Y-105979327D01*
X139822687Y-106043662D01*
X139826655Y-106125268D01*
X139827000Y-106167292D01*
X139829196Y-106258106D01*
X139835468Y-106335400D01*
X139845346Y-106393514D01*
X139846099Y-106396485D01*
X139853933Y-106439223D01*
X139860645Y-106503494D01*
X139866311Y-106590354D01*
X139871004Y-106700864D01*
X139873532Y-106784455D01*
X139881865Y-107099100D01*
X140376210Y-107099100D01*
X140372199Y-106721275D01*
X140371504Y-106624237D01*
X140371496Y-106534151D01*
X140372124Y-106454515D01*
X140373339Y-106388825D01*
X140375092Y-106340577D01*
X140377333Y-106313267D01*
X140378028Y-106309892D01*
X140378765Y-106266814D01*
X140366590Y-106235190D01*
X140351654Y-106186078D01*
X140354414Y-106148097D01*
X140359038Y-106113733D01*
X140362639Y-106066144D01*
X140365114Y-106011304D01*
X140366361Y-105955186D01*
X140366277Y-105903765D01*
X140364761Y-105863015D01*
X140361709Y-105838909D01*
X140359778Y-105835065D01*
X140355638Y-105820248D01*
X140354880Y-105788175D01*
X140356608Y-105758956D01*
X140358710Y-105714851D01*
X140353532Y-105684602D01*
X140338460Y-105657100D01*
X140329880Y-105645433D01*
X140308779Y-105609389D01*
X140297492Y-105573788D01*
X140296900Y-105566234D01*
X140290818Y-105531602D01*
X140275769Y-105491358D01*
X140271500Y-105482882D01*
X140254845Y-105441021D01*
X140246371Y-105398624D01*
X140246100Y-105391745D01*
X140242739Y-105360095D01*
X140234531Y-105341022D01*
X140233400Y-105340150D01*
X140227970Y-105324725D01*
X140223741Y-105289289D01*
X140221206Y-105239221D01*
X140220700Y-105201433D01*
X140219451Y-105137690D01*
X140216102Y-105075527D01*
X140211248Y-105024404D01*
X140208340Y-105005389D01*
X140202244Y-104961020D01*
X140197283Y-104902490D01*
X140194366Y-104841035D01*
X140194101Y-104829031D01*
X140191795Y-104774391D01*
X140187301Y-104726184D01*
X140181457Y-104692559D01*
X140179394Y-104686100D01*
X140171770Y-104655584D01*
X140166040Y-104611527D01*
X140164153Y-104581384D01*
X140158866Y-104528637D01*
X140145856Y-104493264D01*
X140135811Y-104479784D01*
X140116845Y-104446984D01*
X140101140Y-104399107D01*
X140090658Y-104345863D01*
X140087361Y-104296967D01*
X140092287Y-104264367D01*
X140097685Y-104223707D01*
X140091357Y-104172801D01*
X140085562Y-104139118D01*
X140086313Y-104111663D01*
X140095360Y-104081482D01*
X140114450Y-104039617D01*
X140119299Y-104029722D01*
X140140222Y-103985322D01*
X140150392Y-103956352D01*
X140151254Y-103935964D01*
X140144252Y-103917307D01*
X140143355Y-103915609D01*
X140133740Y-103888664D01*
X140140558Y-103875649D01*
X140148060Y-103858159D01*
X140146579Y-103819452D01*
X140143660Y-103798682D01*
X140139374Y-103741039D01*
X140141517Y-103671972D01*
X140145422Y-103633582D01*
X140150046Y-103577863D01*
X140152099Y-103507906D01*
X140151382Y-103434763D01*
X140149707Y-103396717D01*
X140146281Y-103330070D01*
X140146736Y-103284305D01*
X140153187Y-103254964D01*
X140167751Y-103237589D01*
X140192541Y-103227725D01*
X140229673Y-103220913D01*
X140233400Y-103220341D01*
X140297820Y-103201949D01*
X140345415Y-103167642D01*
X140378323Y-103115040D01*
X140398683Y-103041761D01*
X140399807Y-103035100D01*
X140409366Y-102985580D01*
X140421183Y-102935930D01*
X140423604Y-102927150D01*
X140449649Y-102825550D01*
X138186225Y-102825550D01*
X138184852Y-102847239D01*
X138180876Y-102849148D01*
X138180370Y-102848016D01*
X138177858Y-102822804D01*
X138179900Y-102809916D01*
X138183942Y-102804737D01*
X138186141Y-102821606D01*
X138186225Y-102825550D01*
X140449649Y-102825550D01*
X140449889Y-102824617D01*
X140464513Y-102740042D01*
X140466699Y-102695416D01*
X138181946Y-102695416D01*
X138180958Y-102731367D01*
X138176669Y-102750114D01*
X138168676Y-102755693D01*
X138168298Y-102755700D01*
X138152814Y-102766547D01*
X138142851Y-102788506D01*
X138137679Y-102803614D01*
X138131045Y-102804530D01*
X138120258Y-102788447D01*
X138102626Y-102752560D01*
X138097166Y-102740881D01*
X138086242Y-102717600D01*
X138049000Y-102717600D01*
X138046439Y-102737786D01*
X138036863Y-102735757D01*
X138033760Y-102732840D01*
X138025060Y-102715557D01*
X138033760Y-102702360D01*
X138045134Y-102696108D01*
X138048908Y-102711487D01*
X138049000Y-102717600D01*
X138086242Y-102717600D01*
X138075340Y-102694369D01*
X138055292Y-102652263D01*
X138042412Y-102625808D01*
X138032906Y-102596934D01*
X138037459Y-102583534D01*
X138049775Y-102568279D01*
X138067077Y-102538176D01*
X138076204Y-102519750D01*
X138096586Y-102483418D01*
X138116277Y-102466578D01*
X138132707Y-102463600D01*
X138148458Y-102465413D01*
X138159676Y-102473457D01*
X138167421Y-102491638D01*
X138172751Y-102523862D01*
X138176725Y-102574033D01*
X138180038Y-102638225D01*
X138181946Y-102695416D01*
X140466699Y-102695416D01*
X140467990Y-102669092D01*
X140461310Y-102609734D01*
X140453139Y-102561053D01*
X140444945Y-102498285D01*
X140438150Y-102432705D01*
X140436490Y-102412800D01*
X140428756Y-102343789D01*
X140416651Y-102269273D01*
X140402498Y-102203109D01*
X140399203Y-102190550D01*
X140383257Y-102131505D01*
X140375429Y-102101650D01*
X138851219Y-102101650D01*
X138828371Y-102142925D01*
X138810152Y-102173763D01*
X138800831Y-102183487D01*
X138798583Y-102174675D01*
X138806130Y-102159155D01*
X138824013Y-102134655D01*
X138825042Y-102133400D01*
X138851219Y-102101650D01*
X140375429Y-102101650D01*
X140367476Y-102071319D01*
X140355078Y-102022280D01*
X140354303Y-102019100D01*
X140337064Y-101954403D01*
X140320821Y-101905277D01*
X140306811Y-101875050D01*
X140297735Y-101866700D01*
X140291197Y-101861847D01*
X140280438Y-101845544D01*
X140264085Y-101815172D01*
X140240764Y-101768110D01*
X140209102Y-101701741D01*
X140190528Y-101662234D01*
X140172481Y-101619031D01*
X140160196Y-101580669D01*
X140156750Y-101560634D01*
X140149558Y-101523290D01*
X140126951Y-101485607D01*
X140085663Y-101442490D01*
X140074650Y-101432566D01*
X140072095Y-101430640D01*
X140028742Y-101430640D01*
X140023838Y-101431036D01*
X140006888Y-101422654D01*
X139987641Y-101409022D01*
X139984965Y-101399701D01*
X139998284Y-101401738D01*
X140014628Y-101414914D01*
X140028742Y-101430640D01*
X140072095Y-101430640D01*
X140033999Y-101401925D01*
X139985345Y-101372881D01*
X139936572Y-101349432D01*
X139895561Y-101335578D01*
X139879361Y-101333494D01*
X139865836Y-101335578D01*
X139875678Y-101344385D01*
X139877433Y-101345503D01*
X139891869Y-101358919D01*
X139886231Y-101365717D01*
X139865165Y-101365101D01*
X139833322Y-101356274D01*
X139827556Y-101354054D01*
X139784432Y-101340680D01*
X139731476Y-101329389D01*
X139703204Y-101325300D01*
X139655109Y-101317252D01*
X139611371Y-101305587D01*
X139592050Y-101297904D01*
X139550591Y-101273980D01*
X139512693Y-101246924D01*
X139485447Y-101222532D01*
X139455371Y-101222532D01*
X139453034Y-101230593D01*
X139440472Y-101243628D01*
X139434132Y-101232046D01*
X139433300Y-101216460D01*
X139436412Y-101198035D01*
X139447139Y-101202360D01*
X139447434Y-101202653D01*
X139455371Y-101222532D01*
X139485447Y-101222532D01*
X139484362Y-101221561D01*
X139471603Y-101202718D01*
X139471401Y-101200933D01*
X139461246Y-101179550D01*
X139434419Y-101150470D01*
X139425300Y-101142800D01*
X138639550Y-101142800D01*
X138638544Y-101154502D01*
X138633950Y-101155500D01*
X138621017Y-101146280D01*
X138620500Y-101142800D01*
X138624834Y-101130430D01*
X138626101Y-101130100D01*
X138636944Y-101138999D01*
X138639550Y-101142800D01*
X139425300Y-101142800D01*
X139396373Y-101118471D01*
X139352563Y-101088328D01*
X139324947Y-101072692D01*
X139292341Y-101054710D01*
X139282444Y-101045693D01*
X139294482Y-101044926D01*
X139295031Y-101045003D01*
X139311077Y-101046414D01*
X139321257Y-101041906D01*
X139327417Y-101026705D01*
X139331399Y-100996038D01*
X139335049Y-100945132D01*
X139335340Y-100940680D01*
X139340300Y-100885594D01*
X139347149Y-100836026D01*
X139354615Y-100800707D01*
X139356606Y-100794656D01*
X139363914Y-100760583D01*
X139358483Y-100745402D01*
X139352507Y-100736747D01*
X139352956Y-100724272D01*
X139361562Y-100702376D01*
X139380058Y-100665460D01*
X139387845Y-100650523D01*
X139400377Y-100616443D01*
X139401259Y-100604480D01*
X139390835Y-100604480D01*
X139388850Y-100609400D01*
X139377438Y-100621515D01*
X139375401Y-100622100D01*
X139369946Y-100612274D01*
X139369800Y-100609400D01*
X139379564Y-100597188D01*
X139383250Y-100596700D01*
X139390835Y-100604480D01*
X139401259Y-100604480D01*
X139402504Y-100587602D01*
X139401819Y-100584845D01*
X139405318Y-100555544D01*
X139421863Y-100534749D01*
X139438779Y-100514614D01*
X139444701Y-100490701D01*
X139441929Y-100452965D01*
X139441431Y-100449270D01*
X139427781Y-100395513D01*
X139402092Y-100331015D01*
X139368560Y-100264571D01*
X139331381Y-100204974D01*
X139313720Y-100181682D01*
X139284745Y-100152823D01*
X139242291Y-100118049D01*
X139194828Y-100084225D01*
X139187902Y-100079722D01*
X139143445Y-100049800D01*
X139119211Y-100029501D01*
X139112931Y-100016643D01*
X139116983Y-100011500D01*
X139126802Y-100003911D01*
X139122511Y-99999299D01*
X139099720Y-99995628D01*
X139077700Y-99993272D01*
X139047833Y-99990146D01*
X139003814Y-99985467D01*
X138968474Y-99981677D01*
X138911934Y-99978794D01*
X138864096Y-99985600D01*
G37*
X138864096Y-99985600D02*
X138821854Y-99999205D01*
X138757761Y-100032164D01*
X138690708Y-100081735D01*
X138628251Y-100141406D01*
X138577945Y-100204670D01*
X138571314Y-100215039D01*
X138545962Y-100251836D01*
X138521559Y-100280153D01*
X138508695Y-100290564D01*
X138484483Y-100297158D01*
X138443446Y-100302376D01*
X138394153Y-100305155D01*
X138390635Y-100305230D01*
X138318719Y-100307800D01*
X138269399Y-100312666D01*
X138239936Y-100320341D01*
X138227587Y-100331337D01*
X138226800Y-100335898D01*
X138238567Y-100359338D01*
X138270335Y-100378234D01*
X138316804Y-100390300D01*
X138360281Y-100393499D01*
X138405792Y-100395718D01*
X138435791Y-100404340D01*
X138459932Y-100422314D01*
X138462328Y-100424672D01*
X138483539Y-100450636D01*
X138493410Y-100472083D01*
X138493500Y-100473521D01*
X138484134Y-100509894D01*
X138461127Y-100548303D01*
X138432112Y-100576910D01*
X138423763Y-100581638D01*
X138399930Y-100595283D01*
X138394489Y-100611652D01*
X138404310Y-100640472D01*
X138404600Y-100641150D01*
X138412917Y-100658173D01*
X138415807Y-100651473D01*
X138416408Y-100637660D01*
X138426213Y-100613321D01*
X138448843Y-100596283D01*
X138476661Y-100588208D01*
X138502031Y-100590760D01*
X138517319Y-100605599D01*
X138518900Y-100615351D01*
X138512165Y-100632506D01*
X138506200Y-100634800D01*
X138494217Y-100624878D01*
X138493500Y-100619983D01*
X138488510Y-100611327D01*
X138485341Y-100613326D01*
X138485331Y-100628346D01*
X138492238Y-100639628D01*
X138500862Y-100662315D01*
X138499439Y-100689392D01*
X138490265Y-100711492D01*
X138475640Y-100719247D01*
X138472884Y-100718506D01*
X138458237Y-100715708D01*
X138458578Y-100726284D01*
X138474252Y-100753332D01*
X138477272Y-100757973D01*
X138492102Y-100793942D01*
X138495396Y-100827082D01*
X138499651Y-100864534D01*
X138511624Y-100891331D01*
X138527181Y-100926607D01*
X138531601Y-100954745D01*
X138542449Y-100990608D01*
X138569700Y-101017808D01*
X138594819Y-101041489D01*
X138607447Y-101063404D01*
X138607800Y-101066448D01*
X138597084Y-101096131D01*
X138571546Y-101115083D01*
X138558162Y-101117400D01*
X138539907Y-101125888D01*
X138510807Y-101148093D01*
X138478697Y-101177725D01*
X138423210Y-101232466D01*
X138379286Y-101273262D01*
X138341087Y-101304670D01*
X138302778Y-101331250D01*
X138258519Y-101357559D01*
X138224229Y-101376440D01*
X138162069Y-101412572D01*
X138119313Y-101443812D01*
X138091391Y-101473667D01*
X138085012Y-101483224D01*
X138058578Y-101521259D01*
X138024689Y-101563540D01*
X138009239Y-101580950D01*
X137968311Y-101626713D01*
X137931883Y-101670348D01*
X137903533Y-101707286D01*
X137886836Y-101732958D01*
X137883901Y-101741004D01*
X137876128Y-101755908D01*
X137856350Y-101782047D01*
X137842625Y-101798156D01*
X137810676Y-101840317D01*
X137771853Y-101901132D01*
X137728848Y-101975727D01*
X137684347Y-102059224D01*
X137641042Y-102146748D01*
X137601621Y-102233423D01*
X137598212Y-102241350D01*
X137581373Y-102274703D01*
X137554652Y-102321081D01*
X137522650Y-102372643D01*
X137507441Y-102395919D01*
X137469086Y-102457420D01*
X137444353Y-102507740D01*
X137429763Y-102554477D01*
X137426012Y-102573719D01*
X137419157Y-102664942D01*
X137427838Y-102753834D01*
X137451064Y-102831426D01*
X137455596Y-102841237D01*
X137477958Y-102874186D01*
X137515516Y-102916569D01*
X137562720Y-102963165D01*
X137614020Y-103008753D01*
X137663866Y-103048115D01*
X137703038Y-103073981D01*
X137768773Y-103112645D01*
X137811562Y-103140676D01*
X137831498Y-103158137D01*
X137833100Y-103161977D01*
X137841910Y-103172326D01*
X137869483Y-103180029D01*
X137917534Y-103185288D01*
X137987780Y-103188306D01*
X138063961Y-103189254D01*
X138138349Y-103190250D01*
X138190219Y-103193435D01*
X138222434Y-103199990D01*
X138237857Y-103211098D01*
X138239349Y-103227939D01*
X138229774Y-103251695D01*
X138227192Y-103256619D01*
X138217932Y-103286786D01*
X138226576Y-103314080D01*
X138238611Y-103341203D01*
X138254273Y-103382471D01*
X138266589Y-103418221D01*
X138291534Y-103494206D01*
X138247185Y-103543295D01*
X138207378Y-103600018D01*
X138192739Y-103654442D01*
X138203182Y-103707014D01*
X138212775Y-103725105D01*
X138234195Y-103782340D01*
X138238444Y-103854648D01*
X138227432Y-103929063D01*
X138222389Y-103970101D01*
X138231532Y-104006044D01*
X138240435Y-104024125D01*
X138259219Y-104079346D01*
X138264901Y-104137044D01*
X138268679Y-104186185D01*
X138278242Y-104233142D01*
X138283951Y-104249908D01*
X138296087Y-104292493D01*
X138302643Y-104341846D01*
X138303018Y-104354275D01*
X138305320Y-104395195D01*
X138311400Y-104450409D01*
X138320048Y-104509304D01*
X138322050Y-104521000D01*
X138331064Y-104579027D01*
X138337771Y-104635275D01*
X138340968Y-104679293D01*
X138341080Y-104686100D01*
X138345420Y-104730188D01*
X138357732Y-104793674D01*
X138376975Y-104872210D01*
X138402111Y-104961445D01*
X138422993Y-105029000D01*
X138435428Y-105074613D01*
X138447637Y-105130163D01*
X138453822Y-105164459D01*
X138463780Y-105213221D01*
X138476402Y-105257276D01*
X138485533Y-105279872D01*
X138496294Y-105312605D01*
X138504453Y-105359266D01*
X138507651Y-105398413D01*
X138513320Y-105458078D01*
X138524643Y-105522187D01*
X138533183Y-105556050D01*
X138547192Y-105609554D01*
X138561289Y-105673442D01*
X138571318Y-105727500D01*
X138582401Y-105782639D01*
X138599097Y-105850663D01*
X138618591Y-105920494D01*
X138628355Y-105952146D01*
X138646671Y-106011406D01*
X138662629Y-106066955D01*
X138674074Y-106111095D01*
X138678061Y-106129946D01*
X138688106Y-106174342D01*
X138702536Y-106222720D01*
X138705836Y-106232136D01*
X138719451Y-106302694D01*
X138717123Y-106337730D01*
X138714734Y-106379184D01*
X138725766Y-106411871D01*
X138735843Y-106427464D01*
X138747124Y-106446008D01*
X138754989Y-106467825D01*
X138760184Y-106497965D01*
X138763453Y-106541477D01*
X138765542Y-106603408D01*
X138766186Y-106633019D01*
X138767943Y-106697067D01*
X138770372Y-106752870D01*
X138773174Y-106795013D01*
X138776048Y-106818081D01*
X138776516Y-106819700D01*
X138782339Y-106843942D01*
X138788225Y-106880853D01*
X138789637Y-106892285D01*
X138800393Y-106935869D01*
X138819092Y-106974953D01*
X138823315Y-106980844D01*
X138842948Y-107016177D01*
X138843580Y-107054566D01*
X138843057Y-107057483D01*
X138835250Y-107099100D01*
X139423563Y-107099100D01*
X139414774Y-107070525D01*
X139406652Y-107040137D01*
X139397061Y-106999017D01*
X139394214Y-106985768D01*
X139382174Y-106945543D01*
X139366307Y-106912926D01*
X139361044Y-106905940D01*
X139350952Y-106888632D01*
X139343268Y-106859425D01*
X139337300Y-106814190D01*
X139332356Y-106748798D01*
X139331108Y-106727172D01*
X139326421Y-106662553D01*
X139320089Y-106603310D01*
X139312964Y-106556260D01*
X139306336Y-106529319D01*
X139298721Y-106498920D01*
X139295769Y-106456947D01*
X139297310Y-106398251D01*
X139300422Y-106351519D01*
X139306728Y-106236759D01*
X139309862Y-106101777D01*
X139309758Y-105951560D01*
X139307441Y-105829100D01*
X139306622Y-105783432D01*
X139305995Y-105719148D01*
X139305600Y-105643030D01*
X139305479Y-105561861D01*
X139305557Y-105512836D01*
X139305161Y-105439858D01*
X139303665Y-105375404D01*
X139301265Y-105323901D01*
X139298155Y-105289771D01*
X139295236Y-105277886D01*
X139287412Y-105257923D01*
X139279583Y-105222428D01*
X139276025Y-105198948D01*
X139272787Y-105155507D01*
X139277870Y-105126777D01*
X139291407Y-105104755D01*
X139315103Y-105084914D01*
X139338846Y-105086465D01*
X139364936Y-105110483D01*
X139392119Y-105151847D01*
X139421586Y-105196996D01*
X139458237Y-105245734D01*
X139478383Y-105269684D01*
X139510231Y-105306791D01*
X139537969Y-105341393D01*
X139550930Y-105359200D01*
X139568954Y-105385530D01*
X139595992Y-105424157D01*
X139626221Y-105466763D01*
X139626497Y-105467150D01*
X139652126Y-105503842D01*
X139668154Y-105531957D01*
X139676898Y-105559537D01*
X139680676Y-105594628D01*
X139681805Y-105645273D01*
X139681931Y-105659557D01*
X139682911Y-105775765D01*
X139734952Y-105834887D01*
X139770715Y-105880447D01*
X139796241Y-105926758D01*
X139813057Y-105979327D01*
X139822687Y-106043662D01*
X139826655Y-106125268D01*
X139827000Y-106167292D01*
X139829196Y-106258106D01*
X139835468Y-106335400D01*
X139845346Y-106393514D01*
X139846099Y-106396485D01*
X139853933Y-106439223D01*
X139860645Y-106503494D01*
X139866311Y-106590354D01*
X139871004Y-106700864D01*
X139873532Y-106784455D01*
X139881865Y-107099100D01*
X140376210Y-107099100D01*
X140372199Y-106721275D01*
X140371504Y-106624237D01*
X140371496Y-106534151D01*
X140372124Y-106454515D01*
X140373339Y-106388825D01*
X140375092Y-106340577D01*
X140377333Y-106313267D01*
X140378028Y-106309892D01*
X140378765Y-106266814D01*
X140366590Y-106235190D01*
X140351654Y-106186078D01*
X140354414Y-106148097D01*
X140359038Y-106113733D01*
X140362639Y-106066144D01*
X140365114Y-106011304D01*
X140366361Y-105955186D01*
X140366277Y-105903765D01*
X140364761Y-105863015D01*
X140361709Y-105838909D01*
X140359778Y-105835065D01*
X140355638Y-105820248D01*
X140354880Y-105788175D01*
X140356608Y-105758956D01*
X140358710Y-105714851D01*
X140353532Y-105684602D01*
X140338460Y-105657100D01*
X140329880Y-105645433D01*
X140308779Y-105609389D01*
X140297492Y-105573788D01*
X140296900Y-105566234D01*
X140290818Y-105531602D01*
X140275769Y-105491358D01*
X140271500Y-105482882D01*
X140254845Y-105441021D01*
X140246371Y-105398624D01*
X140246100Y-105391745D01*
X140242739Y-105360095D01*
X140234531Y-105341022D01*
X140233400Y-105340150D01*
X140227970Y-105324725D01*
X140223741Y-105289289D01*
X140221206Y-105239221D01*
X140220700Y-105201433D01*
X140219451Y-105137690D01*
X140216102Y-105075527D01*
X140211248Y-105024404D01*
X140208340Y-105005389D01*
X140202244Y-104961020D01*
X140197283Y-104902490D01*
X140194366Y-104841035D01*
X140194101Y-104829031D01*
X140191795Y-104774391D01*
X140187301Y-104726184D01*
X140181457Y-104692559D01*
X140179394Y-104686100D01*
X140171770Y-104655584D01*
X140166040Y-104611527D01*
X140164153Y-104581384D01*
X140158866Y-104528637D01*
X140145856Y-104493264D01*
X140135811Y-104479784D01*
X140116845Y-104446984D01*
X140101140Y-104399107D01*
X140090658Y-104345863D01*
X140087361Y-104296967D01*
X140092287Y-104264367D01*
X140097685Y-104223707D01*
X140091357Y-104172801D01*
X140085562Y-104139118D01*
X140086313Y-104111663D01*
X140095360Y-104081482D01*
X140114450Y-104039617D01*
X140119299Y-104029722D01*
X140140222Y-103985322D01*
X140150392Y-103956352D01*
X140151254Y-103935964D01*
X140144252Y-103917307D01*
X140143355Y-103915609D01*
X140133740Y-103888664D01*
X140140558Y-103875649D01*
X140148060Y-103858159D01*
X140146579Y-103819452D01*
X140143660Y-103798682D01*
X140139374Y-103741039D01*
X140141517Y-103671972D01*
X140145422Y-103633582D01*
X140150046Y-103577863D01*
X140152099Y-103507906D01*
X140151382Y-103434763D01*
X140149707Y-103396717D01*
X140146281Y-103330070D01*
X140146736Y-103284305D01*
X140153187Y-103254964D01*
X140167751Y-103237589D01*
X140192541Y-103227725D01*
X140229673Y-103220913D01*
X140233400Y-103220341D01*
X140297820Y-103201949D01*
X140345415Y-103167642D01*
X140378323Y-103115040D01*
X140398683Y-103041761D01*
X140399807Y-103035100D01*
X140409366Y-102985580D01*
X140421183Y-102935930D01*
X140423604Y-102927150D01*
X140449649Y-102825550D01*
X138186225Y-102825550D01*
X138184852Y-102847239D01*
X138180876Y-102849148D01*
X138180370Y-102848016D01*
X138177858Y-102822804D01*
X138179900Y-102809916D01*
X138183942Y-102804737D01*
X138186141Y-102821606D01*
X138186225Y-102825550D01*
X140449649Y-102825550D01*
X140449889Y-102824617D01*
X140464513Y-102740042D01*
X140466699Y-102695416D01*
X138181946Y-102695416D01*
X138180958Y-102731367D01*
X138176669Y-102750114D01*
X138168676Y-102755693D01*
X138168298Y-102755700D01*
X138152814Y-102766547D01*
X138142851Y-102788506D01*
X138137679Y-102803614D01*
X138131045Y-102804530D01*
X138120258Y-102788447D01*
X138102626Y-102752560D01*
X138097166Y-102740881D01*
X138086242Y-102717600D01*
X138049000Y-102717600D01*
X138046439Y-102737786D01*
X138036863Y-102735757D01*
X138033760Y-102732840D01*
X138025060Y-102715557D01*
X138033760Y-102702360D01*
X138045134Y-102696108D01*
X138048908Y-102711487D01*
X138049000Y-102717600D01*
X138086242Y-102717600D01*
X138075340Y-102694369D01*
X138055292Y-102652263D01*
X138042412Y-102625808D01*
X138032906Y-102596934D01*
X138037459Y-102583534D01*
X138049775Y-102568279D01*
X138067077Y-102538176D01*
X138076204Y-102519750D01*
X138096586Y-102483418D01*
X138116277Y-102466578D01*
X138132707Y-102463600D01*
X138148458Y-102465413D01*
X138159676Y-102473457D01*
X138167421Y-102491638D01*
X138172751Y-102523862D01*
X138176725Y-102574033D01*
X138180038Y-102638225D01*
X138181946Y-102695416D01*
X140466699Y-102695416D01*
X140467990Y-102669092D01*
X140461310Y-102609734D01*
X140453139Y-102561053D01*
X140444945Y-102498285D01*
X140438150Y-102432705D01*
X140436490Y-102412800D01*
X140428756Y-102343789D01*
X140416651Y-102269273D01*
X140402498Y-102203109D01*
X140399203Y-102190550D01*
X140383257Y-102131505D01*
X140375429Y-102101650D01*
X138851219Y-102101650D01*
X138828371Y-102142925D01*
X138810152Y-102173763D01*
X138800831Y-102183487D01*
X138798583Y-102174675D01*
X138806130Y-102159155D01*
X138824013Y-102134655D01*
X138825042Y-102133400D01*
X138851219Y-102101650D01*
X140375429Y-102101650D01*
X140367476Y-102071319D01*
X140355078Y-102022280D01*
X140354303Y-102019100D01*
X140337064Y-101954403D01*
X140320821Y-101905277D01*
X140306811Y-101875050D01*
X140297735Y-101866700D01*
X140291197Y-101861847D01*
X140280438Y-101845544D01*
X140264085Y-101815172D01*
X140240764Y-101768110D01*
X140209102Y-101701741D01*
X140190528Y-101662234D01*
X140172481Y-101619031D01*
X140160196Y-101580669D01*
X140156750Y-101560634D01*
X140149558Y-101523290D01*
X140126951Y-101485607D01*
X140085663Y-101442490D01*
X140074650Y-101432566D01*
X140072095Y-101430640D01*
X140028742Y-101430640D01*
X140023838Y-101431036D01*
X140006888Y-101422654D01*
X139987641Y-101409022D01*
X139984965Y-101399701D01*
X139998284Y-101401738D01*
X140014628Y-101414914D01*
X140028742Y-101430640D01*
X140072095Y-101430640D01*
X140033999Y-101401925D01*
X139985345Y-101372881D01*
X139936572Y-101349432D01*
X139895561Y-101335578D01*
X139879361Y-101333494D01*
X139865836Y-101335578D01*
X139875678Y-101344385D01*
X139877433Y-101345503D01*
X139891869Y-101358919D01*
X139886231Y-101365717D01*
X139865165Y-101365101D01*
X139833322Y-101356274D01*
X139827556Y-101354054D01*
X139784432Y-101340680D01*
X139731476Y-101329389D01*
X139703204Y-101325300D01*
X139655109Y-101317252D01*
X139611371Y-101305587D01*
X139592050Y-101297904D01*
X139550591Y-101273980D01*
X139512693Y-101246924D01*
X139485447Y-101222532D01*
X139455371Y-101222532D01*
X139453034Y-101230593D01*
X139440472Y-101243628D01*
X139434132Y-101232046D01*
X139433300Y-101216460D01*
X139436412Y-101198035D01*
X139447139Y-101202360D01*
X139447434Y-101202653D01*
X139455371Y-101222532D01*
X139485447Y-101222532D01*
X139484362Y-101221561D01*
X139471603Y-101202718D01*
X139471401Y-101200933D01*
X139461246Y-101179550D01*
X139434419Y-101150470D01*
X139425300Y-101142800D01*
X138639550Y-101142800D01*
X138638544Y-101154502D01*
X138633950Y-101155500D01*
X138621017Y-101146280D01*
X138620500Y-101142800D01*
X138624834Y-101130430D01*
X138626101Y-101130100D01*
X138636944Y-101138999D01*
X138639550Y-101142800D01*
X139425300Y-101142800D01*
X139396373Y-101118471D01*
X139352563Y-101088328D01*
X139324947Y-101072692D01*
X139292341Y-101054710D01*
X139282444Y-101045693D01*
X139294482Y-101044926D01*
X139295031Y-101045003D01*
X139311077Y-101046414D01*
X139321257Y-101041906D01*
X139327417Y-101026705D01*
X139331399Y-100996038D01*
X139335049Y-100945132D01*
X139335340Y-100940680D01*
X139340300Y-100885594D01*
X139347149Y-100836026D01*
X139354615Y-100800707D01*
X139356606Y-100794656D01*
X139363914Y-100760583D01*
X139358483Y-100745402D01*
X139352507Y-100736747D01*
X139352956Y-100724272D01*
X139361562Y-100702376D01*
X139380058Y-100665460D01*
X139387845Y-100650523D01*
X139400377Y-100616443D01*
X139401259Y-100604480D01*
X139390835Y-100604480D01*
X139388850Y-100609400D01*
X139377438Y-100621515D01*
X139375401Y-100622100D01*
X139369946Y-100612274D01*
X139369800Y-100609400D01*
X139379564Y-100597188D01*
X139383250Y-100596700D01*
X139390835Y-100604480D01*
X139401259Y-100604480D01*
X139402504Y-100587602D01*
X139401819Y-100584845D01*
X139405318Y-100555544D01*
X139421863Y-100534749D01*
X139438779Y-100514614D01*
X139444701Y-100490701D01*
X139441929Y-100452965D01*
X139441431Y-100449270D01*
X139427781Y-100395513D01*
X139402092Y-100331015D01*
X139368560Y-100264571D01*
X139331381Y-100204974D01*
X139313720Y-100181682D01*
X139284745Y-100152823D01*
X139242291Y-100118049D01*
X139194828Y-100084225D01*
X139187902Y-100079722D01*
X139143445Y-100049800D01*
X139119211Y-100029501D01*
X139112931Y-100016643D01*
X139116983Y-100011500D01*
X139126802Y-100003911D01*
X139122511Y-99999299D01*
X139099720Y-99995628D01*
X139077700Y-99993272D01*
X139047833Y-99990146D01*
X139003814Y-99985467D01*
X138968474Y-99981677D01*
X138911934Y-99978794D01*
X138864096Y-99985600D01*
G36*
X139897593Y-80719083D02*
G01*
X139896474Y-80736417D01*
X139897593Y-80740249D01*
X139900683Y-80741313D01*
X139901863Y-80729666D01*
X139900532Y-80717647D01*
X139897593Y-80719083D01*
G37*
X139897593Y-80719083D02*
X139896474Y-80736417D01*
X139897593Y-80740249D01*
X139900683Y-80741313D01*
X139901863Y-80729666D01*
X139900532Y-80717647D01*
X139897593Y-80719083D01*
G36*
X140414662Y-79770366D02*
G01*
X140372750Y-79772469D01*
X140362160Y-79773102D01*
X140313806Y-79776636D01*
X140279767Y-79780689D01*
X140257428Y-79785708D01*
X140244173Y-79792140D01*
X140242512Y-79793515D01*
X140223716Y-79805362D01*
X140198762Y-79815360D01*
X140196301Y-79816070D01*
X140176495Y-79823386D01*
X140166116Y-79830826D01*
X140165667Y-79832271D01*
X140158288Y-79838962D01*
X140139707Y-79846712D01*
X140130048Y-79849605D01*
X140094510Y-79866264D01*
X140062070Y-79895958D01*
X140038114Y-79920393D01*
X140012708Y-79942157D01*
X140000321Y-79950884D01*
X139981802Y-79964652D01*
X139971614Y-79976736D01*
X139970933Y-79979363D01*
X139965458Y-79994231D01*
X139961613Y-79999000D01*
X139953058Y-80012073D01*
X139940587Y-80036432D01*
X139926106Y-80067667D01*
X139911525Y-80101367D01*
X139898752Y-80133121D01*
X139889697Y-80158518D01*
X139886266Y-80173128D01*
X139882297Y-80193534D01*
X139877107Y-80206028D01*
X139872236Y-80226990D01*
X139872818Y-80257663D01*
X139873668Y-80264738D01*
X139878550Y-80290476D01*
X139885291Y-80303076D01*
X139895528Y-80306333D01*
X139908891Y-80308127D01*
X139909192Y-80315204D01*
X139896351Y-80330106D01*
X139894733Y-80331733D01*
X139885516Y-80344170D01*
X139880299Y-80361466D01*
X139878091Y-80388244D01*
X139877800Y-80410755D01*
X139878612Y-80441852D01*
X139880752Y-80466098D01*
X139883779Y-80478717D01*
X139884150Y-80479194D01*
X139889536Y-80491730D01*
X139892265Y-80508122D01*
X139896773Y-80559717D01*
X139901225Y-80596371D01*
X139906019Y-80620067D01*
X139911556Y-80632793D01*
X139918140Y-80636533D01*
X139924721Y-80639109D01*
X139927905Y-80649047D01*
X139928136Y-80669661D01*
X139926351Y-80697916D01*
X139923260Y-80735730D01*
X139920166Y-80761167D01*
X139915897Y-80778745D01*
X139909282Y-80792980D01*
X139899149Y-80808388D01*
X139896850Y-80811651D01*
X139882233Y-80835604D01*
X139879673Y-80853470D01*
X139889515Y-80871391D01*
X139900934Y-80884120D01*
X139915026Y-80900994D01*
X139917031Y-80910985D01*
X139912697Y-80915296D01*
X139895568Y-80919129D01*
X139884092Y-80917817D01*
X139871849Y-80916997D01*
X139869961Y-80926741D01*
X139871240Y-80933672D01*
X139877192Y-80955804D01*
X139881557Y-80968085D01*
X139881140Y-80981653D01*
X139872062Y-80987122D01*
X139857862Y-80996962D01*
X139841038Y-81015531D01*
X139835843Y-81022700D01*
X139816405Y-81045349D01*
X139789860Y-81069223D01*
X139774474Y-81080621D01*
X139756295Y-81094707D01*
X139728570Y-81118534D01*
X139693744Y-81149885D01*
X139654265Y-81186545D01*
X139612580Y-81226302D01*
X139599261Y-81239230D01*
X139555182Y-81282402D01*
X139521872Y-81315672D01*
X139497842Y-81340821D01*
X139481604Y-81359630D01*
X139471668Y-81373881D01*
X139466546Y-81385354D01*
X139464748Y-81395830D01*
X139464626Y-81400284D01*
X139458329Y-81433485D01*
X139441699Y-81464705D01*
X139418135Y-81490181D01*
X139391031Y-81506148D01*
X139366301Y-81509261D01*
X139347137Y-81502956D01*
X139324332Y-81490604D01*
X139303069Y-81475701D01*
X139288533Y-81461744D01*
X139285133Y-81454497D01*
X139291102Y-81439755D01*
X139297833Y-81432399D01*
X139307351Y-81418610D01*
X139310290Y-81402751D01*
X139306083Y-81391674D01*
X139301334Y-81390066D01*
X139289751Y-81385444D01*
X139269883Y-81373573D01*
X139254767Y-81363231D01*
X139232621Y-81345854D01*
X139221457Y-81331312D01*
X139217664Y-81313851D01*
X139217400Y-81303692D01*
X139220946Y-81272485D01*
X139229523Y-81241994D01*
X139229956Y-81240937D01*
X139240301Y-81208743D01*
X139250483Y-81163639D01*
X139259806Y-81109640D01*
X139267574Y-81050761D01*
X139272989Y-80992470D01*
X139276961Y-80948459D01*
X139282288Y-80916881D01*
X139290243Y-80893234D01*
X139302097Y-80873018D01*
X139309504Y-80863264D01*
X139314095Y-80854069D01*
X139316890Y-80838552D01*
X139317997Y-80814125D01*
X139317525Y-80778201D01*
X139315582Y-80728189D01*
X139315369Y-80723564D01*
X139312806Y-80678910D01*
X139309656Y-80640172D01*
X139306252Y-80610553D01*
X139302924Y-80593258D01*
X139301582Y-80590390D01*
X139295878Y-80576769D01*
X139293600Y-80556295D01*
X139286332Y-80528252D01*
X139268037Y-80497539D01*
X139207724Y-80497539D01*
X139205531Y-80507784D01*
X139200467Y-80509533D01*
X139192484Y-80502915D01*
X139192000Y-80499616D01*
X139186766Y-80485991D01*
X139178568Y-80474858D01*
X139169831Y-80463953D01*
X139173441Y-80461443D01*
X139180084Y-80462210D01*
X139192628Y-80469246D01*
X139202632Y-80482857D01*
X139207724Y-80497539D01*
X139268037Y-80497539D01*
X139264585Y-80491744D01*
X139258853Y-80483905D01*
X139237562Y-80457557D01*
X139220013Y-80442143D01*
X139201375Y-80433992D01*
X139189761Y-80431426D01*
X139159549Y-80422195D01*
X139129503Y-80407399D01*
X139125024Y-80404498D01*
X139096611Y-80389348D01*
X139065788Y-80378815D01*
X139060767Y-80377785D01*
X139036070Y-80371702D01*
X139017582Y-80364105D01*
X139015021Y-80362379D01*
X138999356Y-80356969D01*
X138970884Y-80353353D01*
X138933631Y-80351495D01*
X138891623Y-80351359D01*
X138848886Y-80352909D01*
X138809449Y-80356107D01*
X138777336Y-80360919D01*
X138763005Y-80364650D01*
X138698108Y-80395057D01*
X138640453Y-80438746D01*
X138609362Y-80472367D01*
X138588501Y-80497472D01*
X138568874Y-80519304D01*
X138558028Y-80530076D01*
X138546414Y-80544450D01*
X138549093Y-80552212D01*
X138553671Y-80561047D01*
X138553368Y-80580717D01*
X138548503Y-80612102D01*
X138542720Y-80645924D01*
X138538081Y-80677714D01*
X138536044Y-80695799D01*
X138531729Y-80734398D01*
X138525790Y-80769682D01*
X138519210Y-80796383D01*
X138515485Y-80805866D01*
X138512272Y-80823402D01*
X138513093Y-80851338D01*
X138517139Y-80883850D01*
X138523596Y-80915114D01*
X138531654Y-80939306D01*
X138534921Y-80945363D01*
X138544847Y-80963593D01*
X138548533Y-80975843D01*
X138553681Y-80986825D01*
X138566861Y-81006039D01*
X138584680Y-81029222D01*
X138603745Y-81052111D01*
X138620661Y-81070441D01*
X138630858Y-81079279D01*
X138645831Y-81096752D01*
X138658399Y-81125562D01*
X138667178Y-81160140D01*
X138670781Y-81194922D01*
X138667823Y-81224339D01*
X138667362Y-81225960D01*
X138662202Y-81239709D01*
X138659408Y-81240542D01*
X138659328Y-81239783D01*
X138652681Y-81229670D01*
X138637505Y-81229349D01*
X138617740Y-81237152D01*
X138597321Y-81251411D01*
X138580186Y-81270457D01*
X138577691Y-81274371D01*
X138569228Y-81292726D01*
X138564551Y-81315455D01*
X138562945Y-81347374D01*
X138563143Y-81372233D01*
X138561240Y-81427563D01*
X138551824Y-81469768D01*
X138533117Y-81501654D01*
X138503344Y-81526028D01*
X138460725Y-81545698D01*
X138451167Y-81549088D01*
X138421698Y-81559981D01*
X138382666Y-81575508D01*
X138339926Y-81593300D01*
X138311467Y-81605602D01*
X138266726Y-81625468D01*
X138231210Y-81641815D01*
X138198543Y-81657713D01*
X138162354Y-81676235D01*
X138133013Y-81691616D01*
X138111139Y-81707116D01*
X138081576Y-81733710D01*
X138046628Y-81768826D01*
X138008601Y-81809889D01*
X137969800Y-81854325D01*
X137932533Y-81899560D01*
X137899102Y-81943022D01*
X137871815Y-81982135D01*
X137869372Y-81985930D01*
X137861276Y-82001277D01*
X137850775Y-82024380D01*
X137840272Y-82049492D01*
X137832169Y-82070868D01*
X137828867Y-82082761D01*
X137828866Y-82082832D01*
X137823047Y-82094221D01*
X137815802Y-82101569D01*
X137803081Y-82117912D01*
X137787753Y-82146188D01*
X137771818Y-82182033D01*
X137757273Y-82221083D01*
X137749389Y-82246556D01*
X137741185Y-82274030D01*
X137729269Y-82311698D01*
X137715498Y-82353763D01*
X137706447Y-82380666D01*
X137689792Y-82429821D01*
X137677632Y-82466595D01*
X137668907Y-82494602D01*
X137662558Y-82517457D01*
X137657525Y-82538775D01*
X137652746Y-82562170D01*
X137651822Y-82566933D01*
X137645027Y-82609710D01*
X137638582Y-82663900D01*
X137632965Y-82723982D01*
X137628656Y-82784437D01*
X137626132Y-82839744D01*
X137625674Y-82868540D01*
X137620627Y-82932180D01*
X137604417Y-82986768D01*
X137575417Y-83037243D01*
X137566009Y-83049759D01*
X137550108Y-83075465D01*
X137535194Y-83108393D01*
X137528626Y-83127592D01*
X137520496Y-83185189D01*
X137527536Y-83248477D01*
X137549560Y-83316012D01*
X137554439Y-83327067D01*
X137566788Y-83359670D01*
X137573105Y-83393303D01*
X137574866Y-83435438D01*
X137577145Y-83481722D01*
X137585370Y-83516057D01*
X137601629Y-83542978D01*
X137628010Y-83567025D01*
X137639017Y-83574914D01*
X137670364Y-83600967D01*
X137694475Y-83629697D01*
X137708251Y-83656992D01*
X137710302Y-83669429D01*
X137706802Y-83686383D01*
X137698146Y-83709377D01*
X137696204Y-83713587D01*
X137688843Y-83730956D01*
X137686453Y-83745936D01*
X137689157Y-83764534D01*
X137697076Y-83792755D01*
X137697864Y-83795363D01*
X137710866Y-83832664D01*
X137723888Y-83855868D01*
X137739060Y-83867675D01*
X137757307Y-83870800D01*
X137772886Y-83875102D01*
X137786260Y-83890334D01*
X137794802Y-83906256D01*
X137805363Y-83932615D01*
X137811392Y-83956382D01*
X137811933Y-83962737D01*
X137816832Y-83987219D01*
X137829612Y-84019371D01*
X137847400Y-84053783D01*
X137867321Y-84085047D01*
X137886501Y-84107754D01*
X137891038Y-84111608D01*
X137916811Y-84126056D01*
X137944317Y-84134374D01*
X137947178Y-84134721D01*
X137968036Y-84139120D01*
X137979471Y-84150756D01*
X137985683Y-84167133D01*
X138003816Y-84215255D01*
X138027599Y-84255123D01*
X138050463Y-84283049D01*
X138069010Y-84306382D01*
X138082267Y-84327976D01*
X138086125Y-84338082D01*
X138087349Y-84351125D01*
X138089018Y-84378892D01*
X138091031Y-84419185D01*
X138093286Y-84469804D01*
X138095684Y-84528551D01*
X138098125Y-84593224D01*
X138099381Y-84628566D01*
X138102055Y-84701310D01*
X138105004Y-84774482D01*
X138108079Y-84844783D01*
X138111125Y-84908912D01*
X138113992Y-84963569D01*
X138116528Y-85005454D01*
X138117111Y-85013800D01*
X138120706Y-85065258D01*
X138124783Y-85126784D01*
X138128900Y-85191537D01*
X138132617Y-85252677D01*
X138133501Y-85267800D01*
X138137067Y-85327328D01*
X138141189Y-85392865D01*
X138145415Y-85457369D01*
X138149288Y-85513799D01*
X138150164Y-85526033D01*
X138155411Y-85599522D01*
X138161179Y-85681975D01*
X138167221Y-85769744D01*
X138173291Y-85859183D01*
X138179145Y-85946645D01*
X138184536Y-86028482D01*
X138189219Y-86101050D01*
X138192949Y-86160700D01*
X138193226Y-86165266D01*
X138196503Y-86211806D01*
X138200347Y-86254681D01*
X138204341Y-86289885D01*
X138208069Y-86313410D01*
X138209095Y-86317666D01*
X138212818Y-86337911D01*
X138216545Y-86370412D01*
X138219817Y-86410498D01*
X138221980Y-86448899D01*
X138225441Y-86499741D01*
X138230913Y-86547525D01*
X138237691Y-86586699D01*
X138241342Y-86601299D01*
X138252328Y-86659276D01*
X138255636Y-86731924D01*
X138255632Y-86732533D01*
X138255047Y-86773639D01*
X138253877Y-86826234D01*
X138252210Y-86887929D01*
X138250135Y-86956331D01*
X138247741Y-87029049D01*
X138245117Y-87103692D01*
X138242351Y-87177868D01*
X138239533Y-87249187D01*
X138236751Y-87315257D01*
X138234094Y-87373687D01*
X138231652Y-87422086D01*
X138229512Y-87458062D01*
X138227944Y-87477600D01*
X138225450Y-87530704D01*
X138227935Y-87585428D01*
X138229933Y-87602443D01*
X138234386Y-87656136D01*
X138230713Y-87701658D01*
X138229443Y-87708276D01*
X138224675Y-87739335D01*
X138226135Y-87760855D01*
X138231166Y-87774025D01*
X138244568Y-87791841D01*
X138267967Y-87815406D01*
X138297280Y-87841065D01*
X138328425Y-87865164D01*
X138347383Y-87878048D01*
X138363461Y-87891847D01*
X138369249Y-87909951D01*
X138369391Y-87924368D01*
X138370658Y-87960890D01*
X138378336Y-87982941D01*
X138393162Y-87992005D01*
X138403124Y-87992170D01*
X138418584Y-87992574D01*
X138425723Y-88001221D01*
X138428563Y-88019277D01*
X138429807Y-88038333D01*
X138426871Y-88043105D01*
X138417462Y-88036134D01*
X138415197Y-88034094D01*
X138400949Y-88023024D01*
X138393243Y-88019466D01*
X138385703Y-88026924D01*
X138375447Y-88046422D01*
X138364149Y-88073642D01*
X138353481Y-88104268D01*
X138345114Y-88133985D01*
X138341289Y-88153560D01*
X138339033Y-88181166D01*
X138342099Y-88204584D01*
X138351915Y-88231538D01*
X138358341Y-88245655D01*
X138377929Y-88279899D01*
X138403157Y-88314450D01*
X138418725Y-88331811D01*
X138456125Y-88368989D01*
X138521379Y-88364070D01*
X138555928Y-88360760D01*
X138577747Y-88356346D01*
X138591041Y-88349534D01*
X138599333Y-88340069D01*
X138613605Y-88322084D01*
X138624286Y-88312043D01*
X138635561Y-88302184D01*
X138655126Y-88283553D01*
X138679470Y-88259523D01*
X138689560Y-88249358D01*
X138725849Y-88209595D01*
X138758002Y-88167160D01*
X138769988Y-88148035D01*
X138498908Y-88148035D01*
X138498076Y-88161083D01*
X138481830Y-88179426D01*
X138478579Y-88182222D01*
X138448854Y-88201070D01*
X138422304Y-88204049D01*
X138399868Y-88193638D01*
X138388784Y-88184136D01*
X138391352Y-88178785D01*
X138398201Y-88175817D01*
X138408810Y-88167918D01*
X138404959Y-88160319D01*
X138388980Y-88155517D01*
X138378700Y-88154933D01*
X138359453Y-88150345D01*
X138353948Y-88136418D01*
X138362162Y-88112905D01*
X138373187Y-88094802D01*
X138392295Y-88072812D01*
X138408713Y-88067264D01*
X138422116Y-88078216D01*
X138425658Y-88085083D01*
X138435959Y-88099730D01*
X138444708Y-88104133D01*
X138453967Y-88108062D01*
X138454397Y-88110483D01*
X138454025Y-88123599D01*
X138454397Y-88132686D01*
X138457309Y-88143377D01*
X138466479Y-88139318D01*
X138468100Y-88138000D01*
X138478846Y-88123849D01*
X138480800Y-88116296D01*
X138487151Y-88101895D01*
X138490494Y-88099141D01*
X138496853Y-88099973D01*
X138496006Y-88115027D01*
X138495342Y-88135751D01*
X138498908Y-88148035D01*
X138769988Y-88148035D01*
X138789043Y-88117631D01*
X138821995Y-88056586D01*
X138823700Y-88053245D01*
X138851844Y-88009372D01*
X138887617Y-87976028D01*
X138890125Y-87974223D01*
X138915917Y-87953306D01*
X138937947Y-87930986D01*
X138947217Y-87918668D01*
X138966216Y-87896808D01*
X138990835Y-87879156D01*
X138992975Y-87878089D01*
X139013464Y-87865477D01*
X139021738Y-87850612D01*
X139022667Y-87839541D01*
X139019466Y-87815051D01*
X139013540Y-87798100D01*
X139008657Y-87781387D01*
X139004462Y-87753601D01*
X139001827Y-87720598D01*
X139001751Y-87718888D01*
X138999791Y-87687426D01*
X138997109Y-87662474D01*
X138994253Y-87648990D01*
X138993974Y-87648455D01*
X138989799Y-87635410D01*
X138985528Y-87612759D01*
X138984324Y-87604081D01*
X138973862Y-87542626D01*
X138957285Y-87482631D01*
X138943512Y-87443683D01*
X138925917Y-87392491D01*
X138915497Y-87348935D01*
X138910999Y-87305965D01*
X138911004Y-87261088D01*
X138909580Y-87212536D01*
X138902082Y-87175545D01*
X138900172Y-87170523D01*
X138892802Y-87142523D01*
X138889182Y-87106863D01*
X138889306Y-87069642D01*
X138893162Y-87036961D01*
X138900403Y-87015463D01*
X138909999Y-86993516D01*
X138915364Y-86973130D01*
X138920982Y-86949490D01*
X138929898Y-86920357D01*
X138933081Y-86911238D01*
X138941635Y-86878026D01*
X138945873Y-86842489D01*
X138945980Y-86835038D01*
X138945733Y-86762659D01*
X138947149Y-86696006D01*
X138950074Y-86637204D01*
X138954355Y-86588380D01*
X138959839Y-86551660D01*
X138966373Y-86529172D01*
X138968228Y-86525915D01*
X138975720Y-86505722D01*
X138979828Y-86473963D01*
X138980333Y-86456516D01*
X138982291Y-86423006D01*
X138987335Y-86391799D01*
X138992060Y-86375850D01*
X138998986Y-86346625D01*
X139001713Y-86302417D01*
X139001321Y-86266866D01*
X139001907Y-86205950D01*
X139007906Y-86160754D01*
X139011208Y-86148837D01*
X139017967Y-86120892D01*
X139023715Y-86084087D01*
X139027145Y-86047237D01*
X139029818Y-86007893D01*
X139033718Y-85960483D01*
X139038112Y-85913761D01*
X139039245Y-85902799D01*
X139043842Y-85856253D01*
X139048352Y-85805374D01*
X139051941Y-85759689D01*
X139052525Y-85751252D01*
X139055743Y-85716316D01*
X139060072Y-85686460D01*
X139064715Y-85666873D01*
X139065972Y-85663916D01*
X139068825Y-85650608D01*
X139071554Y-85623302D01*
X139073975Y-85584933D01*
X139075904Y-85538435D01*
X139077158Y-85486745D01*
X139077181Y-85485263D01*
X139079559Y-85402046D01*
X139083926Y-85334881D01*
X139090403Y-85282991D01*
X139099107Y-85245600D01*
X139110159Y-85221929D01*
X139118967Y-85213339D01*
X139132777Y-85209488D01*
X139145252Y-85219550D01*
X139146554Y-85221233D01*
X139153114Y-85233743D01*
X139155734Y-85251408D01*
X139154738Y-85278636D01*
X139152514Y-85301666D01*
X139148186Y-85362806D01*
X139148342Y-85420623D01*
X139152839Y-85470199D01*
X139158165Y-85496196D01*
X139161799Y-85516442D01*
X139165461Y-85548946D01*
X139168701Y-85589041D01*
X139170874Y-85627539D01*
X139173091Y-85674109D01*
X139175902Y-85728135D01*
X139179117Y-85786462D01*
X139182548Y-85845935D01*
X139186005Y-85903399D01*
X139189301Y-85955697D01*
X139192247Y-85999675D01*
X139194653Y-86032176D01*
X139195948Y-86046733D01*
X139203830Y-86112406D01*
X139212572Y-86168124D01*
X139221750Y-86211517D01*
X139230426Y-86239026D01*
X139238458Y-86265330D01*
X139245079Y-86299763D01*
X139248018Y-86325339D01*
X139251343Y-86356105D01*
X139255893Y-86381502D01*
X139259931Y-86394235D01*
X139263297Y-86408709D01*
X139265924Y-86435610D01*
X139267455Y-86470435D01*
X139267701Y-86492395D01*
X139268850Y-86538700D01*
X139271972Y-86588362D01*
X139276466Y-86632583D01*
X139278017Y-86643633D01*
X139281769Y-86678353D01*
X139284544Y-86724604D01*
X139286118Y-86776998D01*
X139286264Y-86830149D01*
X139286140Y-86838366D01*
X139285785Y-86888350D01*
X139286804Y-86935144D01*
X139289506Y-86982056D01*
X139294199Y-87032393D01*
X139301190Y-87089460D01*
X139310787Y-87156566D01*
X139323184Y-87236300D01*
X139331306Y-87294847D01*
X139334989Y-87340216D01*
X139334205Y-87371421D01*
X139328927Y-87387476D01*
X139327467Y-87388700D01*
X139321399Y-87400129D01*
X139319000Y-87419170D01*
X139315071Y-87443093D01*
X139305330Y-87470787D01*
X139302317Y-87477108D01*
X139297304Y-87488237D01*
X139292851Y-87501720D01*
X139288759Y-87519224D01*
X139284827Y-87542416D01*
X139280857Y-87572961D01*
X139276646Y-87612527D01*
X139271997Y-87662781D01*
X139266708Y-87725389D01*
X139260579Y-87802017D01*
X139255515Y-87867066D01*
X139250747Y-87922640D01*
X139245181Y-87977764D01*
X139239318Y-88028060D01*
X139233658Y-88069148D01*
X139229820Y-88091433D01*
X139222507Y-88132704D01*
X139216650Y-88177385D01*
X139212137Y-88227620D01*
X139208858Y-88285550D01*
X139206698Y-88353317D01*
X139205548Y-88433064D01*
X139205293Y-88526934D01*
X139205376Y-88558630D01*
X139205749Y-88628617D01*
X139206373Y-88683674D01*
X139207367Y-88725805D01*
X139208850Y-88757012D01*
X139210939Y-88779299D01*
X139213751Y-88794669D01*
X139217406Y-88805125D01*
X139220181Y-88810071D01*
X139228232Y-88827717D01*
X139225772Y-88836558D01*
X139218961Y-88849254D01*
X139217958Y-88870167D01*
X139222508Y-88891700D01*
X139227983Y-88902004D01*
X139242586Y-88912730D01*
X139265978Y-88922625D01*
X139273564Y-88924850D01*
X139305916Y-88937211D01*
X139322943Y-88954113D01*
X139325959Y-88976969D01*
X139325379Y-88980511D01*
X139324298Y-88992093D01*
X139328108Y-89000021D01*
X139339514Y-89005251D01*
X139361222Y-89008738D01*
X139395938Y-89011437D01*
X139416366Y-89012641D01*
X139463688Y-89012512D01*
X139495476Y-89005904D01*
X139498916Y-89004346D01*
X139517604Y-88997396D01*
X139534276Y-88999706D01*
X139548342Y-89006217D01*
X139565661Y-89020435D01*
X139582495Y-89042488D01*
X139596016Y-89067255D01*
X139603399Y-89089618D01*
X139602233Y-89103846D01*
X139599876Y-89117740D01*
X139601693Y-89139225D01*
X139601926Y-89140509D01*
X139615549Y-89167794D01*
X139645601Y-89193421D01*
X139691639Y-89217187D01*
X139753220Y-89238887D01*
X139829903Y-89258317D01*
X139877800Y-89267860D01*
X139978856Y-89285799D01*
X140076717Y-89302078D01*
X140167197Y-89316030D01*
X140246111Y-89326987D01*
X140258800Y-89328594D01*
X140305175Y-89334922D01*
X140352446Y-89342305D01*
X140393983Y-89349665D01*
X140415433Y-89354075D01*
X140454171Y-89361671D01*
X140500233Y-89369065D01*
X140544063Y-89374731D01*
X140546667Y-89375009D01*
X140589968Y-89379802D01*
X140636141Y-89385283D01*
X140675654Y-89390319D01*
X140677900Y-89390622D01*
X140727699Y-89395381D01*
X140784091Y-89397571D01*
X140841750Y-89397263D01*
X140895349Y-89394532D01*
X140939561Y-89389449D01*
X140953066Y-89386855D01*
X141015309Y-89371416D01*
X141064259Y-89355743D01*
X141103523Y-89338501D01*
X141135234Y-89319381D01*
X141163364Y-89300599D01*
X141190492Y-89283692D01*
X141204290Y-89275819D01*
X141227765Y-89254575D01*
X141240104Y-89224190D01*
X141240850Y-89188664D01*
X141229545Y-89151995D01*
X141220270Y-89135988D01*
X141205878Y-89118705D01*
X141188142Y-89106922D01*
X141163718Y-89099665D01*
X141129264Y-89095959D01*
X141081438Y-89094832D01*
X141078984Y-89094826D01*
X141035882Y-89091832D01*
X140999072Y-89083739D01*
X140972098Y-89071659D01*
X140958647Y-89057091D01*
X140948337Y-89048297D01*
X140941544Y-89048886D01*
X140925728Y-89047769D01*
X140900529Y-89038246D01*
X140869898Y-89022353D01*
X140837784Y-89002122D01*
X140809934Y-88981102D01*
X140788246Y-88964353D01*
X140770849Y-88953347D01*
X140763882Y-88950798D01*
X140749156Y-88945736D01*
X140724864Y-88932133D01*
X140694387Y-88912360D01*
X140661107Y-88888791D01*
X140628406Y-88863796D01*
X140599664Y-88839749D01*
X140582650Y-88823669D01*
X140554200Y-88791262D01*
X140540124Y-88766878D01*
X140540182Y-88749985D01*
X140546667Y-88743366D01*
X140552697Y-88731163D01*
X140554901Y-88708351D01*
X140553491Y-88680768D01*
X140548679Y-88654248D01*
X140544113Y-88641797D01*
X139967950Y-88641797D01*
X139967201Y-88657970D01*
X139966501Y-88665752D01*
X139961525Y-88700816D01*
X139954892Y-88719212D01*
X139950167Y-88722200D01*
X139949936Y-88714895D01*
X139949962Y-88714732D01*
X139886266Y-88714732D01*
X139881050Y-88719323D01*
X139877800Y-88717966D01*
X139871804Y-88721275D01*
X139869337Y-88737747D01*
X139869333Y-88738633D01*
X139866734Y-88756679D01*
X139860454Y-88764522D01*
X139860194Y-88764533D01*
X139854920Y-88757159D01*
X139856956Y-88737016D01*
X139862098Y-88716200D01*
X139866498Y-88703340D01*
X139866681Y-88703011D01*
X139875109Y-88700162D01*
X139884010Y-88707206D01*
X139886266Y-88714732D01*
X139949962Y-88714732D01*
X139952872Y-88696728D01*
X139954167Y-88690450D01*
X139957183Y-88677099D01*
X139825387Y-88677099D01*
X139823257Y-88695810D01*
X139814781Y-88720699D01*
X139810570Y-88729679D01*
X139799803Y-88754387D01*
X139793672Y-88775439D01*
X139793133Y-88780629D01*
X139789320Y-88796978D01*
X139784666Y-88802633D01*
X139778534Y-88814095D01*
X139776200Y-88832431D01*
X139773885Y-88854025D01*
X139767940Y-88881243D01*
X139759861Y-88909232D01*
X139751143Y-88933141D01*
X139743285Y-88948117D01*
X139739685Y-88950800D01*
X139734989Y-88944706D01*
X139735891Y-88940216D01*
X139741176Y-88922216D01*
X139748640Y-88892554D01*
X139757144Y-88856174D01*
X139765547Y-88818019D01*
X139772708Y-88783032D01*
X139775104Y-88770286D01*
X139783646Y-88736666D01*
X139795745Y-88704555D01*
X139803395Y-88689853D01*
X139815472Y-88671590D01*
X139821780Y-88666646D01*
X139824825Y-88673567D01*
X139825387Y-88677099D01*
X139957183Y-88677099D01*
X139961537Y-88657829D01*
X139966097Y-88641680D01*
X139967950Y-88641797D01*
X140544113Y-88641797D01*
X140542832Y-88638305D01*
X140526927Y-88617937D01*
X140516625Y-88612133D01*
X139970933Y-88612133D01*
X139967835Y-88619102D01*
X139965289Y-88617777D01*
X139964275Y-88607729D01*
X139965289Y-88606488D01*
X139970322Y-88607651D01*
X139970933Y-88612133D01*
X140516625Y-88612133D01*
X140502246Y-88604033D01*
X140482390Y-88599433D01*
X139911666Y-88599433D01*
X139907433Y-88603666D01*
X139903200Y-88599433D01*
X139907433Y-88595200D01*
X139911666Y-88599433D01*
X140482390Y-88599433D01*
X140466272Y-88595699D01*
X140416483Y-88592041D01*
X140412165Y-88591931D01*
X140370164Y-88589325D01*
X140341136Y-88582480D01*
X140321277Y-88569451D01*
X140318616Y-88565566D01*
X139920133Y-88565566D01*
X139915900Y-88569800D01*
X139911666Y-88565566D01*
X139915900Y-88561333D01*
X139920133Y-88565566D01*
X140318616Y-88565566D01*
X140306784Y-88548296D01*
X140300742Y-88534989D01*
X140294891Y-88515584D01*
X140299185Y-88501542D01*
X140307946Y-88491126D01*
X140328797Y-88464444D01*
X140345051Y-88432458D01*
X140357421Y-88392577D01*
X140366617Y-88342213D01*
X140373350Y-88278777D01*
X140375859Y-88243833D01*
X140378184Y-88199661D01*
X140036530Y-88199661D01*
X140031780Y-88221771D01*
X140031663Y-88222110D01*
X140025622Y-88244904D01*
X140019518Y-88276532D01*
X140015883Y-88301068D01*
X140012180Y-88327421D01*
X140009522Y-88337999D01*
X140007471Y-88333896D01*
X140006362Y-88324947D01*
X140006697Y-88297562D01*
X140011123Y-88266352D01*
X140012623Y-88259814D01*
X140018443Y-88231282D01*
X140021565Y-88205420D01*
X140021733Y-88200290D01*
X140023429Y-88184992D01*
X140029287Y-88184684D01*
X140031252Y-88186465D01*
X140036530Y-88199661D01*
X140378184Y-88199661D01*
X140378661Y-88190615D01*
X140380484Y-88136696D01*
X140381217Y-88087292D01*
X140381166Y-88082966D01*
X140055600Y-88082966D01*
X140051366Y-88087200D01*
X140047133Y-88082966D01*
X140051366Y-88078733D01*
X140055600Y-88082966D01*
X140381166Y-88082966D01*
X140380748Y-88047614D01*
X140380246Y-88036400D01*
X140378526Y-88006061D01*
X140063398Y-88006061D01*
X140061841Y-88017042D01*
X140058951Y-88017173D01*
X140056930Y-88005841D01*
X140058283Y-88000945D01*
X140062042Y-87997738D01*
X140063398Y-88006061D01*
X140378526Y-88006061D01*
X140377511Y-87988164D01*
X140376153Y-87953552D01*
X140376521Y-87929288D01*
X140378962Y-87912092D01*
X140383827Y-87898688D01*
X140391463Y-87885798D01*
X140397150Y-87877480D01*
X140404504Y-87866563D01*
X140410180Y-87856162D01*
X140414372Y-87844051D01*
X140417273Y-87828003D01*
X140419079Y-87805794D01*
X140419982Y-87775198D01*
X140420177Y-87733988D01*
X140419858Y-87679939D01*
X140419336Y-87623041D01*
X140419437Y-87595138D01*
X140421382Y-87573777D01*
X140426696Y-87554349D01*
X140436906Y-87532241D01*
X140453537Y-87502845D01*
X140466153Y-87481601D01*
X140497472Y-87425167D01*
X140519757Y-87374179D01*
X140535534Y-87321716D01*
X140540602Y-87295566D01*
X139970933Y-87295566D01*
X139966700Y-87299800D01*
X139962466Y-87295566D01*
X139966700Y-87291333D01*
X139970933Y-87295566D01*
X140540602Y-87295566D01*
X140547332Y-87260851D01*
X140547789Y-87257937D01*
X140554213Y-87224158D01*
X140554615Y-87222563D01*
X140004800Y-87222563D01*
X139998944Y-87231601D01*
X139996333Y-87232066D01*
X139989454Y-87239157D01*
X139987866Y-87249000D01*
X139984650Y-87262763D01*
X139980192Y-87265933D01*
X139975800Y-87259204D01*
X139976874Y-87249277D01*
X139983625Y-87234340D01*
X139993225Y-87222508D01*
X140001622Y-87217661D01*
X140004800Y-87222563D01*
X140554615Y-87222563D01*
X140559689Y-87202433D01*
X140114866Y-87202433D01*
X140110633Y-87206666D01*
X140106400Y-87202433D01*
X140110633Y-87198200D01*
X140114866Y-87202433D01*
X140559689Y-87202433D01*
X140562110Y-87192829D01*
X140568062Y-87175180D01*
X140574767Y-87153114D01*
X140575633Y-87136321D01*
X140575222Y-87134944D01*
X140574987Y-87120773D01*
X140579121Y-87096416D01*
X140584886Y-87073768D01*
X140592403Y-87047548D01*
X140597526Y-87028983D01*
X140599035Y-87022705D01*
X140600929Y-87014174D01*
X140605946Y-86994266D01*
X140610580Y-86976499D01*
X140616311Y-86948433D01*
X140123333Y-86948433D01*
X140119100Y-86952666D01*
X140114866Y-86948433D01*
X140119100Y-86944199D01*
X140123333Y-86948433D01*
X140616311Y-86948433D01*
X140616507Y-86947478D01*
X140622199Y-86908431D01*
X140623352Y-86897633D01*
X140267266Y-86897633D01*
X140263033Y-86901866D01*
X140258800Y-86897633D01*
X140263033Y-86893399D01*
X140267266Y-86897633D01*
X140623352Y-86897633D01*
X140626517Y-86867999D01*
X140131800Y-86867999D01*
X140128702Y-86874969D01*
X140126155Y-86873644D01*
X140125142Y-86863596D01*
X140126155Y-86862355D01*
X140131189Y-86863517D01*
X140131800Y-86867999D01*
X140626517Y-86867999D01*
X140626704Y-86866252D01*
X140627865Y-86851427D01*
X140629061Y-86837661D01*
X140241198Y-86837661D01*
X140239641Y-86848642D01*
X140236751Y-86848773D01*
X140236280Y-86846127D01*
X140037998Y-86846127D01*
X140036441Y-86857109D01*
X140033551Y-86857240D01*
X140031530Y-86845908D01*
X140032883Y-86841012D01*
X140036642Y-86837805D01*
X140037998Y-86846127D01*
X140236280Y-86846127D01*
X140234730Y-86837441D01*
X140236083Y-86832545D01*
X140239842Y-86829338D01*
X140241198Y-86837661D01*
X140629061Y-86837661D01*
X140629892Y-86828093D01*
X140172768Y-86828093D01*
X140170708Y-86832825D01*
X140162183Y-86841914D01*
X140157282Y-86840049D01*
X140157200Y-86838866D01*
X140163214Y-86831705D01*
X140166975Y-86829091D01*
X140172768Y-86828093D01*
X140629892Y-86828093D01*
X140631053Y-86814738D01*
X140632853Y-86800266D01*
X140275733Y-86800266D01*
X140272635Y-86807235D01*
X140270089Y-86805911D01*
X140269209Y-86797189D01*
X140150370Y-86797189D01*
X140146923Y-86816293D01*
X140145629Y-86820694D01*
X140137978Y-86841436D01*
X140133633Y-86845940D01*
X140133260Y-86834698D01*
X140136416Y-86813905D01*
X140141600Y-86795222D01*
X140147268Y-86787189D01*
X140148472Y-86787405D01*
X140150370Y-86797189D01*
X140269209Y-86797189D01*
X140269075Y-86795863D01*
X140270089Y-86794622D01*
X140275122Y-86795784D01*
X140275733Y-86800266D01*
X140632853Y-86800266D01*
X140634947Y-86783442D01*
X140638912Y-86762166D01*
X140157200Y-86762166D01*
X140152966Y-86766399D01*
X140148733Y-86762166D01*
X140152966Y-86757933D01*
X140157200Y-86762166D01*
X140638912Y-86762166D01*
X140638923Y-86762109D01*
X140640820Y-86756464D01*
X140642915Y-86743990D01*
X140643094Y-86740999D01*
X140292666Y-86740999D01*
X140289569Y-86747969D01*
X140287022Y-86746644D01*
X140286453Y-86740999D01*
X140165666Y-86740999D01*
X140162569Y-86747969D01*
X140160022Y-86746644D01*
X140159825Y-86744689D01*
X140060544Y-86744689D01*
X140056506Y-86765290D01*
X140053851Y-86774564D01*
X140046590Y-86794095D01*
X140041752Y-86798160D01*
X140040399Y-86794103D01*
X140041510Y-86774477D01*
X140046986Y-86754087D01*
X140055086Y-86737006D01*
X140059838Y-86734567D01*
X140060544Y-86744689D01*
X140159825Y-86744689D01*
X140159009Y-86736596D01*
X140160022Y-86735355D01*
X140165055Y-86736517D01*
X140165666Y-86740999D01*
X140286453Y-86740999D01*
X140286009Y-86736596D01*
X140287022Y-86735355D01*
X140292055Y-86736517D01*
X140292666Y-86740999D01*
X140643094Y-86740999D01*
X140644366Y-86719833D01*
X140165666Y-86719833D01*
X140161433Y-86724066D01*
X140157200Y-86719833D01*
X140161433Y-86715599D01*
X140165666Y-86719833D01*
X140644366Y-86719833D01*
X140644515Y-86717361D01*
X140645553Y-86679350D01*
X140645569Y-86677499D01*
X140174133Y-86677499D01*
X140169900Y-86681733D01*
X140165666Y-86677499D01*
X140169900Y-86673266D01*
X140174133Y-86677499D01*
X140645569Y-86677499D01*
X140645958Y-86632728D01*
X140645664Y-86580268D01*
X140645491Y-86567746D01*
X140644722Y-86507597D01*
X140644613Y-86461761D01*
X140645323Y-86427628D01*
X140647013Y-86402585D01*
X140649840Y-86384020D01*
X140653965Y-86369322D01*
X140658240Y-86358741D01*
X140667841Y-86333672D01*
X140673237Y-86312553D01*
X140673667Y-86307718D01*
X140677688Y-86286195D01*
X140682259Y-86275098D01*
X140689044Y-86256517D01*
X140697072Y-86225784D01*
X140701977Y-86203366D01*
X140273312Y-86203366D01*
X140272774Y-86223445D01*
X140271264Y-86230784D01*
X140269773Y-86226766D01*
X140268249Y-86203538D01*
X140269658Y-86184433D01*
X140271597Y-86178557D01*
X140272931Y-86187708D01*
X140273312Y-86203366D01*
X140701977Y-86203366D01*
X140705440Y-86187545D01*
X140713247Y-86146448D01*
X140719591Y-86107136D01*
X140722290Y-86084833D01*
X140165666Y-86084833D01*
X140161433Y-86089066D01*
X140157200Y-86084833D01*
X140161433Y-86080599D01*
X140165666Y-86084833D01*
X140722290Y-86084833D01*
X140723570Y-86074256D01*
X140724467Y-86057606D01*
X140726690Y-86026774D01*
X140732360Y-85990483D01*
X140736486Y-85971755D01*
X140739815Y-85950182D01*
X140743062Y-85913092D01*
X140745757Y-85868933D01*
X140258800Y-85868933D01*
X140255702Y-85875902D01*
X140253155Y-85874577D01*
X140252142Y-85864529D01*
X140253155Y-85863288D01*
X140258189Y-85864451D01*
X140258800Y-85868933D01*
X140745757Y-85868933D01*
X140746187Y-85861900D01*
X140748805Y-85805433D01*
X140258800Y-85805433D01*
X140254566Y-85809666D01*
X140250333Y-85805433D01*
X140254566Y-85801199D01*
X140258800Y-85805433D01*
X140748805Y-85805433D01*
X140749149Y-85798024D01*
X140750586Y-85758866D01*
X140258800Y-85758866D01*
X140255702Y-85765835D01*
X140253155Y-85764511D01*
X140252142Y-85754463D01*
X140253155Y-85753222D01*
X140258189Y-85754384D01*
X140258800Y-85758866D01*
X140750586Y-85758866D01*
X140751907Y-85722877D01*
X140752344Y-85708066D01*
X140258800Y-85708066D01*
X140255702Y-85715035D01*
X140253155Y-85713711D01*
X140252142Y-85703663D01*
X140253155Y-85702422D01*
X140258189Y-85703584D01*
X140258800Y-85708066D01*
X140752344Y-85708066D01*
X140753491Y-85669261D01*
X140258131Y-85669261D01*
X140256575Y-85680242D01*
X140253685Y-85680373D01*
X140251663Y-85669041D01*
X140253016Y-85664145D01*
X140256776Y-85660938D01*
X140258131Y-85669261D01*
X140753491Y-85669261D01*
X140754420Y-85637877D01*
X140756380Y-85555666D01*
X140258800Y-85555666D01*
X140255702Y-85562635D01*
X140253155Y-85561311D01*
X140252142Y-85551263D01*
X140253155Y-85550022D01*
X140258189Y-85551184D01*
X140258800Y-85555666D01*
X140756380Y-85555666D01*
X140756648Y-85544440D01*
X140757490Y-85499927D01*
X140249665Y-85499927D01*
X140248108Y-85510909D01*
X140245218Y-85511040D01*
X140243197Y-85499708D01*
X140244549Y-85494812D01*
X140248309Y-85491605D01*
X140249665Y-85499927D01*
X140757490Y-85499927D01*
X140758549Y-85443981D01*
X140760083Y-85337917D01*
X140761208Y-85227663D01*
X140761342Y-85205253D01*
X140247423Y-85205253D01*
X140246100Y-85208533D01*
X140238492Y-85216610D01*
X140237133Y-85217000D01*
X140233497Y-85210449D01*
X140233400Y-85208533D01*
X140239909Y-85200392D01*
X140242366Y-85200066D01*
X140247423Y-85205253D01*
X140761342Y-85205253D01*
X140761525Y-85174666D01*
X140241866Y-85174666D01*
X140238769Y-85181635D01*
X140236222Y-85180311D01*
X140235209Y-85170263D01*
X140236222Y-85169022D01*
X140241255Y-85170184D01*
X140241866Y-85174666D01*
X140761525Y-85174666D01*
X140761885Y-85114635D01*
X140761910Y-85106933D01*
X140030200Y-85106933D01*
X140027102Y-85113902D01*
X140024555Y-85112577D01*
X140023542Y-85102529D01*
X140024555Y-85101288D01*
X140029589Y-85102451D01*
X140030200Y-85106933D01*
X140761910Y-85106933D01*
X140761973Y-85088186D01*
X140762200Y-85023329D01*
X140762306Y-85009566D01*
X140487400Y-85009566D01*
X140483167Y-85013800D01*
X140478933Y-85009566D01*
X140483167Y-85005333D01*
X140487400Y-85009566D01*
X140762306Y-85009566D01*
X140762589Y-84973253D01*
X140762607Y-84972325D01*
X140459601Y-84972325D01*
X140457825Y-84980808D01*
X140457222Y-84982415D01*
X140450515Y-84992782D01*
X140446702Y-84992857D01*
X140447651Y-84983900D01*
X140452483Y-84977675D01*
X140459601Y-84972325D01*
X140762607Y-84972325D01*
X140763330Y-84935806D01*
X140764609Y-84908835D01*
X140766612Y-84890188D01*
X140769528Y-84877712D01*
X140773544Y-84869256D01*
X140778846Y-84862667D01*
X140781852Y-84859586D01*
X140809422Y-84843125D01*
X140828418Y-84840233D01*
X140240216Y-84840233D01*
X140239301Y-84854692D01*
X140236650Y-84855965D01*
X140236313Y-84855211D01*
X140234638Y-84838403D01*
X140235999Y-84829811D01*
X140238694Y-84826358D01*
X140240160Y-84837604D01*
X140240216Y-84840233D01*
X140828418Y-84840233D01*
X140855700Y-84840233D01*
X140856535Y-84772500D01*
X140858579Y-84729866D01*
X140863017Y-84704766D01*
X140233400Y-84704766D01*
X140229166Y-84709000D01*
X140224933Y-84704766D01*
X140229166Y-84700533D01*
X140233400Y-84704766D01*
X140863017Y-84704766D01*
X140864196Y-84698104D01*
X140874472Y-84671335D01*
X140875585Y-84669120D01*
X140886854Y-84641393D01*
X140893250Y-84614656D01*
X140893800Y-84607180D01*
X140898286Y-84577453D01*
X140909758Y-84551454D01*
X140921957Y-84538246D01*
X140923801Y-84535433D01*
X140428133Y-84535433D01*
X140423900Y-84539666D01*
X140419667Y-84535433D01*
X139784666Y-84535433D01*
X139780433Y-84539666D01*
X139776200Y-84535433D01*
X139780433Y-84531200D01*
X139784666Y-84535433D01*
X140419667Y-84535433D01*
X140423900Y-84531200D01*
X140428133Y-84535433D01*
X140923801Y-84535433D01*
X140927904Y-84529175D01*
X140382128Y-84529175D01*
X140373805Y-84530531D01*
X140362824Y-84528974D01*
X140362734Y-84526981D01*
X139669269Y-84526981D01*
X139659653Y-84528258D01*
X139640733Y-84528662D01*
X139619831Y-84528137D01*
X139611997Y-84526771D01*
X139617450Y-84525135D01*
X139644798Y-84523718D01*
X139664016Y-84525135D01*
X139669269Y-84526981D01*
X140362734Y-84526981D01*
X140362693Y-84526084D01*
X140374025Y-84524063D01*
X140378921Y-84525416D01*
X140382128Y-84529175D01*
X140927904Y-84529175D01*
X140929913Y-84526112D01*
X140932328Y-84517088D01*
X140340644Y-84517088D01*
X140339482Y-84522122D01*
X140335000Y-84522733D01*
X140329460Y-84520270D01*
X139517966Y-84520270D01*
X139397316Y-84521501D01*
X139349323Y-84521773D01*
X139315789Y-84521280D01*
X139294248Y-84519777D01*
X139282233Y-84517020D01*
X139277277Y-84512763D01*
X139276666Y-84509514D01*
X139279596Y-84501684D01*
X139291037Y-84499453D01*
X139314790Y-84502012D01*
X139340486Y-84505222D01*
X139376853Y-84508953D01*
X139417669Y-84512589D01*
X139435440Y-84514000D01*
X139517966Y-84520270D01*
X140329460Y-84520270D01*
X140328031Y-84519635D01*
X140329355Y-84517088D01*
X140339403Y-84516075D01*
X140340644Y-84517088D01*
X140932328Y-84517088D01*
X140933464Y-84512846D01*
X140938938Y-84489422D01*
X140945249Y-84470908D01*
X140952420Y-84440579D01*
X140953433Y-84426551D01*
X139394494Y-84426551D01*
X139388627Y-84428077D01*
X139369858Y-84429171D01*
X139342220Y-84429599D01*
X139341578Y-84429600D01*
X139312821Y-84428454D01*
X139292594Y-84425435D01*
X139285133Y-84421263D01*
X139292642Y-84418468D01*
X139311594Y-84417495D01*
X139336627Y-84418085D01*
X139362379Y-84419978D01*
X139383488Y-84422916D01*
X139394494Y-84426551D01*
X140953433Y-84426551D01*
X140955435Y-84398856D01*
X140954391Y-84350733D01*
X140949382Y-84301207D01*
X140941185Y-84258008D01*
X140933129Y-84222189D01*
X140929807Y-84196907D01*
X140930902Y-84176538D01*
X140935533Y-84157330D01*
X140940217Y-84137557D01*
X140941177Y-84117809D01*
X140938086Y-84092996D01*
X140930618Y-84058025D01*
X140928608Y-84049522D01*
X140919129Y-84009498D01*
X140907591Y-83960358D01*
X140895727Y-83909493D01*
X140888720Y-83879266D01*
X140874357Y-83824402D01*
X140858919Y-83778251D01*
X140843706Y-83744644D01*
X140841909Y-83741556D01*
X140826501Y-83711560D01*
X140819241Y-83682748D01*
X140817600Y-83650501D01*
X140815285Y-83618815D01*
X140809112Y-83578064D01*
X140800236Y-83535355D01*
X140796433Y-83520239D01*
X140786466Y-83479000D01*
X140780096Y-83441359D01*
X140776619Y-83401128D01*
X140775331Y-83352120D01*
X140775267Y-83334132D01*
X140774952Y-83288034D01*
X140773446Y-83253447D01*
X140769907Y-83224953D01*
X140763494Y-83197131D01*
X140753365Y-83164564D01*
X140745215Y-83140672D01*
X140729826Y-83093297D01*
X140712911Y-83036370D01*
X140695334Y-82973307D01*
X140677964Y-82907523D01*
X140661666Y-82842436D01*
X140647306Y-82781461D01*
X140635752Y-82728015D01*
X140627869Y-82685513D01*
X140625469Y-82668533D01*
X140621433Y-82643586D01*
X140616476Y-82625649D01*
X140614572Y-82621966D01*
X140609453Y-82610273D01*
X140601566Y-82586665D01*
X140592376Y-82555624D01*
X140589648Y-82545766D01*
X140571009Y-82477618D01*
X140555177Y-82420442D01*
X140540651Y-82368837D01*
X140534372Y-82346799D01*
X140524868Y-82313414D01*
X140522339Y-82304466D01*
X139429066Y-82304466D01*
X139422624Y-82312687D01*
X139420600Y-82312933D01*
X139412379Y-82306490D01*
X139412133Y-82304466D01*
X139418576Y-82296246D01*
X139420600Y-82295999D01*
X139428820Y-82302442D01*
X139429066Y-82304466D01*
X140522339Y-82304466D01*
X140515556Y-82280471D01*
X140511598Y-82266366D01*
X140502374Y-82237048D01*
X140492167Y-82209594D01*
X140490843Y-82206467D01*
X140483954Y-82184992D01*
X140476636Y-82153428D01*
X140470443Y-82118505D01*
X140470304Y-82117567D01*
X140464548Y-82082796D01*
X140458229Y-82051314D01*
X140452684Y-82029765D01*
X140452530Y-82029299D01*
X140444484Y-81998860D01*
X140436352Y-81957340D01*
X140429007Y-81910564D01*
X140423322Y-81864358D01*
X140420172Y-81824547D01*
X140419814Y-81811168D01*
X140418432Y-81781712D01*
X140415030Y-81757634D01*
X140411922Y-81747668D01*
X140407864Y-81733438D01*
X140403004Y-81706586D01*
X140398037Y-81671355D01*
X140394743Y-81642784D01*
X140383931Y-81562235D01*
X140369776Y-81493822D01*
X140365104Y-81478966D01*
X139462933Y-81478966D01*
X139458700Y-81483200D01*
X139454466Y-81478966D01*
X139458700Y-81474733D01*
X139462933Y-81478966D01*
X140365104Y-81478966D01*
X140352727Y-81439615D01*
X140348246Y-81428930D01*
X140334750Y-81384822D01*
X140332583Y-81351966D01*
X139556066Y-81351966D01*
X139551833Y-81356200D01*
X139547600Y-81351966D01*
X139551833Y-81347733D01*
X139556066Y-81351966D01*
X140332583Y-81351966D01*
X140331821Y-81340420D01*
X140334127Y-81328775D01*
X139569328Y-81328775D01*
X139561005Y-81330131D01*
X139550024Y-81328574D01*
X139549893Y-81325684D01*
X139561225Y-81323663D01*
X139566121Y-81325016D01*
X139569328Y-81328775D01*
X140334127Y-81328775D01*
X140338757Y-81305400D01*
X140357629Y-81256320D01*
X140377553Y-81205798D01*
X140397073Y-81157407D01*
X140414733Y-81114722D01*
X140429076Y-81081316D01*
X140437463Y-81063110D01*
X140454594Y-81037642D01*
X140484060Y-81004451D01*
X140524148Y-80965274D01*
X140573145Y-80921844D01*
X140594777Y-80903735D01*
X140627118Y-80868290D01*
X140657976Y-80816915D01*
X140686941Y-80750578D01*
X140689666Y-80742366D01*
X140020083Y-80742366D01*
X140019167Y-80756826D01*
X140016517Y-80758099D01*
X140016180Y-80757344D01*
X140014505Y-80740536D01*
X140015866Y-80731944D01*
X140018561Y-80728491D01*
X140020027Y-80739737D01*
X140020083Y-80742366D01*
X140689666Y-80742366D01*
X140713603Y-80670250D01*
X140737550Y-80576899D01*
X140742117Y-80556099D01*
X140750864Y-80515223D01*
X140759658Y-80474223D01*
X140766926Y-80440427D01*
X140768456Y-80433333D01*
X140775190Y-80406912D01*
X140781956Y-80387859D01*
X140785804Y-80381756D01*
X140790569Y-80371406D01*
X140796099Y-80349040D01*
X140801210Y-80319461D01*
X140801287Y-80318916D01*
X140806410Y-80288473D01*
X140811945Y-80264395D01*
X140816663Y-80251960D01*
X140825578Y-80232843D01*
X140833171Y-80203144D01*
X140838375Y-80169210D01*
X140840122Y-80137392D01*
X140838811Y-80120331D01*
X140824065Y-80075264D01*
X140808247Y-80048100D01*
X140011131Y-80048100D01*
X140010450Y-80065525D01*
X140008531Y-80070022D01*
X140007449Y-80067248D01*
X140005872Y-80046916D01*
X140007278Y-80033382D01*
X140009509Y-80028689D01*
X140010912Y-80038866D01*
X140011131Y-80048100D01*
X140808247Y-80048100D01*
X140794216Y-80024008D01*
X140749674Y-79967161D01*
X140717091Y-79932861D01*
X140076186Y-79932861D01*
X140074877Y-79943796D01*
X140070170Y-79948096D01*
X140058247Y-79959223D01*
X140042999Y-79977990D01*
X140039782Y-79982483D01*
X140025675Y-80000007D01*
X140014406Y-80009463D01*
X140012431Y-80010000D01*
X140002444Y-80015870D01*
X139986464Y-80030743D01*
X139978014Y-80039917D01*
X139959998Y-80057870D01*
X139948840Y-80064571D01*
X139946504Y-80060314D01*
X139954959Y-80045396D01*
X139961098Y-80037378D01*
X139977139Y-80013887D01*
X139988876Y-79990950D01*
X139997961Y-79974323D01*
X140006534Y-79967666D01*
X140011540Y-79973837D01*
X140010309Y-79980095D01*
X140010074Y-79993517D01*
X140013027Y-79997151D01*
X140021024Y-79994139D01*
X140026014Y-79984450D01*
X140034881Y-79966728D01*
X140048380Y-79949226D01*
X140062547Y-79936021D01*
X140073415Y-79931191D01*
X140076186Y-79932861D01*
X140717091Y-79932861D01*
X140691924Y-79906368D01*
X140661871Y-79877657D01*
X140199578Y-79877657D01*
X140190470Y-79885215D01*
X140188950Y-79885859D01*
X140169588Y-79890555D01*
X140158306Y-79887330D01*
X140157200Y-79883987D01*
X140164430Y-79876987D01*
X140178366Y-79872461D01*
X140194667Y-79872296D01*
X140199578Y-79877657D01*
X140661871Y-79877657D01*
X140655696Y-79871758D01*
X140627738Y-79847271D01*
X140604866Y-79830559D01*
X140583898Y-79819271D01*
X140563600Y-79811674D01*
X140532517Y-79800521D01*
X140504003Y-79788254D01*
X140491633Y-79781804D01*
X140478923Y-79775492D01*
X140464214Y-79771640D01*
X140443972Y-79770010D01*
X140414662Y-79770366D01*
G37*
X140414662Y-79770366D02*
X140372750Y-79772469D01*
X140362160Y-79773102D01*
X140313806Y-79776636D01*
X140279767Y-79780689D01*
X140257428Y-79785708D01*
X140244173Y-79792140D01*
X140242512Y-79793515D01*
X140223716Y-79805362D01*
X140198762Y-79815360D01*
X140196301Y-79816070D01*
X140176495Y-79823386D01*
X140166116Y-79830826D01*
X140165667Y-79832271D01*
X140158288Y-79838962D01*
X140139707Y-79846712D01*
X140130048Y-79849605D01*
X140094510Y-79866264D01*
X140062070Y-79895958D01*
X140038114Y-79920393D01*
X140012708Y-79942157D01*
X140000321Y-79950884D01*
X139981802Y-79964652D01*
X139971614Y-79976736D01*
X139970933Y-79979363D01*
X139965458Y-79994231D01*
X139961613Y-79999000D01*
X139953058Y-80012073D01*
X139940587Y-80036432D01*
X139926106Y-80067667D01*
X139911525Y-80101367D01*
X139898752Y-80133121D01*
X139889697Y-80158518D01*
X139886266Y-80173128D01*
X139882297Y-80193534D01*
X139877107Y-80206028D01*
X139872236Y-80226990D01*
X139872818Y-80257663D01*
X139873668Y-80264738D01*
X139878550Y-80290476D01*
X139885291Y-80303076D01*
X139895528Y-80306333D01*
X139908891Y-80308127D01*
X139909192Y-80315204D01*
X139896351Y-80330106D01*
X139894733Y-80331733D01*
X139885516Y-80344170D01*
X139880299Y-80361466D01*
X139878091Y-80388244D01*
X139877800Y-80410755D01*
X139878612Y-80441852D01*
X139880752Y-80466098D01*
X139883779Y-80478717D01*
X139884150Y-80479194D01*
X139889536Y-80491730D01*
X139892265Y-80508122D01*
X139896773Y-80559717D01*
X139901225Y-80596371D01*
X139906019Y-80620067D01*
X139911556Y-80632793D01*
X139918140Y-80636533D01*
X139924721Y-80639109D01*
X139927905Y-80649047D01*
X139928136Y-80669661D01*
X139926351Y-80697916D01*
X139923260Y-80735730D01*
X139920166Y-80761167D01*
X139915897Y-80778745D01*
X139909282Y-80792980D01*
X139899149Y-80808388D01*
X139896850Y-80811651D01*
X139882233Y-80835604D01*
X139879673Y-80853470D01*
X139889515Y-80871391D01*
X139900934Y-80884120D01*
X139915026Y-80900994D01*
X139917031Y-80910985D01*
X139912697Y-80915296D01*
X139895568Y-80919129D01*
X139884092Y-80917817D01*
X139871849Y-80916997D01*
X139869961Y-80926741D01*
X139871240Y-80933672D01*
X139877192Y-80955804D01*
X139881557Y-80968085D01*
X139881140Y-80981653D01*
X139872062Y-80987122D01*
X139857862Y-80996962D01*
X139841038Y-81015531D01*
X139835843Y-81022700D01*
X139816405Y-81045349D01*
X139789860Y-81069223D01*
X139774474Y-81080621D01*
X139756295Y-81094707D01*
X139728570Y-81118534D01*
X139693744Y-81149885D01*
X139654265Y-81186545D01*
X139612580Y-81226302D01*
X139599261Y-81239230D01*
X139555182Y-81282402D01*
X139521872Y-81315672D01*
X139497842Y-81340821D01*
X139481604Y-81359630D01*
X139471668Y-81373881D01*
X139466546Y-81385354D01*
X139464748Y-81395830D01*
X139464626Y-81400284D01*
X139458329Y-81433485D01*
X139441699Y-81464705D01*
X139418135Y-81490181D01*
X139391031Y-81506148D01*
X139366301Y-81509261D01*
X139347137Y-81502956D01*
X139324332Y-81490604D01*
X139303069Y-81475701D01*
X139288533Y-81461744D01*
X139285133Y-81454497D01*
X139291102Y-81439755D01*
X139297833Y-81432399D01*
X139307351Y-81418610D01*
X139310290Y-81402751D01*
X139306083Y-81391674D01*
X139301334Y-81390066D01*
X139289751Y-81385444D01*
X139269883Y-81373573D01*
X139254767Y-81363231D01*
X139232621Y-81345854D01*
X139221457Y-81331312D01*
X139217664Y-81313851D01*
X139217400Y-81303692D01*
X139220946Y-81272485D01*
X139229523Y-81241994D01*
X139229956Y-81240937D01*
X139240301Y-81208743D01*
X139250483Y-81163639D01*
X139259806Y-81109640D01*
X139267574Y-81050761D01*
X139272989Y-80992470D01*
X139276961Y-80948459D01*
X139282288Y-80916881D01*
X139290243Y-80893234D01*
X139302097Y-80873018D01*
X139309504Y-80863264D01*
X139314095Y-80854069D01*
X139316890Y-80838552D01*
X139317997Y-80814125D01*
X139317525Y-80778201D01*
X139315582Y-80728189D01*
X139315369Y-80723564D01*
X139312806Y-80678910D01*
X139309656Y-80640172D01*
X139306252Y-80610553D01*
X139302924Y-80593258D01*
X139301582Y-80590390D01*
X139295878Y-80576769D01*
X139293600Y-80556295D01*
X139286332Y-80528252D01*
X139268037Y-80497539D01*
X139207724Y-80497539D01*
X139205531Y-80507784D01*
X139200467Y-80509533D01*
X139192484Y-80502915D01*
X139192000Y-80499616D01*
X139186766Y-80485991D01*
X139178568Y-80474858D01*
X139169831Y-80463953D01*
X139173441Y-80461443D01*
X139180084Y-80462210D01*
X139192628Y-80469246D01*
X139202632Y-80482857D01*
X139207724Y-80497539D01*
X139268037Y-80497539D01*
X139264585Y-80491744D01*
X139258853Y-80483905D01*
X139237562Y-80457557D01*
X139220013Y-80442143D01*
X139201375Y-80433992D01*
X139189761Y-80431426D01*
X139159549Y-80422195D01*
X139129503Y-80407399D01*
X139125024Y-80404498D01*
X139096611Y-80389348D01*
X139065788Y-80378815D01*
X139060767Y-80377785D01*
X139036070Y-80371702D01*
X139017582Y-80364105D01*
X139015021Y-80362379D01*
X138999356Y-80356969D01*
X138970884Y-80353353D01*
X138933631Y-80351495D01*
X138891623Y-80351359D01*
X138848886Y-80352909D01*
X138809449Y-80356107D01*
X138777336Y-80360919D01*
X138763005Y-80364650D01*
X138698108Y-80395057D01*
X138640453Y-80438746D01*
X138609362Y-80472367D01*
X138588501Y-80497472D01*
X138568874Y-80519304D01*
X138558028Y-80530076D01*
X138546414Y-80544450D01*
X138549093Y-80552212D01*
X138553671Y-80561047D01*
X138553368Y-80580717D01*
X138548503Y-80612102D01*
X138542720Y-80645924D01*
X138538081Y-80677714D01*
X138536044Y-80695799D01*
X138531729Y-80734398D01*
X138525790Y-80769682D01*
X138519210Y-80796383D01*
X138515485Y-80805866D01*
X138512272Y-80823402D01*
X138513093Y-80851338D01*
X138517139Y-80883850D01*
X138523596Y-80915114D01*
X138531654Y-80939306D01*
X138534921Y-80945363D01*
X138544847Y-80963593D01*
X138548533Y-80975843D01*
X138553681Y-80986825D01*
X138566861Y-81006039D01*
X138584680Y-81029222D01*
X138603745Y-81052111D01*
X138620661Y-81070441D01*
X138630858Y-81079279D01*
X138645831Y-81096752D01*
X138658399Y-81125562D01*
X138667178Y-81160140D01*
X138670781Y-81194922D01*
X138667823Y-81224339D01*
X138667362Y-81225960D01*
X138662202Y-81239709D01*
X138659408Y-81240542D01*
X138659328Y-81239783D01*
X138652681Y-81229670D01*
X138637505Y-81229349D01*
X138617740Y-81237152D01*
X138597321Y-81251411D01*
X138580186Y-81270457D01*
X138577691Y-81274371D01*
X138569228Y-81292726D01*
X138564551Y-81315455D01*
X138562945Y-81347374D01*
X138563143Y-81372233D01*
X138561240Y-81427563D01*
X138551824Y-81469768D01*
X138533117Y-81501654D01*
X138503344Y-81526028D01*
X138460725Y-81545698D01*
X138451167Y-81549088D01*
X138421698Y-81559981D01*
X138382666Y-81575508D01*
X138339926Y-81593300D01*
X138311467Y-81605602D01*
X138266726Y-81625468D01*
X138231210Y-81641815D01*
X138198543Y-81657713D01*
X138162354Y-81676235D01*
X138133013Y-81691616D01*
X138111139Y-81707116D01*
X138081576Y-81733710D01*
X138046628Y-81768826D01*
X138008601Y-81809889D01*
X137969800Y-81854325D01*
X137932533Y-81899560D01*
X137899102Y-81943022D01*
X137871815Y-81982135D01*
X137869372Y-81985930D01*
X137861276Y-82001277D01*
X137850775Y-82024380D01*
X137840272Y-82049492D01*
X137832169Y-82070868D01*
X137828867Y-82082761D01*
X137828866Y-82082832D01*
X137823047Y-82094221D01*
X137815802Y-82101569D01*
X137803081Y-82117912D01*
X137787753Y-82146188D01*
X137771818Y-82182033D01*
X137757273Y-82221083D01*
X137749389Y-82246556D01*
X137741185Y-82274030D01*
X137729269Y-82311698D01*
X137715498Y-82353763D01*
X137706447Y-82380666D01*
X137689792Y-82429821D01*
X137677632Y-82466595D01*
X137668907Y-82494602D01*
X137662558Y-82517457D01*
X137657525Y-82538775D01*
X137652746Y-82562170D01*
X137651822Y-82566933D01*
X137645027Y-82609710D01*
X137638582Y-82663900D01*
X137632965Y-82723982D01*
X137628656Y-82784437D01*
X137626132Y-82839744D01*
X137625674Y-82868540D01*
X137620627Y-82932180D01*
X137604417Y-82986768D01*
X137575417Y-83037243D01*
X137566009Y-83049759D01*
X137550108Y-83075465D01*
X137535194Y-83108393D01*
X137528626Y-83127592D01*
X137520496Y-83185189D01*
X137527536Y-83248477D01*
X137549560Y-83316012D01*
X137554439Y-83327067D01*
X137566788Y-83359670D01*
X137573105Y-83393303D01*
X137574866Y-83435438D01*
X137577145Y-83481722D01*
X137585370Y-83516057D01*
X137601629Y-83542978D01*
X137628010Y-83567025D01*
X137639017Y-83574914D01*
X137670364Y-83600967D01*
X137694475Y-83629697D01*
X137708251Y-83656992D01*
X137710302Y-83669429D01*
X137706802Y-83686383D01*
X137698146Y-83709377D01*
X137696204Y-83713587D01*
X137688843Y-83730956D01*
X137686453Y-83745936D01*
X137689157Y-83764534D01*
X137697076Y-83792755D01*
X137697864Y-83795363D01*
X137710866Y-83832664D01*
X137723888Y-83855868D01*
X137739060Y-83867675D01*
X137757307Y-83870800D01*
X137772886Y-83875102D01*
X137786260Y-83890334D01*
X137794802Y-83906256D01*
X137805363Y-83932615D01*
X137811392Y-83956382D01*
X137811933Y-83962737D01*
X137816832Y-83987219D01*
X137829612Y-84019371D01*
X137847400Y-84053783D01*
X137867321Y-84085047D01*
X137886501Y-84107754D01*
X137891038Y-84111608D01*
X137916811Y-84126056D01*
X137944317Y-84134374D01*
X137947178Y-84134721D01*
X137968036Y-84139120D01*
X137979471Y-84150756D01*
X137985683Y-84167133D01*
X138003816Y-84215255D01*
X138027599Y-84255123D01*
X138050463Y-84283049D01*
X138069010Y-84306382D01*
X138082267Y-84327976D01*
X138086125Y-84338082D01*
X138087349Y-84351125D01*
X138089018Y-84378892D01*
X138091031Y-84419185D01*
X138093286Y-84469804D01*
X138095684Y-84528551D01*
X138098125Y-84593224D01*
X138099381Y-84628566D01*
X138102055Y-84701310D01*
X138105004Y-84774482D01*
X138108079Y-84844783D01*
X138111125Y-84908912D01*
X138113992Y-84963569D01*
X138116528Y-85005454D01*
X138117111Y-85013800D01*
X138120706Y-85065258D01*
X138124783Y-85126784D01*
X138128900Y-85191537D01*
X138132617Y-85252677D01*
X138133501Y-85267800D01*
X138137067Y-85327328D01*
X138141189Y-85392865D01*
X138145415Y-85457369D01*
X138149288Y-85513799D01*
X138150164Y-85526033D01*
X138155411Y-85599522D01*
X138161179Y-85681975D01*
X138167221Y-85769744D01*
X138173291Y-85859183D01*
X138179145Y-85946645D01*
X138184536Y-86028482D01*
X138189219Y-86101050D01*
X138192949Y-86160700D01*
X138193226Y-86165266D01*
X138196503Y-86211806D01*
X138200347Y-86254681D01*
X138204341Y-86289885D01*
X138208069Y-86313410D01*
X138209095Y-86317666D01*
X138212818Y-86337911D01*
X138216545Y-86370412D01*
X138219817Y-86410498D01*
X138221980Y-86448899D01*
X138225441Y-86499741D01*
X138230913Y-86547525D01*
X138237691Y-86586699D01*
X138241342Y-86601299D01*
X138252328Y-86659276D01*
X138255636Y-86731924D01*
X138255632Y-86732533D01*
X138255047Y-86773639D01*
X138253877Y-86826234D01*
X138252210Y-86887929D01*
X138250135Y-86956331D01*
X138247741Y-87029049D01*
X138245117Y-87103692D01*
X138242351Y-87177868D01*
X138239533Y-87249187D01*
X138236751Y-87315257D01*
X138234094Y-87373687D01*
X138231652Y-87422086D01*
X138229512Y-87458062D01*
X138227944Y-87477600D01*
X138225450Y-87530704D01*
X138227935Y-87585428D01*
X138229933Y-87602443D01*
X138234386Y-87656136D01*
X138230713Y-87701658D01*
X138229443Y-87708276D01*
X138224675Y-87739335D01*
X138226135Y-87760855D01*
X138231166Y-87774025D01*
X138244568Y-87791841D01*
X138267967Y-87815406D01*
X138297280Y-87841065D01*
X138328425Y-87865164D01*
X138347383Y-87878048D01*
X138363461Y-87891847D01*
X138369249Y-87909951D01*
X138369391Y-87924368D01*
X138370658Y-87960890D01*
X138378336Y-87982941D01*
X138393162Y-87992005D01*
X138403124Y-87992170D01*
X138418584Y-87992574D01*
X138425723Y-88001221D01*
X138428563Y-88019277D01*
X138429807Y-88038333D01*
X138426871Y-88043105D01*
X138417462Y-88036134D01*
X138415197Y-88034094D01*
X138400949Y-88023024D01*
X138393243Y-88019466D01*
X138385703Y-88026924D01*
X138375447Y-88046422D01*
X138364149Y-88073642D01*
X138353481Y-88104268D01*
X138345114Y-88133985D01*
X138341289Y-88153560D01*
X138339033Y-88181166D01*
X138342099Y-88204584D01*
X138351915Y-88231538D01*
X138358341Y-88245655D01*
X138377929Y-88279899D01*
X138403157Y-88314450D01*
X138418725Y-88331811D01*
X138456125Y-88368989D01*
X138521379Y-88364070D01*
X138555928Y-88360760D01*
X138577747Y-88356346D01*
X138591041Y-88349534D01*
X138599333Y-88340069D01*
X138613605Y-88322084D01*
X138624286Y-88312043D01*
X138635561Y-88302184D01*
X138655126Y-88283553D01*
X138679470Y-88259523D01*
X138689560Y-88249358D01*
X138725849Y-88209595D01*
X138758002Y-88167160D01*
X138769988Y-88148035D01*
X138498908Y-88148035D01*
X138498076Y-88161083D01*
X138481830Y-88179426D01*
X138478579Y-88182222D01*
X138448854Y-88201070D01*
X138422304Y-88204049D01*
X138399868Y-88193638D01*
X138388784Y-88184136D01*
X138391352Y-88178785D01*
X138398201Y-88175817D01*
X138408810Y-88167918D01*
X138404959Y-88160319D01*
X138388980Y-88155517D01*
X138378700Y-88154933D01*
X138359453Y-88150345D01*
X138353948Y-88136418D01*
X138362162Y-88112905D01*
X138373187Y-88094802D01*
X138392295Y-88072812D01*
X138408713Y-88067264D01*
X138422116Y-88078216D01*
X138425658Y-88085083D01*
X138435959Y-88099730D01*
X138444708Y-88104133D01*
X138453967Y-88108062D01*
X138454397Y-88110483D01*
X138454025Y-88123599D01*
X138454397Y-88132686D01*
X138457309Y-88143377D01*
X138466479Y-88139318D01*
X138468100Y-88138000D01*
X138478846Y-88123849D01*
X138480800Y-88116296D01*
X138487151Y-88101895D01*
X138490494Y-88099141D01*
X138496853Y-88099973D01*
X138496006Y-88115027D01*
X138495342Y-88135751D01*
X138498908Y-88148035D01*
X138769988Y-88148035D01*
X138789043Y-88117631D01*
X138821995Y-88056586D01*
X138823700Y-88053245D01*
X138851844Y-88009372D01*
X138887617Y-87976028D01*
X138890125Y-87974223D01*
X138915917Y-87953306D01*
X138937947Y-87930986D01*
X138947217Y-87918668D01*
X138966216Y-87896808D01*
X138990835Y-87879156D01*
X138992975Y-87878089D01*
X139013464Y-87865477D01*
X139021738Y-87850612D01*
X139022667Y-87839541D01*
X139019466Y-87815051D01*
X139013540Y-87798100D01*
X139008657Y-87781387D01*
X139004462Y-87753601D01*
X139001827Y-87720598D01*
X139001751Y-87718888D01*
X138999791Y-87687426D01*
X138997109Y-87662474D01*
X138994253Y-87648990D01*
X138993974Y-87648455D01*
X138989799Y-87635410D01*
X138985528Y-87612759D01*
X138984324Y-87604081D01*
X138973862Y-87542626D01*
X138957285Y-87482631D01*
X138943512Y-87443683D01*
X138925917Y-87392491D01*
X138915497Y-87348935D01*
X138910999Y-87305965D01*
X138911004Y-87261088D01*
X138909580Y-87212536D01*
X138902082Y-87175545D01*
X138900172Y-87170523D01*
X138892802Y-87142523D01*
X138889182Y-87106863D01*
X138889306Y-87069642D01*
X138893162Y-87036961D01*
X138900403Y-87015463D01*
X138909999Y-86993516D01*
X138915364Y-86973130D01*
X138920982Y-86949490D01*
X138929898Y-86920357D01*
X138933081Y-86911238D01*
X138941635Y-86878026D01*
X138945873Y-86842489D01*
X138945980Y-86835038D01*
X138945733Y-86762659D01*
X138947149Y-86696006D01*
X138950074Y-86637204D01*
X138954355Y-86588380D01*
X138959839Y-86551660D01*
X138966373Y-86529172D01*
X138968228Y-86525915D01*
X138975720Y-86505722D01*
X138979828Y-86473963D01*
X138980333Y-86456516D01*
X138982291Y-86423006D01*
X138987335Y-86391799D01*
X138992060Y-86375850D01*
X138998986Y-86346625D01*
X139001713Y-86302417D01*
X139001321Y-86266866D01*
X139001907Y-86205950D01*
X139007906Y-86160754D01*
X139011208Y-86148837D01*
X139017967Y-86120892D01*
X139023715Y-86084087D01*
X139027145Y-86047237D01*
X139029818Y-86007893D01*
X139033718Y-85960483D01*
X139038112Y-85913761D01*
X139039245Y-85902799D01*
X139043842Y-85856253D01*
X139048352Y-85805374D01*
X139051941Y-85759689D01*
X139052525Y-85751252D01*
X139055743Y-85716316D01*
X139060072Y-85686460D01*
X139064715Y-85666873D01*
X139065972Y-85663916D01*
X139068825Y-85650608D01*
X139071554Y-85623302D01*
X139073975Y-85584933D01*
X139075904Y-85538435D01*
X139077158Y-85486745D01*
X139077181Y-85485263D01*
X139079559Y-85402046D01*
X139083926Y-85334881D01*
X139090403Y-85282991D01*
X139099107Y-85245600D01*
X139110159Y-85221929D01*
X139118967Y-85213339D01*
X139132777Y-85209488D01*
X139145252Y-85219550D01*
X139146554Y-85221233D01*
X139153114Y-85233743D01*
X139155734Y-85251408D01*
X139154738Y-85278636D01*
X139152514Y-85301666D01*
X139148186Y-85362806D01*
X139148342Y-85420623D01*
X139152839Y-85470199D01*
X139158165Y-85496196D01*
X139161799Y-85516442D01*
X139165461Y-85548946D01*
X139168701Y-85589041D01*
X139170874Y-85627539D01*
X139173091Y-85674109D01*
X139175902Y-85728135D01*
X139179117Y-85786462D01*
X139182548Y-85845935D01*
X139186005Y-85903399D01*
X139189301Y-85955697D01*
X139192247Y-85999675D01*
X139194653Y-86032176D01*
X139195948Y-86046733D01*
X139203830Y-86112406D01*
X139212572Y-86168124D01*
X139221750Y-86211517D01*
X139230426Y-86239026D01*
X139238458Y-86265330D01*
X139245079Y-86299763D01*
X139248018Y-86325339D01*
X139251343Y-86356105D01*
X139255893Y-86381502D01*
X139259931Y-86394235D01*
X139263297Y-86408709D01*
X139265924Y-86435610D01*
X139267455Y-86470435D01*
X139267701Y-86492395D01*
X139268850Y-86538700D01*
X139271972Y-86588362D01*
X139276466Y-86632583D01*
X139278017Y-86643633D01*
X139281769Y-86678353D01*
X139284544Y-86724604D01*
X139286118Y-86776998D01*
X139286264Y-86830149D01*
X139286140Y-86838366D01*
X139285785Y-86888350D01*
X139286804Y-86935144D01*
X139289506Y-86982056D01*
X139294199Y-87032393D01*
X139301190Y-87089460D01*
X139310787Y-87156566D01*
X139323184Y-87236300D01*
X139331306Y-87294847D01*
X139334989Y-87340216D01*
X139334205Y-87371421D01*
X139328927Y-87387476D01*
X139327467Y-87388700D01*
X139321399Y-87400129D01*
X139319000Y-87419170D01*
X139315071Y-87443093D01*
X139305330Y-87470787D01*
X139302317Y-87477108D01*
X139297304Y-87488237D01*
X139292851Y-87501720D01*
X139288759Y-87519224D01*
X139284827Y-87542416D01*
X139280857Y-87572961D01*
X139276646Y-87612527D01*
X139271997Y-87662781D01*
X139266708Y-87725389D01*
X139260579Y-87802017D01*
X139255515Y-87867066D01*
X139250747Y-87922640D01*
X139245181Y-87977764D01*
X139239318Y-88028060D01*
X139233658Y-88069148D01*
X139229820Y-88091433D01*
X139222507Y-88132704D01*
X139216650Y-88177385D01*
X139212137Y-88227620D01*
X139208858Y-88285550D01*
X139206698Y-88353317D01*
X139205548Y-88433064D01*
X139205293Y-88526934D01*
X139205376Y-88558630D01*
X139205749Y-88628617D01*
X139206373Y-88683674D01*
X139207367Y-88725805D01*
X139208850Y-88757012D01*
X139210939Y-88779299D01*
X139213751Y-88794669D01*
X139217406Y-88805125D01*
X139220181Y-88810071D01*
X139228232Y-88827717D01*
X139225772Y-88836558D01*
X139218961Y-88849254D01*
X139217958Y-88870167D01*
X139222508Y-88891700D01*
X139227983Y-88902004D01*
X139242586Y-88912730D01*
X139265978Y-88922625D01*
X139273564Y-88924850D01*
X139305916Y-88937211D01*
X139322943Y-88954113D01*
X139325959Y-88976969D01*
X139325379Y-88980511D01*
X139324298Y-88992093D01*
X139328108Y-89000021D01*
X139339514Y-89005251D01*
X139361222Y-89008738D01*
X139395938Y-89011437D01*
X139416366Y-89012641D01*
X139463688Y-89012512D01*
X139495476Y-89005904D01*
X139498916Y-89004346D01*
X139517604Y-88997396D01*
X139534276Y-88999706D01*
X139548342Y-89006217D01*
X139565661Y-89020435D01*
X139582495Y-89042488D01*
X139596016Y-89067255D01*
X139603399Y-89089618D01*
X139602233Y-89103846D01*
X139599876Y-89117740D01*
X139601693Y-89139225D01*
X139601926Y-89140509D01*
X139615549Y-89167794D01*
X139645601Y-89193421D01*
X139691639Y-89217187D01*
X139753220Y-89238887D01*
X139829903Y-89258317D01*
X139877800Y-89267860D01*
X139978856Y-89285799D01*
X140076717Y-89302078D01*
X140167197Y-89316030D01*
X140246111Y-89326987D01*
X140258800Y-89328594D01*
X140305175Y-89334922D01*
X140352446Y-89342305D01*
X140393983Y-89349665D01*
X140415433Y-89354075D01*
X140454171Y-89361671D01*
X140500233Y-89369065D01*
X140544063Y-89374731D01*
X140546667Y-89375009D01*
X140589968Y-89379802D01*
X140636141Y-89385283D01*
X140675654Y-89390319D01*
X140677900Y-89390622D01*
X140727699Y-89395381D01*
X140784091Y-89397571D01*
X140841750Y-89397263D01*
X140895349Y-89394532D01*
X140939561Y-89389449D01*
X140953066Y-89386855D01*
X141015309Y-89371416D01*
X141064259Y-89355743D01*
X141103523Y-89338501D01*
X141135234Y-89319381D01*
X141163364Y-89300599D01*
X141190492Y-89283692D01*
X141204290Y-89275819D01*
X141227765Y-89254575D01*
X141240104Y-89224190D01*
X141240850Y-89188664D01*
X141229545Y-89151995D01*
X141220270Y-89135988D01*
X141205878Y-89118705D01*
X141188142Y-89106922D01*
X141163718Y-89099665D01*
X141129264Y-89095959D01*
X141081438Y-89094832D01*
X141078984Y-89094826D01*
X141035882Y-89091832D01*
X140999072Y-89083739D01*
X140972098Y-89071659D01*
X140958647Y-89057091D01*
X140948337Y-89048297D01*
X140941544Y-89048886D01*
X140925728Y-89047769D01*
X140900529Y-89038246D01*
X140869898Y-89022353D01*
X140837784Y-89002122D01*
X140809934Y-88981102D01*
X140788246Y-88964353D01*
X140770849Y-88953347D01*
X140763882Y-88950798D01*
X140749156Y-88945736D01*
X140724864Y-88932133D01*
X140694387Y-88912360D01*
X140661107Y-88888791D01*
X140628406Y-88863796D01*
X140599664Y-88839749D01*
X140582650Y-88823669D01*
X140554200Y-88791262D01*
X140540124Y-88766878D01*
X140540182Y-88749985D01*
X140546667Y-88743366D01*
X140552697Y-88731163D01*
X140554901Y-88708351D01*
X140553491Y-88680768D01*
X140548679Y-88654248D01*
X140544113Y-88641797D01*
X139967950Y-88641797D01*
X139967201Y-88657970D01*
X139966501Y-88665752D01*
X139961525Y-88700816D01*
X139954892Y-88719212D01*
X139950167Y-88722200D01*
X139949936Y-88714895D01*
X139949962Y-88714732D01*
X139886266Y-88714732D01*
X139881050Y-88719323D01*
X139877800Y-88717966D01*
X139871804Y-88721275D01*
X139869337Y-88737747D01*
X139869333Y-88738633D01*
X139866734Y-88756679D01*
X139860454Y-88764522D01*
X139860194Y-88764533D01*
X139854920Y-88757159D01*
X139856956Y-88737016D01*
X139862098Y-88716200D01*
X139866498Y-88703340D01*
X139866681Y-88703011D01*
X139875109Y-88700162D01*
X139884010Y-88707206D01*
X139886266Y-88714732D01*
X139949962Y-88714732D01*
X139952872Y-88696728D01*
X139954167Y-88690450D01*
X139957183Y-88677099D01*
X139825387Y-88677099D01*
X139823257Y-88695810D01*
X139814781Y-88720699D01*
X139810570Y-88729679D01*
X139799803Y-88754387D01*
X139793672Y-88775439D01*
X139793133Y-88780629D01*
X139789320Y-88796978D01*
X139784666Y-88802633D01*
X139778534Y-88814095D01*
X139776200Y-88832431D01*
X139773885Y-88854025D01*
X139767940Y-88881243D01*
X139759861Y-88909232D01*
X139751143Y-88933141D01*
X139743285Y-88948117D01*
X139739685Y-88950800D01*
X139734989Y-88944706D01*
X139735891Y-88940216D01*
X139741176Y-88922216D01*
X139748640Y-88892554D01*
X139757144Y-88856174D01*
X139765547Y-88818019D01*
X139772708Y-88783032D01*
X139775104Y-88770286D01*
X139783646Y-88736666D01*
X139795745Y-88704555D01*
X139803395Y-88689853D01*
X139815472Y-88671590D01*
X139821780Y-88666646D01*
X139824825Y-88673567D01*
X139825387Y-88677099D01*
X139957183Y-88677099D01*
X139961537Y-88657829D01*
X139966097Y-88641680D01*
X139967950Y-88641797D01*
X140544113Y-88641797D01*
X140542832Y-88638305D01*
X140526927Y-88617937D01*
X140516625Y-88612133D01*
X139970933Y-88612133D01*
X139967835Y-88619102D01*
X139965289Y-88617777D01*
X139964275Y-88607729D01*
X139965289Y-88606488D01*
X139970322Y-88607651D01*
X139970933Y-88612133D01*
X140516625Y-88612133D01*
X140502246Y-88604033D01*
X140482390Y-88599433D01*
X139911666Y-88599433D01*
X139907433Y-88603666D01*
X139903200Y-88599433D01*
X139907433Y-88595200D01*
X139911666Y-88599433D01*
X140482390Y-88599433D01*
X140466272Y-88595699D01*
X140416483Y-88592041D01*
X140412165Y-88591931D01*
X140370164Y-88589325D01*
X140341136Y-88582480D01*
X140321277Y-88569451D01*
X140318616Y-88565566D01*
X139920133Y-88565566D01*
X139915900Y-88569800D01*
X139911666Y-88565566D01*
X139915900Y-88561333D01*
X139920133Y-88565566D01*
X140318616Y-88565566D01*
X140306784Y-88548296D01*
X140300742Y-88534989D01*
X140294891Y-88515584D01*
X140299185Y-88501542D01*
X140307946Y-88491126D01*
X140328797Y-88464444D01*
X140345051Y-88432458D01*
X140357421Y-88392577D01*
X140366617Y-88342213D01*
X140373350Y-88278777D01*
X140375859Y-88243833D01*
X140378184Y-88199661D01*
X140036530Y-88199661D01*
X140031780Y-88221771D01*
X140031663Y-88222110D01*
X140025622Y-88244904D01*
X140019518Y-88276532D01*
X140015883Y-88301068D01*
X140012180Y-88327421D01*
X140009522Y-88337999D01*
X140007471Y-88333896D01*
X140006362Y-88324947D01*
X140006697Y-88297562D01*
X140011123Y-88266352D01*
X140012623Y-88259814D01*
X140018443Y-88231282D01*
X140021565Y-88205420D01*
X140021733Y-88200290D01*
X140023429Y-88184992D01*
X140029287Y-88184684D01*
X140031252Y-88186465D01*
X140036530Y-88199661D01*
X140378184Y-88199661D01*
X140378661Y-88190615D01*
X140380484Y-88136696D01*
X140381217Y-88087292D01*
X140381166Y-88082966D01*
X140055600Y-88082966D01*
X140051366Y-88087200D01*
X140047133Y-88082966D01*
X140051366Y-88078733D01*
X140055600Y-88082966D01*
X140381166Y-88082966D01*
X140380748Y-88047614D01*
X140380246Y-88036400D01*
X140378526Y-88006061D01*
X140063398Y-88006061D01*
X140061841Y-88017042D01*
X140058951Y-88017173D01*
X140056930Y-88005841D01*
X140058283Y-88000945D01*
X140062042Y-87997738D01*
X140063398Y-88006061D01*
X140378526Y-88006061D01*
X140377511Y-87988164D01*
X140376153Y-87953552D01*
X140376521Y-87929288D01*
X140378962Y-87912092D01*
X140383827Y-87898688D01*
X140391463Y-87885798D01*
X140397150Y-87877480D01*
X140404504Y-87866563D01*
X140410180Y-87856162D01*
X140414372Y-87844051D01*
X140417273Y-87828003D01*
X140419079Y-87805794D01*
X140419982Y-87775198D01*
X140420177Y-87733988D01*
X140419858Y-87679939D01*
X140419336Y-87623041D01*
X140419437Y-87595138D01*
X140421382Y-87573777D01*
X140426696Y-87554349D01*
X140436906Y-87532241D01*
X140453537Y-87502845D01*
X140466153Y-87481601D01*
X140497472Y-87425167D01*
X140519757Y-87374179D01*
X140535534Y-87321716D01*
X140540602Y-87295566D01*
X139970933Y-87295566D01*
X139966700Y-87299800D01*
X139962466Y-87295566D01*
X139966700Y-87291333D01*
X139970933Y-87295566D01*
X140540602Y-87295566D01*
X140547332Y-87260851D01*
X140547789Y-87257937D01*
X140554213Y-87224158D01*
X140554615Y-87222563D01*
X140004800Y-87222563D01*
X139998944Y-87231601D01*
X139996333Y-87232066D01*
X139989454Y-87239157D01*
X139987866Y-87249000D01*
X139984650Y-87262763D01*
X139980192Y-87265933D01*
X139975800Y-87259204D01*
X139976874Y-87249277D01*
X139983625Y-87234340D01*
X139993225Y-87222508D01*
X140001622Y-87217661D01*
X140004800Y-87222563D01*
X140554615Y-87222563D01*
X140559689Y-87202433D01*
X140114866Y-87202433D01*
X140110633Y-87206666D01*
X140106400Y-87202433D01*
X140110633Y-87198200D01*
X140114866Y-87202433D01*
X140559689Y-87202433D01*
X140562110Y-87192829D01*
X140568062Y-87175180D01*
X140574767Y-87153114D01*
X140575633Y-87136321D01*
X140575222Y-87134944D01*
X140574987Y-87120773D01*
X140579121Y-87096416D01*
X140584886Y-87073768D01*
X140592403Y-87047548D01*
X140597526Y-87028983D01*
X140599035Y-87022705D01*
X140600929Y-87014174D01*
X140605946Y-86994266D01*
X140610580Y-86976499D01*
X140616311Y-86948433D01*
X140123333Y-86948433D01*
X140119100Y-86952666D01*
X140114866Y-86948433D01*
X140119100Y-86944199D01*
X140123333Y-86948433D01*
X140616311Y-86948433D01*
X140616507Y-86947478D01*
X140622199Y-86908431D01*
X140623352Y-86897633D01*
X140267266Y-86897633D01*
X140263033Y-86901866D01*
X140258800Y-86897633D01*
X140263033Y-86893399D01*
X140267266Y-86897633D01*
X140623352Y-86897633D01*
X140626517Y-86867999D01*
X140131800Y-86867999D01*
X140128702Y-86874969D01*
X140126155Y-86873644D01*
X140125142Y-86863596D01*
X140126155Y-86862355D01*
X140131189Y-86863517D01*
X140131800Y-86867999D01*
X140626517Y-86867999D01*
X140626704Y-86866252D01*
X140627865Y-86851427D01*
X140629061Y-86837661D01*
X140241198Y-86837661D01*
X140239641Y-86848642D01*
X140236751Y-86848773D01*
X140236280Y-86846127D01*
X140037998Y-86846127D01*
X140036441Y-86857109D01*
X140033551Y-86857240D01*
X140031530Y-86845908D01*
X140032883Y-86841012D01*
X140036642Y-86837805D01*
X140037998Y-86846127D01*
X140236280Y-86846127D01*
X140234730Y-86837441D01*
X140236083Y-86832545D01*
X140239842Y-86829338D01*
X140241198Y-86837661D01*
X140629061Y-86837661D01*
X140629892Y-86828093D01*
X140172768Y-86828093D01*
X140170708Y-86832825D01*
X140162183Y-86841914D01*
X140157282Y-86840049D01*
X140157200Y-86838866D01*
X140163214Y-86831705D01*
X140166975Y-86829091D01*
X140172768Y-86828093D01*
X140629892Y-86828093D01*
X140631053Y-86814738D01*
X140632853Y-86800266D01*
X140275733Y-86800266D01*
X140272635Y-86807235D01*
X140270089Y-86805911D01*
X140269209Y-86797189D01*
X140150370Y-86797189D01*
X140146923Y-86816293D01*
X140145629Y-86820694D01*
X140137978Y-86841436D01*
X140133633Y-86845940D01*
X140133260Y-86834698D01*
X140136416Y-86813905D01*
X140141600Y-86795222D01*
X140147268Y-86787189D01*
X140148472Y-86787405D01*
X140150370Y-86797189D01*
X140269209Y-86797189D01*
X140269075Y-86795863D01*
X140270089Y-86794622D01*
X140275122Y-86795784D01*
X140275733Y-86800266D01*
X140632853Y-86800266D01*
X140634947Y-86783442D01*
X140638912Y-86762166D01*
X140157200Y-86762166D01*
X140152966Y-86766399D01*
X140148733Y-86762166D01*
X140152966Y-86757933D01*
X140157200Y-86762166D01*
X140638912Y-86762166D01*
X140638923Y-86762109D01*
X140640820Y-86756464D01*
X140642915Y-86743990D01*
X140643094Y-86740999D01*
X140292666Y-86740999D01*
X140289569Y-86747969D01*
X140287022Y-86746644D01*
X140286453Y-86740999D01*
X140165666Y-86740999D01*
X140162569Y-86747969D01*
X140160022Y-86746644D01*
X140159825Y-86744689D01*
X140060544Y-86744689D01*
X140056506Y-86765290D01*
X140053851Y-86774564D01*
X140046590Y-86794095D01*
X140041752Y-86798160D01*
X140040399Y-86794103D01*
X140041510Y-86774477D01*
X140046986Y-86754087D01*
X140055086Y-86737006D01*
X140059838Y-86734567D01*
X140060544Y-86744689D01*
X140159825Y-86744689D01*
X140159009Y-86736596D01*
X140160022Y-86735355D01*
X140165055Y-86736517D01*
X140165666Y-86740999D01*
X140286453Y-86740999D01*
X140286009Y-86736596D01*
X140287022Y-86735355D01*
X140292055Y-86736517D01*
X140292666Y-86740999D01*
X140643094Y-86740999D01*
X140644366Y-86719833D01*
X140165666Y-86719833D01*
X140161433Y-86724066D01*
X140157200Y-86719833D01*
X140161433Y-86715599D01*
X140165666Y-86719833D01*
X140644366Y-86719833D01*
X140644515Y-86717361D01*
X140645553Y-86679350D01*
X140645569Y-86677499D01*
X140174133Y-86677499D01*
X140169900Y-86681733D01*
X140165666Y-86677499D01*
X140169900Y-86673266D01*
X140174133Y-86677499D01*
X140645569Y-86677499D01*
X140645958Y-86632728D01*
X140645664Y-86580268D01*
X140645491Y-86567746D01*
X140644722Y-86507597D01*
X140644613Y-86461761D01*
X140645323Y-86427628D01*
X140647013Y-86402585D01*
X140649840Y-86384020D01*
X140653965Y-86369322D01*
X140658240Y-86358741D01*
X140667841Y-86333672D01*
X140673237Y-86312553D01*
X140673667Y-86307718D01*
X140677688Y-86286195D01*
X140682259Y-86275098D01*
X140689044Y-86256517D01*
X140697072Y-86225784D01*
X140701977Y-86203366D01*
X140273312Y-86203366D01*
X140272774Y-86223445D01*
X140271264Y-86230784D01*
X140269773Y-86226766D01*
X140268249Y-86203538D01*
X140269658Y-86184433D01*
X140271597Y-86178557D01*
X140272931Y-86187708D01*
X140273312Y-86203366D01*
X140701977Y-86203366D01*
X140705440Y-86187545D01*
X140713247Y-86146448D01*
X140719591Y-86107136D01*
X140722290Y-86084833D01*
X140165666Y-86084833D01*
X140161433Y-86089066D01*
X140157200Y-86084833D01*
X140161433Y-86080599D01*
X140165666Y-86084833D01*
X140722290Y-86084833D01*
X140723570Y-86074256D01*
X140724467Y-86057606D01*
X140726690Y-86026774D01*
X140732360Y-85990483D01*
X140736486Y-85971755D01*
X140739815Y-85950182D01*
X140743062Y-85913092D01*
X140745757Y-85868933D01*
X140258800Y-85868933D01*
X140255702Y-85875902D01*
X140253155Y-85874577D01*
X140252142Y-85864529D01*
X140253155Y-85863288D01*
X140258189Y-85864451D01*
X140258800Y-85868933D01*
X140745757Y-85868933D01*
X140746187Y-85861900D01*
X140748805Y-85805433D01*
X140258800Y-85805433D01*
X140254566Y-85809666D01*
X140250333Y-85805433D01*
X140254566Y-85801199D01*
X140258800Y-85805433D01*
X140748805Y-85805433D01*
X140749149Y-85798024D01*
X140750586Y-85758866D01*
X140258800Y-85758866D01*
X140255702Y-85765835D01*
X140253155Y-85764511D01*
X140252142Y-85754463D01*
X140253155Y-85753222D01*
X140258189Y-85754384D01*
X140258800Y-85758866D01*
X140750586Y-85758866D01*
X140751907Y-85722877D01*
X140752344Y-85708066D01*
X140258800Y-85708066D01*
X140255702Y-85715035D01*
X140253155Y-85713711D01*
X140252142Y-85703663D01*
X140253155Y-85702422D01*
X140258189Y-85703584D01*
X140258800Y-85708066D01*
X140752344Y-85708066D01*
X140753491Y-85669261D01*
X140258131Y-85669261D01*
X140256575Y-85680242D01*
X140253685Y-85680373D01*
X140251663Y-85669041D01*
X140253016Y-85664145D01*
X140256776Y-85660938D01*
X140258131Y-85669261D01*
X140753491Y-85669261D01*
X140754420Y-85637877D01*
X140756380Y-85555666D01*
X140258800Y-85555666D01*
X140255702Y-85562635D01*
X140253155Y-85561311D01*
X140252142Y-85551263D01*
X140253155Y-85550022D01*
X140258189Y-85551184D01*
X140258800Y-85555666D01*
X140756380Y-85555666D01*
X140756648Y-85544440D01*
X140757490Y-85499927D01*
X140249665Y-85499927D01*
X140248108Y-85510909D01*
X140245218Y-85511040D01*
X140243197Y-85499708D01*
X140244549Y-85494812D01*
X140248309Y-85491605D01*
X140249665Y-85499927D01*
X140757490Y-85499927D01*
X140758549Y-85443981D01*
X140760083Y-85337917D01*
X140761208Y-85227663D01*
X140761342Y-85205253D01*
X140247423Y-85205253D01*
X140246100Y-85208533D01*
X140238492Y-85216610D01*
X140237133Y-85217000D01*
X140233497Y-85210449D01*
X140233400Y-85208533D01*
X140239909Y-85200392D01*
X140242366Y-85200066D01*
X140247423Y-85205253D01*
X140761342Y-85205253D01*
X140761525Y-85174666D01*
X140241866Y-85174666D01*
X140238769Y-85181635D01*
X140236222Y-85180311D01*
X140235209Y-85170263D01*
X140236222Y-85169022D01*
X140241255Y-85170184D01*
X140241866Y-85174666D01*
X140761525Y-85174666D01*
X140761885Y-85114635D01*
X140761910Y-85106933D01*
X140030200Y-85106933D01*
X140027102Y-85113902D01*
X140024555Y-85112577D01*
X140023542Y-85102529D01*
X140024555Y-85101288D01*
X140029589Y-85102451D01*
X140030200Y-85106933D01*
X140761910Y-85106933D01*
X140761973Y-85088186D01*
X140762200Y-85023329D01*
X140762306Y-85009566D01*
X140487400Y-85009566D01*
X140483167Y-85013800D01*
X140478933Y-85009566D01*
X140483167Y-85005333D01*
X140487400Y-85009566D01*
X140762306Y-85009566D01*
X140762589Y-84973253D01*
X140762607Y-84972325D01*
X140459601Y-84972325D01*
X140457825Y-84980808D01*
X140457222Y-84982415D01*
X140450515Y-84992782D01*
X140446702Y-84992857D01*
X140447651Y-84983900D01*
X140452483Y-84977675D01*
X140459601Y-84972325D01*
X140762607Y-84972325D01*
X140763330Y-84935806D01*
X140764609Y-84908835D01*
X140766612Y-84890188D01*
X140769528Y-84877712D01*
X140773544Y-84869256D01*
X140778846Y-84862667D01*
X140781852Y-84859586D01*
X140809422Y-84843125D01*
X140828418Y-84840233D01*
X140240216Y-84840233D01*
X140239301Y-84854692D01*
X140236650Y-84855965D01*
X140236313Y-84855211D01*
X140234638Y-84838403D01*
X140235999Y-84829811D01*
X140238694Y-84826358D01*
X140240160Y-84837604D01*
X140240216Y-84840233D01*
X140828418Y-84840233D01*
X140855700Y-84840233D01*
X140856535Y-84772500D01*
X140858579Y-84729866D01*
X140863017Y-84704766D01*
X140233400Y-84704766D01*
X140229166Y-84709000D01*
X140224933Y-84704766D01*
X140229166Y-84700533D01*
X140233400Y-84704766D01*
X140863017Y-84704766D01*
X140864196Y-84698104D01*
X140874472Y-84671335D01*
X140875585Y-84669120D01*
X140886854Y-84641393D01*
X140893250Y-84614656D01*
X140893800Y-84607180D01*
X140898286Y-84577453D01*
X140909758Y-84551454D01*
X140921957Y-84538246D01*
X140923801Y-84535433D01*
X140428133Y-84535433D01*
X140423900Y-84539666D01*
X140419667Y-84535433D01*
X139784666Y-84535433D01*
X139780433Y-84539666D01*
X139776200Y-84535433D01*
X139780433Y-84531200D01*
X139784666Y-84535433D01*
X140419667Y-84535433D01*
X140423900Y-84531200D01*
X140428133Y-84535433D01*
X140923801Y-84535433D01*
X140927904Y-84529175D01*
X140382128Y-84529175D01*
X140373805Y-84530531D01*
X140362824Y-84528974D01*
X140362734Y-84526981D01*
X139669269Y-84526981D01*
X139659653Y-84528258D01*
X139640733Y-84528662D01*
X139619831Y-84528137D01*
X139611997Y-84526771D01*
X139617450Y-84525135D01*
X139644798Y-84523718D01*
X139664016Y-84525135D01*
X139669269Y-84526981D01*
X140362734Y-84526981D01*
X140362693Y-84526084D01*
X140374025Y-84524063D01*
X140378921Y-84525416D01*
X140382128Y-84529175D01*
X140927904Y-84529175D01*
X140929913Y-84526112D01*
X140932328Y-84517088D01*
X140340644Y-84517088D01*
X140339482Y-84522122D01*
X140335000Y-84522733D01*
X140329460Y-84520270D01*
X139517966Y-84520270D01*
X139397316Y-84521501D01*
X139349323Y-84521773D01*
X139315789Y-84521280D01*
X139294248Y-84519777D01*
X139282233Y-84517020D01*
X139277277Y-84512763D01*
X139276666Y-84509514D01*
X139279596Y-84501684D01*
X139291037Y-84499453D01*
X139314790Y-84502012D01*
X139340486Y-84505222D01*
X139376853Y-84508953D01*
X139417669Y-84512589D01*
X139435440Y-84514000D01*
X139517966Y-84520270D01*
X140329460Y-84520270D01*
X140328031Y-84519635D01*
X140329355Y-84517088D01*
X140339403Y-84516075D01*
X140340644Y-84517088D01*
X140932328Y-84517088D01*
X140933464Y-84512846D01*
X140938938Y-84489422D01*
X140945249Y-84470908D01*
X140952420Y-84440579D01*
X140953433Y-84426551D01*
X139394494Y-84426551D01*
X139388627Y-84428077D01*
X139369858Y-84429171D01*
X139342220Y-84429599D01*
X139341578Y-84429600D01*
X139312821Y-84428454D01*
X139292594Y-84425435D01*
X139285133Y-84421263D01*
X139292642Y-84418468D01*
X139311594Y-84417495D01*
X139336627Y-84418085D01*
X139362379Y-84419978D01*
X139383488Y-84422916D01*
X139394494Y-84426551D01*
X140953433Y-84426551D01*
X140955435Y-84398856D01*
X140954391Y-84350733D01*
X140949382Y-84301207D01*
X140941185Y-84258008D01*
X140933129Y-84222189D01*
X140929807Y-84196907D01*
X140930902Y-84176538D01*
X140935533Y-84157330D01*
X140940217Y-84137557D01*
X140941177Y-84117809D01*
X140938086Y-84092996D01*
X140930618Y-84058025D01*
X140928608Y-84049522D01*
X140919129Y-84009498D01*
X140907591Y-83960358D01*
X140895727Y-83909493D01*
X140888720Y-83879266D01*
X140874357Y-83824402D01*
X140858919Y-83778251D01*
X140843706Y-83744644D01*
X140841909Y-83741556D01*
X140826501Y-83711560D01*
X140819241Y-83682748D01*
X140817600Y-83650501D01*
X140815285Y-83618815D01*
X140809112Y-83578064D01*
X140800236Y-83535355D01*
X140796433Y-83520239D01*
X140786466Y-83479000D01*
X140780096Y-83441359D01*
X140776619Y-83401128D01*
X140775331Y-83352120D01*
X140775267Y-83334132D01*
X140774952Y-83288034D01*
X140773446Y-83253447D01*
X140769907Y-83224953D01*
X140763494Y-83197131D01*
X140753365Y-83164564D01*
X140745215Y-83140672D01*
X140729826Y-83093297D01*
X140712911Y-83036370D01*
X140695334Y-82973307D01*
X140677964Y-82907523D01*
X140661666Y-82842436D01*
X140647306Y-82781461D01*
X140635752Y-82728015D01*
X140627869Y-82685513D01*
X140625469Y-82668533D01*
X140621433Y-82643586D01*
X140616476Y-82625649D01*
X140614572Y-82621966D01*
X140609453Y-82610273D01*
X140601566Y-82586665D01*
X140592376Y-82555624D01*
X140589648Y-82545766D01*
X140571009Y-82477618D01*
X140555177Y-82420442D01*
X140540651Y-82368837D01*
X140534372Y-82346799D01*
X140524868Y-82313414D01*
X140522339Y-82304466D01*
X139429066Y-82304466D01*
X139422624Y-82312687D01*
X139420600Y-82312933D01*
X139412379Y-82306490D01*
X139412133Y-82304466D01*
X139418576Y-82296246D01*
X139420600Y-82295999D01*
X139428820Y-82302442D01*
X139429066Y-82304466D01*
X140522339Y-82304466D01*
X140515556Y-82280471D01*
X140511598Y-82266366D01*
X140502374Y-82237048D01*
X140492167Y-82209594D01*
X140490843Y-82206467D01*
X140483954Y-82184992D01*
X140476636Y-82153428D01*
X140470443Y-82118505D01*
X140470304Y-82117567D01*
X140464548Y-82082796D01*
X140458229Y-82051314D01*
X140452684Y-82029765D01*
X140452530Y-82029299D01*
X140444484Y-81998860D01*
X140436352Y-81957340D01*
X140429007Y-81910564D01*
X140423322Y-81864358D01*
X140420172Y-81824547D01*
X140419814Y-81811168D01*
X140418432Y-81781712D01*
X140415030Y-81757634D01*
X140411922Y-81747668D01*
X140407864Y-81733438D01*
X140403004Y-81706586D01*
X140398037Y-81671355D01*
X140394743Y-81642784D01*
X140383931Y-81562235D01*
X140369776Y-81493822D01*
X140365104Y-81478966D01*
X139462933Y-81478966D01*
X139458700Y-81483200D01*
X139454466Y-81478966D01*
X139458700Y-81474733D01*
X139462933Y-81478966D01*
X140365104Y-81478966D01*
X140352727Y-81439615D01*
X140348246Y-81428930D01*
X140334750Y-81384822D01*
X140332583Y-81351966D01*
X139556066Y-81351966D01*
X139551833Y-81356200D01*
X139547600Y-81351966D01*
X139551833Y-81347733D01*
X139556066Y-81351966D01*
X140332583Y-81351966D01*
X140331821Y-81340420D01*
X140334127Y-81328775D01*
X139569328Y-81328775D01*
X139561005Y-81330131D01*
X139550024Y-81328574D01*
X139549893Y-81325684D01*
X139561225Y-81323663D01*
X139566121Y-81325016D01*
X139569328Y-81328775D01*
X140334127Y-81328775D01*
X140338757Y-81305400D01*
X140357629Y-81256320D01*
X140377553Y-81205798D01*
X140397073Y-81157407D01*
X140414733Y-81114722D01*
X140429076Y-81081316D01*
X140437463Y-81063110D01*
X140454594Y-81037642D01*
X140484060Y-81004451D01*
X140524148Y-80965274D01*
X140573145Y-80921844D01*
X140594777Y-80903735D01*
X140627118Y-80868290D01*
X140657976Y-80816915D01*
X140686941Y-80750578D01*
X140689666Y-80742366D01*
X140020083Y-80742366D01*
X140019167Y-80756826D01*
X140016517Y-80758099D01*
X140016180Y-80757344D01*
X140014505Y-80740536D01*
X140015866Y-80731944D01*
X140018561Y-80728491D01*
X140020027Y-80739737D01*
X140020083Y-80742366D01*
X140689666Y-80742366D01*
X140713603Y-80670250D01*
X140737550Y-80576899D01*
X140742117Y-80556099D01*
X140750864Y-80515223D01*
X140759658Y-80474223D01*
X140766926Y-80440427D01*
X140768456Y-80433333D01*
X140775190Y-80406912D01*
X140781956Y-80387859D01*
X140785804Y-80381756D01*
X140790569Y-80371406D01*
X140796099Y-80349040D01*
X140801210Y-80319461D01*
X140801287Y-80318916D01*
X140806410Y-80288473D01*
X140811945Y-80264395D01*
X140816663Y-80251960D01*
X140825578Y-80232843D01*
X140833171Y-80203144D01*
X140838375Y-80169210D01*
X140840122Y-80137392D01*
X140838811Y-80120331D01*
X140824065Y-80075264D01*
X140808247Y-80048100D01*
X140011131Y-80048100D01*
X140010450Y-80065525D01*
X140008531Y-80070022D01*
X140007449Y-80067248D01*
X140005872Y-80046916D01*
X140007278Y-80033382D01*
X140009509Y-80028689D01*
X140010912Y-80038866D01*
X140011131Y-80048100D01*
X140808247Y-80048100D01*
X140794216Y-80024008D01*
X140749674Y-79967161D01*
X140717091Y-79932861D01*
X140076186Y-79932861D01*
X140074877Y-79943796D01*
X140070170Y-79948096D01*
X140058247Y-79959223D01*
X140042999Y-79977990D01*
X140039782Y-79982483D01*
X140025675Y-80000007D01*
X140014406Y-80009463D01*
X140012431Y-80010000D01*
X140002444Y-80015870D01*
X139986464Y-80030743D01*
X139978014Y-80039917D01*
X139959998Y-80057870D01*
X139948840Y-80064571D01*
X139946504Y-80060314D01*
X139954959Y-80045396D01*
X139961098Y-80037378D01*
X139977139Y-80013887D01*
X139988876Y-79990950D01*
X139997961Y-79974323D01*
X140006534Y-79967666D01*
X140011540Y-79973837D01*
X140010309Y-79980095D01*
X140010074Y-79993517D01*
X140013027Y-79997151D01*
X140021024Y-79994139D01*
X140026014Y-79984450D01*
X140034881Y-79966728D01*
X140048380Y-79949226D01*
X140062547Y-79936021D01*
X140073415Y-79931191D01*
X140076186Y-79932861D01*
X140717091Y-79932861D01*
X140691924Y-79906368D01*
X140661871Y-79877657D01*
X140199578Y-79877657D01*
X140190470Y-79885215D01*
X140188950Y-79885859D01*
X140169588Y-79890555D01*
X140158306Y-79887330D01*
X140157200Y-79883987D01*
X140164430Y-79876987D01*
X140178366Y-79872461D01*
X140194667Y-79872296D01*
X140199578Y-79877657D01*
X140661871Y-79877657D01*
X140655696Y-79871758D01*
X140627738Y-79847271D01*
X140604866Y-79830559D01*
X140583898Y-79819271D01*
X140563600Y-79811674D01*
X140532517Y-79800521D01*
X140504003Y-79788254D01*
X140491633Y-79781804D01*
X140478923Y-79775492D01*
X140464214Y-79771640D01*
X140443972Y-79770010D01*
X140414662Y-79770366D01*
D12*
X129600000Y-104080000D02*
X129600000Y-124520000D01*
X126936500Y-104080000D02*
X126940000Y-124520000D01*
X129600000Y-104080000D02*
X126936500Y-104080000D01*
X129600000Y-124520000D02*
X126940000Y-124520000D01*
X129600000Y-106680000D02*
X126940000Y-106680000D01*
X152460000Y-106680000D02*
X149800000Y-106680000D01*
X152460000Y-124520000D02*
X149800000Y-124520000D01*
X152460000Y-104080000D02*
X149796500Y-104080000D01*
X149796500Y-104080000D02*
X149800000Y-124520000D01*
X152460000Y-104080000D02*
X152460000Y-124520000D01*
D11*
G36*
X137597662Y-109435051D02*
G01*
X137583333Y-109474000D01*
X137651910Y-109549114D01*
X137710333Y-109558667D01*
X137823005Y-109512949D01*
X137837333Y-109474000D01*
X137768757Y-109398885D01*
X137710333Y-109389333D01*
X137597662Y-109435051D01*
G37*
X137597662Y-109435051D02*
X137583333Y-109474000D01*
X137651910Y-109549114D01*
X137710333Y-109558667D01*
X137823005Y-109512949D01*
X137837333Y-109474000D01*
X137768757Y-109398885D01*
X137710333Y-109389333D01*
X137597662Y-109435051D01*
G36*
X134776313Y-109877681D02*
G01*
X134601884Y-110042672D01*
X134535601Y-110262565D01*
X134597339Y-110492281D01*
X134690167Y-110603878D01*
X134911683Y-110719204D01*
X135159636Y-110731721D01*
X135360328Y-110640059D01*
X135382217Y-110616739D01*
X135465745Y-110433791D01*
X135487833Y-110278333D01*
X135477741Y-110236472D01*
X135270073Y-110236472D01*
X135240025Y-110410752D01*
X135218557Y-110440570D01*
X135089727Y-110558061D01*
X134961625Y-110542917D01*
X134887759Y-110500295D01*
X134802182Y-110368083D01*
X134810257Y-110196107D01*
X134895629Y-110059210D01*
X134991773Y-110024333D01*
X135176317Y-110087467D01*
X135270073Y-110236472D01*
X135477741Y-110236472D01*
X135422289Y-110006473D01*
X135236345Y-109847668D01*
X135039014Y-109812666D01*
X134776313Y-109877681D01*
G37*
X134776313Y-109877681D02*
X134601884Y-110042672D01*
X134535601Y-110262565D01*
X134597339Y-110492281D01*
X134690167Y-110603878D01*
X134911683Y-110719204D01*
X135159636Y-110731721D01*
X135360328Y-110640059D01*
X135382217Y-110616739D01*
X135465745Y-110433791D01*
X135487833Y-110278333D01*
X135477741Y-110236472D01*
X135270073Y-110236472D01*
X135240025Y-110410752D01*
X135218557Y-110440570D01*
X135089727Y-110558061D01*
X134961625Y-110542917D01*
X134887759Y-110500295D01*
X134802182Y-110368083D01*
X134810257Y-110196107D01*
X134895629Y-110059210D01*
X134991773Y-110024333D01*
X135176317Y-110087467D01*
X135270073Y-110236472D01*
X135477741Y-110236472D01*
X135422289Y-110006473D01*
X135236345Y-109847668D01*
X135039014Y-109812666D01*
X134776313Y-109877681D01*
G36*
X135996538Y-109828722D02*
G01*
X135755231Y-109880673D01*
X135654399Y-109991079D01*
X135651663Y-110003167D01*
X135684563Y-110129202D01*
X135756792Y-110151333D01*
X135873392Y-110107480D01*
X135890000Y-110066667D01*
X135954429Y-109984460D01*
X135974667Y-109982000D01*
X136025160Y-110057674D01*
X136055449Y-110249138D01*
X136059333Y-110363000D01*
X136075954Y-110614122D01*
X136132468Y-110728508D01*
X136186333Y-110744000D01*
X136262558Y-110702564D01*
X136302020Y-110556967D01*
X136313333Y-110275277D01*
X136313333Y-109802445D01*
X135996538Y-109828722D01*
G37*
X135996538Y-109828722D02*
X135755231Y-109880673D01*
X135654399Y-109991079D01*
X135651663Y-110003167D01*
X135684563Y-110129202D01*
X135756792Y-110151333D01*
X135873392Y-110107480D01*
X135890000Y-110066667D01*
X135954429Y-109984460D01*
X135974667Y-109982000D01*
X136025160Y-110057674D01*
X136055449Y-110249138D01*
X136059333Y-110363000D01*
X136075954Y-110614122D01*
X136132468Y-110728508D01*
X136186333Y-110744000D01*
X136262558Y-110702564D01*
X136302020Y-110556967D01*
X136313333Y-110275277D01*
X136313333Y-109802445D01*
X135996538Y-109828722D01*
G36*
X137120040Y-109437469D02*
G01*
X137081535Y-109602284D01*
X137075333Y-109785092D01*
X137075333Y-110180850D01*
X136879377Y-109996758D01*
X136689147Y-109848621D01*
X136573007Y-109814010D01*
X136552684Y-109887498D01*
X136644059Y-110055514D01*
X136754515Y-110222418D01*
X136767258Y-110320662D01*
X136683295Y-110419166D01*
X136649824Y-110449636D01*
X136524728Y-110587065D01*
X136482667Y-110672455D01*
X136536125Y-110745550D01*
X136664870Y-110718546D01*
X136821462Y-110608013D01*
X136893525Y-110528963D01*
X137010637Y-110387679D01*
X137062295Y-110374174D01*
X137087483Y-110482937D01*
X137090170Y-110501164D01*
X137154378Y-110664526D01*
X137223500Y-110723257D01*
X137279001Y-110694889D01*
X137312552Y-110551001D01*
X137327633Y-110270238D01*
X137329333Y-110073722D01*
X137323452Y-109724122D01*
X137302099Y-109513593D01*
X137259714Y-109412162D01*
X137202333Y-109389333D01*
X137120040Y-109437469D01*
G37*
X137120040Y-109437469D02*
X137081535Y-109602284D01*
X137075333Y-109785092D01*
X137075333Y-110180850D01*
X136879377Y-109996758D01*
X136689147Y-109848621D01*
X136573007Y-109814010D01*
X136552684Y-109887498D01*
X136644059Y-110055514D01*
X136754515Y-110222418D01*
X136767258Y-110320662D01*
X136683295Y-110419166D01*
X136649824Y-110449636D01*
X136524728Y-110587065D01*
X136482667Y-110672455D01*
X136536125Y-110745550D01*
X136664870Y-110718546D01*
X136821462Y-110608013D01*
X136893525Y-110528963D01*
X137010637Y-110387679D01*
X137062295Y-110374174D01*
X137087483Y-110482937D01*
X137090170Y-110501164D01*
X137154378Y-110664526D01*
X137223500Y-110723257D01*
X137279001Y-110694889D01*
X137312552Y-110551001D01*
X137327633Y-110270238D01*
X137329333Y-110073722D01*
X137323452Y-109724122D01*
X137302099Y-109513593D01*
X137259714Y-109412162D01*
X137202333Y-109389333D01*
X137120040Y-109437469D01*
G36*
X137633745Y-109854473D02*
G01*
X137594314Y-110001170D01*
X137583333Y-110278333D01*
X137594735Y-110559158D01*
X137634743Y-110703738D01*
X137710333Y-110744000D01*
X137786922Y-110702193D01*
X137826353Y-110555497D01*
X137837333Y-110278333D01*
X137825932Y-109997508D01*
X137785924Y-109852928D01*
X137710333Y-109812667D01*
X137633745Y-109854473D01*
G37*
X137633745Y-109854473D02*
X137594314Y-110001170D01*
X137583333Y-110278333D01*
X137594735Y-110559158D01*
X137634743Y-110703738D01*
X137710333Y-110744000D01*
X137786922Y-110702193D01*
X137826353Y-110555497D01*
X137837333Y-110278333D01*
X137825932Y-109997508D01*
X137785924Y-109852928D01*
X137710333Y-109812667D01*
X137633745Y-109854473D01*
G36*
X138133667Y-109855000D02*
G01*
X138108076Y-110299500D01*
X138107789Y-110557991D01*
X138137212Y-110715458D01*
X138166707Y-110744000D01*
X138223687Y-110668521D01*
X138267222Y-110478767D01*
X138276965Y-110384897D01*
X138318272Y-110132456D01*
X138404043Y-110014184D01*
X138451167Y-109997689D01*
X138543168Y-110007547D01*
X138587359Y-110108213D01*
X138599302Y-110337408D01*
X138599333Y-110356792D01*
X138615443Y-110610160D01*
X138670383Y-110726926D01*
X138726333Y-110744000D01*
X138810041Y-110694138D01*
X138848170Y-110524597D01*
X138853333Y-110363000D01*
X138869954Y-110111878D01*
X138926468Y-109997492D01*
X138980333Y-109982000D01*
X139064041Y-110031862D01*
X139102170Y-110201403D01*
X139107333Y-110363000D01*
X139123954Y-110614122D01*
X139180468Y-110728508D01*
X139234333Y-110744000D01*
X139310657Y-110702463D01*
X139350111Y-110556567D01*
X139361333Y-110274624D01*
X139361333Y-109805248D01*
X138133667Y-109855000D01*
G37*
X138133667Y-109855000D02*
X138108076Y-110299500D01*
X138107789Y-110557991D01*
X138137212Y-110715458D01*
X138166707Y-110744000D01*
X138223687Y-110668521D01*
X138267222Y-110478767D01*
X138276965Y-110384897D01*
X138318272Y-110132456D01*
X138404043Y-110014184D01*
X138451167Y-109997689D01*
X138543168Y-110007547D01*
X138587359Y-110108213D01*
X138599302Y-110337408D01*
X138599333Y-110356792D01*
X138615443Y-110610160D01*
X138670383Y-110726926D01*
X138726333Y-110744000D01*
X138810041Y-110694138D01*
X138848170Y-110524597D01*
X138853333Y-110363000D01*
X138869954Y-110111878D01*
X138926468Y-109997492D01*
X138980333Y-109982000D01*
X139064041Y-110031862D01*
X139102170Y-110201403D01*
X139107333Y-110363000D01*
X139123954Y-110614122D01*
X139180468Y-110728508D01*
X139234333Y-110744000D01*
X139310657Y-110702463D01*
X139350111Y-110556567D01*
X139361333Y-110274624D01*
X139361333Y-109805248D01*
X138133667Y-109855000D01*
G36*
X135128000Y-111272421D02*
G01*
X134842724Y-111298947D01*
X134697350Y-111350314D01*
X134662333Y-111421333D01*
X134705886Y-111496883D01*
X134856053Y-111543973D01*
X135142102Y-111571023D01*
X135191500Y-111573540D01*
X135483931Y-111594117D01*
X135644471Y-111629502D01*
X135710555Y-111693172D01*
X135720667Y-111764040D01*
X135696171Y-111864914D01*
X135594818Y-111914254D01*
X135374809Y-111929032D01*
X135313516Y-111929333D01*
X134935669Y-111971145D01*
X134700418Y-112098800D01*
X134602490Y-112315622D01*
X134598833Y-112380175D01*
X134626186Y-112603507D01*
X134726597Y-112747148D01*
X134927599Y-112826791D01*
X135256724Y-112858132D01*
X135441756Y-112860667D01*
X135781696Y-112852612D01*
X135974252Y-112825932D01*
X136040722Y-112776849D01*
X136038533Y-112754833D01*
X135935111Y-112686811D01*
X135697507Y-112638562D01*
X135519150Y-112623479D01*
X135200673Y-112588766D01*
X135027213Y-112522226D01*
X134984335Y-112466767D01*
X134997038Y-112317841D01*
X135164546Y-112222734D01*
X135479933Y-112185094D01*
X135519800Y-112184630D01*
X135830078Y-112139596D01*
X136003247Y-112001348D01*
X136049088Y-111760915D01*
X136044285Y-111703582D01*
X135942899Y-111469084D01*
X135702002Y-111324833D01*
X135319377Y-111269785D01*
X135128000Y-111272421D01*
G37*
X135128000Y-111272421D02*
X134842724Y-111298947D01*
X134697350Y-111350314D01*
X134662333Y-111421333D01*
X134705886Y-111496883D01*
X134856053Y-111543973D01*
X135142102Y-111571023D01*
X135191500Y-111573540D01*
X135483931Y-111594117D01*
X135644471Y-111629502D01*
X135710555Y-111693172D01*
X135720667Y-111764040D01*
X135696171Y-111864914D01*
X135594818Y-111914254D01*
X135374809Y-111929032D01*
X135313516Y-111929333D01*
X134935669Y-111971145D01*
X134700418Y-112098800D01*
X134602490Y-112315622D01*
X134598833Y-112380175D01*
X134626186Y-112603507D01*
X134726597Y-112747148D01*
X134927599Y-112826791D01*
X135256724Y-112858132D01*
X135441756Y-112860667D01*
X135781696Y-112852612D01*
X135974252Y-112825932D01*
X136040722Y-112776849D01*
X136038533Y-112754833D01*
X135935111Y-112686811D01*
X135697507Y-112638562D01*
X135519150Y-112623479D01*
X135200673Y-112588766D01*
X135027213Y-112522226D01*
X134984335Y-112466767D01*
X134997038Y-112317841D01*
X135164546Y-112222734D01*
X135479933Y-112185094D01*
X135519800Y-112184630D01*
X135830078Y-112139596D01*
X136003247Y-112001348D01*
X136049088Y-111760915D01*
X136044285Y-111703582D01*
X135942899Y-111469084D01*
X135702002Y-111324833D01*
X135319377Y-111269785D01*
X135128000Y-111272421D01*
G36*
X137468841Y-111289557D02*
G01*
X137429233Y-111423382D01*
X137414634Y-111685200D01*
X137414000Y-111786151D01*
X137390039Y-112187938D01*
X137311158Y-112444339D01*
X137166865Y-112573370D01*
X136946665Y-112593045D01*
X136944158Y-112592763D01*
X136816745Y-112571581D01*
X136739358Y-112519167D01*
X136695613Y-112398316D01*
X136669125Y-112171823D01*
X136652000Y-111929333D01*
X136621166Y-111588632D01*
X136579794Y-111389312D01*
X136520436Y-111303449D01*
X136482667Y-111294333D01*
X136410463Y-111334600D01*
X136364495Y-111474998D01*
X136337050Y-111744921D01*
X136330434Y-111874489D01*
X136332908Y-112303402D01*
X136394949Y-112592498D01*
X136532370Y-112765545D01*
X136760985Y-112846310D01*
X136986571Y-112860667D01*
X137319940Y-112827907D01*
X137527192Y-112734991D01*
X137534953Y-112727619D01*
X137606307Y-112580465D01*
X137653623Y-112336095D01*
X137676715Y-112040215D01*
X137675394Y-111738533D01*
X137649475Y-111476754D01*
X137598768Y-111300587D01*
X137541000Y-111252000D01*
X137468841Y-111289557D01*
G37*
X137468841Y-111289557D02*
X137429233Y-111423382D01*
X137414634Y-111685200D01*
X137414000Y-111786151D01*
X137390039Y-112187938D01*
X137311158Y-112444339D01*
X137166865Y-112573370D01*
X136946665Y-112593045D01*
X136944158Y-112592763D01*
X136816745Y-112571581D01*
X136739358Y-112519167D01*
X136695613Y-112398316D01*
X136669125Y-112171823D01*
X136652000Y-111929333D01*
X136621166Y-111588632D01*
X136579794Y-111389312D01*
X136520436Y-111303449D01*
X136482667Y-111294333D01*
X136410463Y-111334600D01*
X136364495Y-111474998D01*
X136337050Y-111744921D01*
X136330434Y-111874489D01*
X136332908Y-112303402D01*
X136394949Y-112592498D01*
X136532370Y-112765545D01*
X136760985Y-112846310D01*
X136986571Y-112860667D01*
X137319940Y-112827907D01*
X137527192Y-112734991D01*
X137534953Y-112727619D01*
X137606307Y-112580465D01*
X137653623Y-112336095D01*
X137676715Y-112040215D01*
X137675394Y-111738533D01*
X137649475Y-111476754D01*
X137598768Y-111300587D01*
X137541000Y-111252000D01*
X137468841Y-111289557D01*
G36*
X138487530Y-111285862D02*
G01*
X138179313Y-111387545D01*
X138025648Y-111557196D01*
X138006667Y-111666682D01*
X138038612Y-111871558D01*
X138098711Y-111987510D01*
X138144966Y-112089710D01*
X138098711Y-112136440D01*
X138025639Y-112265628D01*
X138011363Y-112471763D01*
X138054633Y-112673461D01*
X138108267Y-112759067D01*
X138247840Y-112814479D01*
X138510217Y-112850479D01*
X138785600Y-112860667D01*
X139361333Y-112860667D01*
X139361333Y-112395000D01*
X139022667Y-112395000D01*
X139006772Y-112538971D01*
X138926363Y-112594825D01*
X138732357Y-112592803D01*
X138705167Y-112590611D01*
X138489111Y-112553296D01*
X138398987Y-112472425D01*
X138387667Y-112395000D01*
X138424103Y-112276754D01*
X138561751Y-112217296D01*
X138705167Y-112199389D01*
X138913057Y-112193292D01*
X139002501Y-112242083D01*
X139022584Y-112376005D01*
X139022667Y-112395000D01*
X139361333Y-112395000D01*
X139361333Y-111760000D01*
X139022667Y-111760000D01*
X138994267Y-111870784D01*
X138879478Y-111919746D01*
X138684000Y-111929333D01*
X138462432Y-111915133D01*
X138364508Y-111857739D01*
X138345333Y-111760000D01*
X138373734Y-111649216D01*
X138488523Y-111600254D01*
X138684000Y-111590667D01*
X138905568Y-111604867D01*
X139003493Y-111662261D01*
X139022667Y-111760000D01*
X139361333Y-111760000D01*
X139361333Y-111252000D01*
X138950634Y-111252000D01*
X138487530Y-111285862D01*
G37*
X138487530Y-111285862D02*
X138179313Y-111387545D01*
X138025648Y-111557196D01*
X138006667Y-111666682D01*
X138038612Y-111871558D01*
X138098711Y-111987510D01*
X138144966Y-112089710D01*
X138098711Y-112136440D01*
X138025639Y-112265628D01*
X138011363Y-112471763D01*
X138054633Y-112673461D01*
X138108267Y-112759067D01*
X138247840Y-112814479D01*
X138510217Y-112850479D01*
X138785600Y-112860667D01*
X139361333Y-112860667D01*
X139361333Y-112395000D01*
X139022667Y-112395000D01*
X139006772Y-112538971D01*
X138926363Y-112594825D01*
X138732357Y-112592803D01*
X138705167Y-112590611D01*
X138489111Y-112553296D01*
X138398987Y-112472425D01*
X138387667Y-112395000D01*
X138424103Y-112276754D01*
X138561751Y-112217296D01*
X138705167Y-112199389D01*
X138913057Y-112193292D01*
X139002501Y-112242083D01*
X139022584Y-112376005D01*
X139022667Y-112395000D01*
X139361333Y-112395000D01*
X139361333Y-111760000D01*
X139022667Y-111760000D01*
X138994267Y-111870784D01*
X138879478Y-111919746D01*
X138684000Y-111929333D01*
X138462432Y-111915133D01*
X138364508Y-111857739D01*
X138345333Y-111760000D01*
X138373734Y-111649216D01*
X138488523Y-111600254D01*
X138684000Y-111590667D01*
X138905568Y-111604867D01*
X139003493Y-111662261D01*
X139022667Y-111760000D01*
X139361333Y-111760000D01*
X139361333Y-111252000D01*
X138950634Y-111252000D01*
X138487530Y-111285862D01*
G36*
X141308996Y-109433454D02*
G01*
X141181667Y-109508547D01*
X141017299Y-109696315D01*
X140966079Y-109930567D01*
X141031496Y-110149737D01*
X141139333Y-110255649D01*
X141259168Y-110387996D01*
X141306049Y-110615781D01*
X141308667Y-110717808D01*
X141308667Y-111074216D01*
X140821833Y-111099608D01*
X140335000Y-111125000D01*
X140308380Y-111547121D01*
X140243270Y-111914962D01*
X140117880Y-112121919D01*
X139983753Y-112337710D01*
X139972071Y-112577060D01*
X140066453Y-112789172D01*
X140250522Y-112923253D01*
X140383381Y-112945333D01*
X140575167Y-112880320D01*
X140760260Y-112725528D01*
X140874146Y-112541327D01*
X140885333Y-112475624D01*
X140827181Y-112331741D01*
X140685964Y-112160032D01*
X140673667Y-112148415D01*
X140518962Y-111945444D01*
X140463806Y-111681989D01*
X140462000Y-111602124D01*
X140462000Y-111252000D01*
X142324667Y-111252000D01*
X142324667Y-111602124D01*
X142288638Y-111891416D01*
X142160271Y-112101620D01*
X142113000Y-112148415D01*
X141967645Y-112319128D01*
X141901689Y-112467681D01*
X141901334Y-112475624D01*
X141970809Y-112655090D01*
X142136227Y-112828294D01*
X142333072Y-112934864D01*
X142403286Y-112945333D01*
X142631519Y-112876067D01*
X142776193Y-112702102D01*
X142820899Y-112474187D01*
X142749229Y-112243072D01*
X142663333Y-112141000D01*
X142535834Y-111943761D01*
X142494096Y-111639453D01*
X142494000Y-111619878D01*
X142494000Y-111252000D01*
X144356667Y-111252000D01*
X144356667Y-111599648D01*
X144326910Y-111868858D01*
X144217368Y-112049954D01*
X144145000Y-112113793D01*
X143972740Y-112332679D01*
X143949164Y-112574384D01*
X144077831Y-112795607D01*
X144088167Y-112805211D01*
X144330219Y-112931614D01*
X144575317Y-112902153D01*
X144724545Y-112790500D01*
X144851682Y-112548302D01*
X144815101Y-112304605D01*
X144653000Y-112113793D01*
X144521340Y-111979429D01*
X144458242Y-111806975D01*
X144441365Y-111533222D01*
X144441333Y-111514981D01*
X144441333Y-111082667D01*
X143510000Y-111082667D01*
X143510000Y-110720483D01*
X143546782Y-110417487D01*
X143667204Y-110224069D01*
X143679333Y-110213312D01*
X143827238Y-109993586D01*
X143826337Y-109751863D01*
X143680015Y-109540386D01*
X143633532Y-109506275D01*
X143379677Y-109423679D01*
X143147189Y-109490002D01*
X142982215Y-109686653D01*
X142949182Y-109781964D01*
X142937687Y-109971605D01*
X143037691Y-110131400D01*
X143116180Y-110204115D01*
X143277506Y-110393956D01*
X143337321Y-110633755D01*
X143340667Y-110739939D01*
X143340667Y-111082667D01*
X141478000Y-111082667D01*
X141478000Y-110722033D01*
X141504387Y-110452217D01*
X141595864Y-110294307D01*
X141647333Y-110255649D01*
X141791095Y-110079768D01*
X141815935Y-109848451D01*
X141725340Y-109623262D01*
X141605000Y-109508547D01*
X141439291Y-109418965D01*
X141308996Y-109433454D01*
G37*
X141308996Y-109433454D02*
X141181667Y-109508547D01*
X141017299Y-109696315D01*
X140966079Y-109930567D01*
X141031496Y-110149737D01*
X141139333Y-110255649D01*
X141259168Y-110387996D01*
X141306049Y-110615781D01*
X141308667Y-110717808D01*
X141308667Y-111074216D01*
X140821833Y-111099608D01*
X140335000Y-111125000D01*
X140308380Y-111547121D01*
X140243270Y-111914962D01*
X140117880Y-112121919D01*
X139983753Y-112337710D01*
X139972071Y-112577060D01*
X140066453Y-112789172D01*
X140250522Y-112923253D01*
X140383381Y-112945333D01*
X140575167Y-112880320D01*
X140760260Y-112725528D01*
X140874146Y-112541327D01*
X140885333Y-112475624D01*
X140827181Y-112331741D01*
X140685964Y-112160032D01*
X140673667Y-112148415D01*
X140518962Y-111945444D01*
X140463806Y-111681989D01*
X140462000Y-111602124D01*
X140462000Y-111252000D01*
X142324667Y-111252000D01*
X142324667Y-111602124D01*
X142288638Y-111891416D01*
X142160271Y-112101620D01*
X142113000Y-112148415D01*
X141967645Y-112319128D01*
X141901689Y-112467681D01*
X141901334Y-112475624D01*
X141970809Y-112655090D01*
X142136227Y-112828294D01*
X142333072Y-112934864D01*
X142403286Y-112945333D01*
X142631519Y-112876067D01*
X142776193Y-112702102D01*
X142820899Y-112474187D01*
X142749229Y-112243072D01*
X142663333Y-112141000D01*
X142535834Y-111943761D01*
X142494096Y-111639453D01*
X142494000Y-111619878D01*
X142494000Y-111252000D01*
X144356667Y-111252000D01*
X144356667Y-111599648D01*
X144326910Y-111868858D01*
X144217368Y-112049954D01*
X144145000Y-112113793D01*
X143972740Y-112332679D01*
X143949164Y-112574384D01*
X144077831Y-112795607D01*
X144088167Y-112805211D01*
X144330219Y-112931614D01*
X144575317Y-112902153D01*
X144724545Y-112790500D01*
X144851682Y-112548302D01*
X144815101Y-112304605D01*
X144653000Y-112113793D01*
X144521340Y-111979429D01*
X144458242Y-111806975D01*
X144441365Y-111533222D01*
X144441333Y-111514981D01*
X144441333Y-111082667D01*
X143510000Y-111082667D01*
X143510000Y-110720483D01*
X143546782Y-110417487D01*
X143667204Y-110224069D01*
X143679333Y-110213312D01*
X143827238Y-109993586D01*
X143826337Y-109751863D01*
X143680015Y-109540386D01*
X143633532Y-109506275D01*
X143379677Y-109423679D01*
X143147189Y-109490002D01*
X142982215Y-109686653D01*
X142949182Y-109781964D01*
X142937687Y-109971605D01*
X143037691Y-110131400D01*
X143116180Y-110204115D01*
X143277506Y-110393956D01*
X143337321Y-110633755D01*
X143340667Y-110739939D01*
X143340667Y-111082667D01*
X141478000Y-111082667D01*
X141478000Y-110722033D01*
X141504387Y-110452217D01*
X141595864Y-110294307D01*
X141647333Y-110255649D01*
X141791095Y-110079768D01*
X141815935Y-109848451D01*
X141725340Y-109623262D01*
X141605000Y-109508547D01*
X141439291Y-109418965D01*
X141308996Y-109433454D01*
M02*
