M48
; DRILL file {KiCad (5.1.5)-3} date 8.5.2020. 19:39:05
; FORMAT={-:-/ absolute / inch / decimal}
; #@! TF.CreationDate,2020-05-08T19:39:05+02:00
; #@! TF.GenerationSoftware,Kicad,Pcbnew,(5.1.5)-3
; #@! TF.FileFunction,Plated,1,2,PTH
FMAT,2
INCH
T1C0.0157
T2C0.0394
T3C0.0591
%
G90
G05
T1
X5.15Y-3.975
X5.16Y-3.4
X5.195Y-4.515
X5.35Y-4.775
X5.37Y-3.4
X5.3731Y-4.255
X5.375Y-3.975
X5.375Y-4.515
X5.415Y-3.63
X5.415Y-3.67
X5.415Y-3.71
X5.415Y-3.75
X5.415Y-3.79
X5.5131Y-4.775
X5.555Y-4.255
X5.555Y-4.515
X5.575Y-3.975
X5.63Y-3.4
X5.735Y-4.515
X5.74Y-4.775
X5.8Y-3.975
X5.84Y-3.63
X5.84Y-3.67
X5.84Y-3.71
X5.84Y-3.75
X5.84Y-3.79
X5.85Y-3.4
T2
X5.95Y-4.15
X5.95Y-4.25
X5.95Y-4.35
X5.95Y-4.45
X5.95Y-4.55
X5.95Y-4.65
X5.95Y-4.75
X5.95Y-4.85
X5.05Y-4.15
X5.05Y-4.25
X5.05Y-4.35
X5.05Y-4.45
X5.05Y-4.55
X5.05Y-4.65
X5.05Y-4.75
X5.05Y-4.85
T3
X5.3Y-3.875
X5.725Y-3.875
X5.0Y-2.945
X5.2Y-2.945
X5.4Y-2.945
X5.6Y-2.945
X5.8Y-2.945
X6.0Y-2.945
T0
M30
