G04 #@! TF.GenerationSoftware,KiCad,Pcbnew,(5.1.5)-3*
G04 #@! TF.CreationDate,2020-05-08T19:39:07+02:00*
G04 #@! TF.ProjectId,DRV8870 BDC Motor Driver,44525638-3837-4302-9042-4443204d6f74,rev?*
G04 #@! TF.SameCoordinates,Original*
G04 #@! TF.FileFunction,Soldermask,Bot*
G04 #@! TF.FilePolarity,Negative*
%FSLAX46Y46*%
G04 Gerber Fmt 4.6, Leading zero omitted, Abs format (unit mm)*
G04 Created by KiCad (PCBNEW (5.1.5)-3) date 2020-05-08 19:39:07*
%MOMM*%
%LPD*%
G04 APERTURE LIST*
%ADD10C,0.100000*%
G04 APERTURE END LIST*
D10*
G36*
X151243512Y-122293927D02*
G01*
X151392812Y-122323624D01*
X151556784Y-122391544D01*
X151704354Y-122490147D01*
X151829853Y-122615646D01*
X151928456Y-122763216D01*
X151996376Y-122927188D01*
X152031000Y-123101259D01*
X152031000Y-123278741D01*
X151996376Y-123452812D01*
X151928456Y-123616784D01*
X151829853Y-123764354D01*
X151704354Y-123889853D01*
X151556784Y-123988456D01*
X151392812Y-124056376D01*
X151243512Y-124086073D01*
X151218742Y-124091000D01*
X151041258Y-124091000D01*
X151016488Y-124086073D01*
X150867188Y-124056376D01*
X150703216Y-123988456D01*
X150555646Y-123889853D01*
X150430147Y-123764354D01*
X150331544Y-123616784D01*
X150263624Y-123452812D01*
X150229000Y-123278741D01*
X150229000Y-123101259D01*
X150263624Y-122927188D01*
X150331544Y-122763216D01*
X150430147Y-122615646D01*
X150555646Y-122490147D01*
X150703216Y-122391544D01*
X150867188Y-122323624D01*
X151016488Y-122293927D01*
X151041258Y-122289000D01*
X151218742Y-122289000D01*
X151243512Y-122293927D01*
G37*
G36*
X128383512Y-122293927D02*
G01*
X128532812Y-122323624D01*
X128696784Y-122391544D01*
X128844354Y-122490147D01*
X128969853Y-122615646D01*
X129068456Y-122763216D01*
X129136376Y-122927188D01*
X129171000Y-123101259D01*
X129171000Y-123278741D01*
X129136376Y-123452812D01*
X129068456Y-123616784D01*
X128969853Y-123764354D01*
X128844354Y-123889853D01*
X128696784Y-123988456D01*
X128532812Y-124056376D01*
X128383512Y-124086073D01*
X128358742Y-124091000D01*
X128181258Y-124091000D01*
X128156488Y-124086073D01*
X128007188Y-124056376D01*
X127843216Y-123988456D01*
X127695646Y-123889853D01*
X127570147Y-123764354D01*
X127471544Y-123616784D01*
X127403624Y-123452812D01*
X127369000Y-123278741D01*
X127369000Y-123101259D01*
X127403624Y-122927188D01*
X127471544Y-122763216D01*
X127570147Y-122615646D01*
X127695646Y-122490147D01*
X127843216Y-122391544D01*
X128007188Y-122323624D01*
X128156488Y-122293927D01*
X128181258Y-122289000D01*
X128358742Y-122289000D01*
X128383512Y-122293927D01*
G37*
G36*
X128383512Y-119753927D02*
G01*
X128532812Y-119783624D01*
X128696784Y-119851544D01*
X128844354Y-119950147D01*
X128969853Y-120075646D01*
X129068456Y-120223216D01*
X129136376Y-120387188D01*
X129171000Y-120561259D01*
X129171000Y-120738741D01*
X129136376Y-120912812D01*
X129068456Y-121076784D01*
X128969853Y-121224354D01*
X128844354Y-121349853D01*
X128696784Y-121448456D01*
X128532812Y-121516376D01*
X128383512Y-121546073D01*
X128358742Y-121551000D01*
X128181258Y-121551000D01*
X128156488Y-121546073D01*
X128007188Y-121516376D01*
X127843216Y-121448456D01*
X127695646Y-121349853D01*
X127570147Y-121224354D01*
X127471544Y-121076784D01*
X127403624Y-120912812D01*
X127369000Y-120738741D01*
X127369000Y-120561259D01*
X127403624Y-120387188D01*
X127471544Y-120223216D01*
X127570147Y-120075646D01*
X127695646Y-119950147D01*
X127843216Y-119851544D01*
X128007188Y-119783624D01*
X128156488Y-119753927D01*
X128181258Y-119749000D01*
X128358742Y-119749000D01*
X128383512Y-119753927D01*
G37*
G36*
X151243512Y-119753927D02*
G01*
X151392812Y-119783624D01*
X151556784Y-119851544D01*
X151704354Y-119950147D01*
X151829853Y-120075646D01*
X151928456Y-120223216D01*
X151996376Y-120387188D01*
X152031000Y-120561259D01*
X152031000Y-120738741D01*
X151996376Y-120912812D01*
X151928456Y-121076784D01*
X151829853Y-121224354D01*
X151704354Y-121349853D01*
X151556784Y-121448456D01*
X151392812Y-121516376D01*
X151243512Y-121546073D01*
X151218742Y-121551000D01*
X151041258Y-121551000D01*
X151016488Y-121546073D01*
X150867188Y-121516376D01*
X150703216Y-121448456D01*
X150555646Y-121349853D01*
X150430147Y-121224354D01*
X150331544Y-121076784D01*
X150263624Y-120912812D01*
X150229000Y-120738741D01*
X150229000Y-120561259D01*
X150263624Y-120387188D01*
X150331544Y-120223216D01*
X150430147Y-120075646D01*
X150555646Y-119950147D01*
X150703216Y-119851544D01*
X150867188Y-119783624D01*
X151016488Y-119753927D01*
X151041258Y-119749000D01*
X151218742Y-119749000D01*
X151243512Y-119753927D01*
G37*
G36*
X128383512Y-117213927D02*
G01*
X128532812Y-117243624D01*
X128696784Y-117311544D01*
X128844354Y-117410147D01*
X128969853Y-117535646D01*
X129068456Y-117683216D01*
X129136376Y-117847188D01*
X129171000Y-118021259D01*
X129171000Y-118198741D01*
X129136376Y-118372812D01*
X129068456Y-118536784D01*
X128969853Y-118684354D01*
X128844354Y-118809853D01*
X128696784Y-118908456D01*
X128532812Y-118976376D01*
X128383512Y-119006073D01*
X128358742Y-119011000D01*
X128181258Y-119011000D01*
X128156488Y-119006073D01*
X128007188Y-118976376D01*
X127843216Y-118908456D01*
X127695646Y-118809853D01*
X127570147Y-118684354D01*
X127471544Y-118536784D01*
X127403624Y-118372812D01*
X127369000Y-118198741D01*
X127369000Y-118021259D01*
X127403624Y-117847188D01*
X127471544Y-117683216D01*
X127570147Y-117535646D01*
X127695646Y-117410147D01*
X127843216Y-117311544D01*
X128007188Y-117243624D01*
X128156488Y-117213927D01*
X128181258Y-117209000D01*
X128358742Y-117209000D01*
X128383512Y-117213927D01*
G37*
G36*
X151243512Y-117213927D02*
G01*
X151392812Y-117243624D01*
X151556784Y-117311544D01*
X151704354Y-117410147D01*
X151829853Y-117535646D01*
X151928456Y-117683216D01*
X151996376Y-117847188D01*
X152031000Y-118021259D01*
X152031000Y-118198741D01*
X151996376Y-118372812D01*
X151928456Y-118536784D01*
X151829853Y-118684354D01*
X151704354Y-118809853D01*
X151556784Y-118908456D01*
X151392812Y-118976376D01*
X151243512Y-119006073D01*
X151218742Y-119011000D01*
X151041258Y-119011000D01*
X151016488Y-119006073D01*
X150867188Y-118976376D01*
X150703216Y-118908456D01*
X150555646Y-118809853D01*
X150430147Y-118684354D01*
X150331544Y-118536784D01*
X150263624Y-118372812D01*
X150229000Y-118198741D01*
X150229000Y-118021259D01*
X150263624Y-117847188D01*
X150331544Y-117683216D01*
X150430147Y-117535646D01*
X150555646Y-117410147D01*
X150703216Y-117311544D01*
X150867188Y-117243624D01*
X151016488Y-117213927D01*
X151041258Y-117209000D01*
X151218742Y-117209000D01*
X151243512Y-117213927D01*
G37*
G36*
X128383512Y-114673927D02*
G01*
X128532812Y-114703624D01*
X128696784Y-114771544D01*
X128844354Y-114870147D01*
X128969853Y-114995646D01*
X129068456Y-115143216D01*
X129136376Y-115307188D01*
X129171000Y-115481259D01*
X129171000Y-115658741D01*
X129136376Y-115832812D01*
X129068456Y-115996784D01*
X128969853Y-116144354D01*
X128844354Y-116269853D01*
X128696784Y-116368456D01*
X128532812Y-116436376D01*
X128383512Y-116466073D01*
X128358742Y-116471000D01*
X128181258Y-116471000D01*
X128156488Y-116466073D01*
X128007188Y-116436376D01*
X127843216Y-116368456D01*
X127695646Y-116269853D01*
X127570147Y-116144354D01*
X127471544Y-115996784D01*
X127403624Y-115832812D01*
X127369000Y-115658741D01*
X127369000Y-115481259D01*
X127403624Y-115307188D01*
X127471544Y-115143216D01*
X127570147Y-114995646D01*
X127695646Y-114870147D01*
X127843216Y-114771544D01*
X128007188Y-114703624D01*
X128156488Y-114673927D01*
X128181258Y-114669000D01*
X128358742Y-114669000D01*
X128383512Y-114673927D01*
G37*
G36*
X151243512Y-114673927D02*
G01*
X151392812Y-114703624D01*
X151556784Y-114771544D01*
X151704354Y-114870147D01*
X151829853Y-114995646D01*
X151928456Y-115143216D01*
X151996376Y-115307188D01*
X152031000Y-115481259D01*
X152031000Y-115658741D01*
X151996376Y-115832812D01*
X151928456Y-115996784D01*
X151829853Y-116144354D01*
X151704354Y-116269853D01*
X151556784Y-116368456D01*
X151392812Y-116436376D01*
X151243512Y-116466073D01*
X151218742Y-116471000D01*
X151041258Y-116471000D01*
X151016488Y-116466073D01*
X150867188Y-116436376D01*
X150703216Y-116368456D01*
X150555646Y-116269853D01*
X150430147Y-116144354D01*
X150331544Y-115996784D01*
X150263624Y-115832812D01*
X150229000Y-115658741D01*
X150229000Y-115481259D01*
X150263624Y-115307188D01*
X150331544Y-115143216D01*
X150430147Y-114995646D01*
X150555646Y-114870147D01*
X150703216Y-114771544D01*
X150867188Y-114703624D01*
X151016488Y-114673927D01*
X151041258Y-114669000D01*
X151218742Y-114669000D01*
X151243512Y-114673927D01*
G37*
G36*
X128383512Y-112133927D02*
G01*
X128532812Y-112163624D01*
X128696784Y-112231544D01*
X128844354Y-112330147D01*
X128969853Y-112455646D01*
X129068456Y-112603216D01*
X129136376Y-112767188D01*
X129171000Y-112941259D01*
X129171000Y-113118741D01*
X129136376Y-113292812D01*
X129068456Y-113456784D01*
X128969853Y-113604354D01*
X128844354Y-113729853D01*
X128696784Y-113828456D01*
X128532812Y-113896376D01*
X128383512Y-113926073D01*
X128358742Y-113931000D01*
X128181258Y-113931000D01*
X128156488Y-113926073D01*
X128007188Y-113896376D01*
X127843216Y-113828456D01*
X127695646Y-113729853D01*
X127570147Y-113604354D01*
X127471544Y-113456784D01*
X127403624Y-113292812D01*
X127369000Y-113118741D01*
X127369000Y-112941259D01*
X127403624Y-112767188D01*
X127471544Y-112603216D01*
X127570147Y-112455646D01*
X127695646Y-112330147D01*
X127843216Y-112231544D01*
X128007188Y-112163624D01*
X128156488Y-112133927D01*
X128181258Y-112129000D01*
X128358742Y-112129000D01*
X128383512Y-112133927D01*
G37*
G36*
X151243512Y-112133927D02*
G01*
X151392812Y-112163624D01*
X151556784Y-112231544D01*
X151704354Y-112330147D01*
X151829853Y-112455646D01*
X151928456Y-112603216D01*
X151996376Y-112767188D01*
X152031000Y-112941259D01*
X152031000Y-113118741D01*
X151996376Y-113292812D01*
X151928456Y-113456784D01*
X151829853Y-113604354D01*
X151704354Y-113729853D01*
X151556784Y-113828456D01*
X151392812Y-113896376D01*
X151243512Y-113926073D01*
X151218742Y-113931000D01*
X151041258Y-113931000D01*
X151016488Y-113926073D01*
X150867188Y-113896376D01*
X150703216Y-113828456D01*
X150555646Y-113729853D01*
X150430147Y-113604354D01*
X150331544Y-113456784D01*
X150263624Y-113292812D01*
X150229000Y-113118741D01*
X150229000Y-112941259D01*
X150263624Y-112767188D01*
X150331544Y-112603216D01*
X150430147Y-112455646D01*
X150555646Y-112330147D01*
X150703216Y-112231544D01*
X150867188Y-112163624D01*
X151016488Y-112133927D01*
X151041258Y-112129000D01*
X151218742Y-112129000D01*
X151243512Y-112133927D01*
G37*
G36*
X128383512Y-109593927D02*
G01*
X128532812Y-109623624D01*
X128696784Y-109691544D01*
X128844354Y-109790147D01*
X128969853Y-109915646D01*
X129068456Y-110063216D01*
X129136376Y-110227188D01*
X129171000Y-110401259D01*
X129171000Y-110578741D01*
X129136376Y-110752812D01*
X129068456Y-110916784D01*
X128969853Y-111064354D01*
X128844354Y-111189853D01*
X128696784Y-111288456D01*
X128532812Y-111356376D01*
X128383512Y-111386073D01*
X128358742Y-111391000D01*
X128181258Y-111391000D01*
X128156488Y-111386073D01*
X128007188Y-111356376D01*
X127843216Y-111288456D01*
X127695646Y-111189853D01*
X127570147Y-111064354D01*
X127471544Y-110916784D01*
X127403624Y-110752812D01*
X127369000Y-110578741D01*
X127369000Y-110401259D01*
X127403624Y-110227188D01*
X127471544Y-110063216D01*
X127570147Y-109915646D01*
X127695646Y-109790147D01*
X127843216Y-109691544D01*
X128007188Y-109623624D01*
X128156488Y-109593927D01*
X128181258Y-109589000D01*
X128358742Y-109589000D01*
X128383512Y-109593927D01*
G37*
G36*
X151243512Y-109593927D02*
G01*
X151392812Y-109623624D01*
X151556784Y-109691544D01*
X151704354Y-109790147D01*
X151829853Y-109915646D01*
X151928456Y-110063216D01*
X151996376Y-110227188D01*
X152031000Y-110401259D01*
X152031000Y-110578741D01*
X151996376Y-110752812D01*
X151928456Y-110916784D01*
X151829853Y-111064354D01*
X151704354Y-111189853D01*
X151556784Y-111288456D01*
X151392812Y-111356376D01*
X151243512Y-111386073D01*
X151218742Y-111391000D01*
X151041258Y-111391000D01*
X151016488Y-111386073D01*
X150867188Y-111356376D01*
X150703216Y-111288456D01*
X150555646Y-111189853D01*
X150430147Y-111064354D01*
X150331544Y-110916784D01*
X150263624Y-110752812D01*
X150229000Y-110578741D01*
X150229000Y-110401259D01*
X150263624Y-110227188D01*
X150331544Y-110063216D01*
X150430147Y-109915646D01*
X150555646Y-109790147D01*
X150703216Y-109691544D01*
X150867188Y-109623624D01*
X151016488Y-109593927D01*
X151041258Y-109589000D01*
X151218742Y-109589000D01*
X151243512Y-109593927D01*
G37*
G36*
X151243512Y-107053927D02*
G01*
X151392812Y-107083624D01*
X151556784Y-107151544D01*
X151704354Y-107250147D01*
X151829853Y-107375646D01*
X151928456Y-107523216D01*
X151996376Y-107687188D01*
X152031000Y-107861259D01*
X152031000Y-108038741D01*
X151996376Y-108212812D01*
X151928456Y-108376784D01*
X151829853Y-108524354D01*
X151704354Y-108649853D01*
X151556784Y-108748456D01*
X151392812Y-108816376D01*
X151243512Y-108846073D01*
X151218742Y-108851000D01*
X151041258Y-108851000D01*
X151016488Y-108846073D01*
X150867188Y-108816376D01*
X150703216Y-108748456D01*
X150555646Y-108649853D01*
X150430147Y-108524354D01*
X150331544Y-108376784D01*
X150263624Y-108212812D01*
X150229000Y-108038741D01*
X150229000Y-107861259D01*
X150263624Y-107687188D01*
X150331544Y-107523216D01*
X150430147Y-107375646D01*
X150555646Y-107250147D01*
X150703216Y-107151544D01*
X150867188Y-107083624D01*
X151016488Y-107053927D01*
X151041258Y-107049000D01*
X151218742Y-107049000D01*
X151243512Y-107053927D01*
G37*
G36*
X128383512Y-107053927D02*
G01*
X128532812Y-107083624D01*
X128696784Y-107151544D01*
X128844354Y-107250147D01*
X128969853Y-107375646D01*
X129068456Y-107523216D01*
X129136376Y-107687188D01*
X129171000Y-107861259D01*
X129171000Y-108038741D01*
X129136376Y-108212812D01*
X129068456Y-108376784D01*
X128969853Y-108524354D01*
X128844354Y-108649853D01*
X128696784Y-108748456D01*
X128532812Y-108816376D01*
X128383512Y-108846073D01*
X128358742Y-108851000D01*
X128181258Y-108851000D01*
X128156488Y-108846073D01*
X128007188Y-108816376D01*
X127843216Y-108748456D01*
X127695646Y-108649853D01*
X127570147Y-108524354D01*
X127471544Y-108376784D01*
X127403624Y-108212812D01*
X127369000Y-108038741D01*
X127369000Y-107861259D01*
X127403624Y-107687188D01*
X127471544Y-107523216D01*
X127570147Y-107375646D01*
X127695646Y-107250147D01*
X127843216Y-107151544D01*
X128007188Y-107083624D01*
X128156488Y-107053927D01*
X128181258Y-107049000D01*
X128358742Y-107049000D01*
X128383512Y-107053927D01*
G37*
G36*
X152031000Y-106311000D02*
G01*
X150229000Y-106311000D01*
X150229000Y-104509000D01*
X152031000Y-104509000D01*
X152031000Y-106311000D01*
G37*
G36*
X129171000Y-106311000D02*
G01*
X127369000Y-106311000D01*
X127369000Y-104509000D01*
X129171000Y-104509000D01*
X129171000Y-106311000D01*
G37*
G36*
X146716000Y-99476000D02*
G01*
X144114000Y-99476000D01*
X144114000Y-97374000D01*
X146716000Y-97374000D01*
X146716000Y-99476000D01*
G37*
G36*
X135921000Y-99476000D02*
G01*
X133319000Y-99476000D01*
X133319000Y-97374000D01*
X135921000Y-97374000D01*
X135921000Y-99476000D01*
G37*
G36*
X127375256Y-73194298D02*
G01*
X127481579Y-73215447D01*
X127782042Y-73339903D01*
X128052451Y-73520585D01*
X128282415Y-73750549D01*
X128463097Y-74020958D01*
X128587553Y-74321421D01*
X128651000Y-74640391D01*
X128651000Y-74965609D01*
X128587553Y-75284579D01*
X128463097Y-75585042D01*
X128282415Y-75855451D01*
X128052451Y-76085415D01*
X127782042Y-76266097D01*
X127481579Y-76390553D01*
X127375256Y-76411702D01*
X127162611Y-76454000D01*
X126837389Y-76454000D01*
X126624744Y-76411702D01*
X126518421Y-76390553D01*
X126217958Y-76266097D01*
X125947549Y-76085415D01*
X125717585Y-75855451D01*
X125536903Y-75585042D01*
X125412447Y-75284579D01*
X125349000Y-74965609D01*
X125349000Y-74640391D01*
X125412447Y-74321421D01*
X125536903Y-74020958D01*
X125717585Y-73750549D01*
X125947549Y-73520585D01*
X126217958Y-73339903D01*
X126518421Y-73215447D01*
X126624744Y-73194298D01*
X126837389Y-73152000D01*
X127162611Y-73152000D01*
X127375256Y-73194298D01*
G37*
G36*
X132455256Y-73194298D02*
G01*
X132561579Y-73215447D01*
X132862042Y-73339903D01*
X133132451Y-73520585D01*
X133362415Y-73750549D01*
X133543097Y-74020958D01*
X133667553Y-74321421D01*
X133731000Y-74640391D01*
X133731000Y-74965609D01*
X133667553Y-75284579D01*
X133543097Y-75585042D01*
X133362415Y-75855451D01*
X133132451Y-76085415D01*
X132862042Y-76266097D01*
X132561579Y-76390553D01*
X132455256Y-76411702D01*
X132242611Y-76454000D01*
X131917389Y-76454000D01*
X131704744Y-76411702D01*
X131598421Y-76390553D01*
X131297958Y-76266097D01*
X131027549Y-76085415D01*
X130797585Y-75855451D01*
X130616903Y-75585042D01*
X130492447Y-75284579D01*
X130429000Y-74965609D01*
X130429000Y-74640391D01*
X130492447Y-74321421D01*
X130616903Y-74020958D01*
X130797585Y-73750549D01*
X131027549Y-73520585D01*
X131297958Y-73339903D01*
X131598421Y-73215447D01*
X131704744Y-73194298D01*
X131917389Y-73152000D01*
X132242611Y-73152000D01*
X132455256Y-73194298D01*
G37*
G36*
X137535256Y-73194298D02*
G01*
X137641579Y-73215447D01*
X137942042Y-73339903D01*
X138212451Y-73520585D01*
X138442415Y-73750549D01*
X138623097Y-74020958D01*
X138747553Y-74321421D01*
X138811000Y-74640391D01*
X138811000Y-74965609D01*
X138747553Y-75284579D01*
X138623097Y-75585042D01*
X138442415Y-75855451D01*
X138212451Y-76085415D01*
X137942042Y-76266097D01*
X137641579Y-76390553D01*
X137535256Y-76411702D01*
X137322611Y-76454000D01*
X136997389Y-76454000D01*
X136784744Y-76411702D01*
X136678421Y-76390553D01*
X136377958Y-76266097D01*
X136107549Y-76085415D01*
X135877585Y-75855451D01*
X135696903Y-75585042D01*
X135572447Y-75284579D01*
X135509000Y-74965609D01*
X135509000Y-74640391D01*
X135572447Y-74321421D01*
X135696903Y-74020958D01*
X135877585Y-73750549D01*
X136107549Y-73520585D01*
X136377958Y-73339903D01*
X136678421Y-73215447D01*
X136784744Y-73194298D01*
X136997389Y-73152000D01*
X137322611Y-73152000D01*
X137535256Y-73194298D01*
G37*
G36*
X142615256Y-73194298D02*
G01*
X142721579Y-73215447D01*
X143022042Y-73339903D01*
X143292451Y-73520585D01*
X143522415Y-73750549D01*
X143703097Y-74020958D01*
X143827553Y-74321421D01*
X143891000Y-74640391D01*
X143891000Y-74965609D01*
X143827553Y-75284579D01*
X143703097Y-75585042D01*
X143522415Y-75855451D01*
X143292451Y-76085415D01*
X143022042Y-76266097D01*
X142721579Y-76390553D01*
X142615256Y-76411702D01*
X142402611Y-76454000D01*
X142077389Y-76454000D01*
X141864744Y-76411702D01*
X141758421Y-76390553D01*
X141457958Y-76266097D01*
X141187549Y-76085415D01*
X140957585Y-75855451D01*
X140776903Y-75585042D01*
X140652447Y-75284579D01*
X140589000Y-74965609D01*
X140589000Y-74640391D01*
X140652447Y-74321421D01*
X140776903Y-74020958D01*
X140957585Y-73750549D01*
X141187549Y-73520585D01*
X141457958Y-73339903D01*
X141758421Y-73215447D01*
X141864744Y-73194298D01*
X142077389Y-73152000D01*
X142402611Y-73152000D01*
X142615256Y-73194298D01*
G37*
G36*
X147695256Y-73194298D02*
G01*
X147801579Y-73215447D01*
X148102042Y-73339903D01*
X148372451Y-73520585D01*
X148602415Y-73750549D01*
X148783097Y-74020958D01*
X148907553Y-74321421D01*
X148971000Y-74640391D01*
X148971000Y-74965609D01*
X148907553Y-75284579D01*
X148783097Y-75585042D01*
X148602415Y-75855451D01*
X148372451Y-76085415D01*
X148102042Y-76266097D01*
X147801579Y-76390553D01*
X147695256Y-76411702D01*
X147482611Y-76454000D01*
X147157389Y-76454000D01*
X146944744Y-76411702D01*
X146838421Y-76390553D01*
X146537958Y-76266097D01*
X146267549Y-76085415D01*
X146037585Y-75855451D01*
X145856903Y-75585042D01*
X145732447Y-75284579D01*
X145669000Y-74965609D01*
X145669000Y-74640391D01*
X145732447Y-74321421D01*
X145856903Y-74020958D01*
X146037585Y-73750549D01*
X146267549Y-73520585D01*
X146537958Y-73339903D01*
X146838421Y-73215447D01*
X146944744Y-73194298D01*
X147157389Y-73152000D01*
X147482611Y-73152000D01*
X147695256Y-73194298D01*
G37*
G36*
X152775256Y-73194298D02*
G01*
X152881579Y-73215447D01*
X153182042Y-73339903D01*
X153452451Y-73520585D01*
X153682415Y-73750549D01*
X153863097Y-74020958D01*
X153987553Y-74321421D01*
X154051000Y-74640391D01*
X154051000Y-74965609D01*
X153987553Y-75284579D01*
X153863097Y-75585042D01*
X153682415Y-75855451D01*
X153452451Y-76085415D01*
X153182042Y-76266097D01*
X152881579Y-76390553D01*
X152775256Y-76411702D01*
X152562611Y-76454000D01*
X152237389Y-76454000D01*
X152024744Y-76411702D01*
X151918421Y-76390553D01*
X151617958Y-76266097D01*
X151347549Y-76085415D01*
X151117585Y-75855451D01*
X150936903Y-75585042D01*
X150812447Y-75284579D01*
X150749000Y-74965609D01*
X150749000Y-74640391D01*
X150812447Y-74321421D01*
X150936903Y-74020958D01*
X151117585Y-73750549D01*
X151347549Y-73520585D01*
X151617958Y-73339903D01*
X151918421Y-73215447D01*
X152024744Y-73194298D01*
X152237389Y-73152000D01*
X152562611Y-73152000D01*
X152775256Y-73194298D01*
G37*
M02*
